<?xml version="1.0" encoding="utf-8"?>
<!-- Generator: Adobe Illustrator 18.0.0, SVG Export Plug-In . SVG Version: 6.00 Build 0)  -->
<!DOCTYPE svg PUBLIC "-//W3C//DTD SVG 1.1//EN" "http://www.w3.org/Graphics/SVG/1.1/DTD/svg11.dtd">
<svg version="1.1" id="Слой_1" xmlns="http://www.w3.org/2000/svg" xmlns:xlink="http://www.w3.org/1999/xlink" x="0px" y="0px"
	 viewBox="0 0 1024 768" enable-background="new 0 0 1024 768" xml:space="preserve">
<path fill="#000000"      d="
	M1015.8,573c-6-5.5-12-44.2-12-44.2c-12-36-55.7-15.3-55.7-15.3c-23.5,4.9-37.1-13-37.1-13l10.9,2.4c-8.2-3.3-25.4-22.2-25.4-22.2
	h4.6C884.2,466,888.6,431,888.6,431c1.6-19.1,5.5-50.3,5.5-50.3c1.6,1.1,2.2,12.3,2.2,12.3c6.6-22.4-7.7-60.7-7.7-60.7
	c3.8,0,7.6,14.7,7.6,14.7c1.1-34.9-40.4-79.8-40.4-79.8l8.7,4.9c-15.8-25.7-48.6-50.8-48.6-50.8c7.1-1.6,9.3,0,9.3,0
	c-18.6-15.3-72.1-33.9-72.1-33.9c5.5-2.7,15.3,0,15.3,0c-13.1-10.4-54.1-8.2-54.1-8.2c3.3,0,8.2-9.2,8.2-9.2
	c-5.4,5.5-26.2,7.7-30.4,8c3.2-1,6.9-10.3,6.9-10.3c-10.9,9.8-30,10.9-30,10.9c4.9-1.6,6.6-10.9,6.6-10.9
	c-11.5,12.6-48.5,13.7-48.5,13.7c-56.9-7.9-207,2.7-207,2.7c7.6-4.4,0-16.2,0-16.2c-2.2,13.1-9.3,11.9-9.3,11.9
	c7.6-17.5-3.3-25-3.3-25c4.4,11.5-7.6,22.9-7.6,22.9c1.1-20.7-12.6-25.1-12.6-25.1c13.1,12,2.7,30.6,2.7,30.6
	c2.2-9.3-3.3-19.1-3.3-19.1c0.5,21.8-25.1,23.4-25.1,23.4c5.5-2.2,7.2-7,7.2-7c-20.2,4.4-33.7-4.5-33.7-4.5l-3.5-1.5h5.6
	c-2.8-5.6-8.3-11.6-8.3-11.6c3,0,8.3,3.6,8.3,3.6c-3.1-11.8-14.2-17.4-14.2-17.4c3-1.2,11.3,3.5,11.3,3.5
	c-0.6-8.3-28.5-16.7-28.5-16.7c5.3-3,11.9-2.4,11.9-2.4c-11.3-7.7-31.9-8.9-31.9-8.9s6.3-16.7-12.7-33.3c0,0,3.6,9.5-5.9,10.7
	c0,0,4.7-16-9.5-25.5c0,0,1.8,10.1-9.5,10.7c0,0-6.3-15.3-13.6-15.4c0,0,1.4,7.2-1.6,9l-2.6-1.8c-0.6-7.7-11.9-15.7-11.9-15.7
	c1.2,4.2-2.4,5.6-2.4,5.6c-3.9-11.8-10.1-14.2-10.1-14.2c1.8,6.1-0.6,12.5-0.6,12.5c1.2-5.9-10.7-17.8-10.7-17.8
	c1.2,8.9-4.2,10.1-4.2,10.1c-4.7-8.3-3-13.6-3-13.6l-4.2,7.7c-3.6-12.5-19-24.3-19-24.3l-2.4,5.3l-3-10.1l-1.8,5.9l-1.7-5.2
	l-2.4-7.3l-2.4,4.2c-4.7-20.8-13.6-22-13.6-22c-16.6,8.3-6.5,32.6-6.5,32.6c4.7,4.7,4.7,20.8,4.7,20.8c-1.2-3.6-8.9-9.5-8.9-9.5
	l1.2,5.9c0,0,0.4,2.1,0.6,3.2c0-0.1,0-0.1,0-0.2c-0.6-3-12.5-14.8-12.5-14.8l3,9.5l-8.3-9.5C92.2,20.2,73.2,23.7,73.2,23.7
	C57.2,19,61.3,35,61.3,35c0,21.4,20.2,25.5,20.2,25.5c11.9,8.3,4,13.6,4,13.6l2.8,5.1l2.7,4.9h-5.5c0,0,7.7,8.6,5.9,8.1
	c-1.8-0.6-8.8,2-8.8,2c7.1,1.8,7.7,7.5,7.7,7.5l-8.3,11.2c-6.5,3-5.3,20.7-5.3,20.7l-3.6-3l1.2,7.1l-4.2,3c3.6,0,4.7,5.3,4.7,5.3
	c1.8,8.9-13.1,17.2-13.1,17.2c-18.9,10.4-48.7,35-48.7,35c-10.7,5.9,0,17.2,0,17.2c0.6,7.7,10.1,13.6,10.1,13.6
	c2.4,8.3,12.3,11.4,12.3,11.4s-2.2,10.4,18,14.2c0,0,22.4,0,37.7-4.4c0,0,38.8-5.5,47-12.1c0,0,21.8,2.3,0,36.1l6.6-3.8
	c0,0,2.7,16.4-16.4,37.1l12.6-8.7c0,0-13.7,16.9-11.5,39.3c0,0,3.8-15.8,11.5-16.9c0,0,2.7,3.3-1.1,9.3l8.1-2.2
	c0,0-18.4,19-19.5,36.4c0,0,4.3-12.4,16.3-10.2c0,0-6.6,8.2-3.3,24c0,0,4.4-12.6,15.8-10.4c0,0-9.8,7.6-2.2,19.7
	c0,0,1.6-5.5,4.9-5.5c0,0-4.4,19.1,7.6,26.2c0,0-0.9-6.3,5-7.5c0,0,6.5,27.9,28.5,43.3c0,0,0-13.6,4.2-9.5c0,0,5.3,8.3,3.6,19.6
	c0,0,4.7-4.7,7.1-9.5c0,0,5.3,7.7,0,19c0,0,10.7-1.2,10.1-11.9c0,0,11.9,9.5,10.1,16.6l7.1-5.3c0,0-1.8,7.7,10.1,16.6
	c0,0,1.2-11.9,7.1,0c0,0,6.4,20.2,16.5,25.5c0,0-2.9-13.1,6.6,0c0,0,11.3,16.6,21.4,21.4l10.6,9.2c0,0,23.3,27.8,23.3,36.9
	l10.6,53.6c0,0,10.1,53.4,5.6,75.4c-0.7,3.1-2.5,6.1-2.5,6.1c-4.6-3-16.1,2.1-16.1,2.1s-5.7,2.6-8.5,7.4c0,0-4.5,10.3,3,14.5
	c0,0-7.5,14,7.4,15.3c0,0,31.5,10.5,53.8-19c0,0,2.1-4.4,4.3-10.2c1,1.8,3,3.3,6.6,3.7c0,0,25.3,10.3,42.9-17.1l2.5-9.4
	c-0.5-6.6,6.7-41,6.7-41l1.6,3.6v-12.2l3.4,5.1c3.5-5.6-2.3-18.7-2.3-18.7c3,0,5.7,9.1,5.7,9.1c1.5-8.6-6.9-23.9-6.9-23.9
	c3-9.6-10.1-33.9-10.1-33.9h3.5c-3-11.3-6.6-21.7-6.6-21.7l6.6,7c1.5-12.1-20.2-49.4-20.2-49.4s-7.4-12.6,8-3.1c0,0-1.5-6.9-4-10.4
	c1.5,1.4,5.5,3.4,14.7-1c0,0-8.3-5.4-7.7-8.3c0,0,20.2,3.7,32,0.7c0,0-10.1-1.8-10.1-6.3c0,0,18.4,2.8,29.7,0.4
	c0,0-13.1-3.1-13.6-7.3c0,0,80.1-5.9,102.7-34.4c0,0,4.7-4.7,16.6-2.4c0,0-4.7-5.9-5.9-5.9c0,0,5.9-6.5,19.6,6.5
	c0,0,2.4-4.4-2.4-8.2c0,0,15.4-3.7,19,11.7c0,0,3.6-8.8,0-12.1c0,0,14.8,4.6,12.5,20l10.5-15.8c0,0-15.8,29.4-5.4,58.9
	c0,0,0.6-11.5,5.5-12c0,0-6,16.9,4.2,43.7c0,0-2-14.2,6.8-18c0,0,2.7,12.1-3.3,13.1c0,0,6,0.2,9.3-4.8c0,0-0.5,10.8-3.8,11.9
	c0,0,9.4-1.1,12.1-5.5c0,0,4.9,25.7,26.7,40.4c0,0,28.9,32.2,27.8,49.7c-1.1,17.5,10.4,53-16.9,85.7l-20.2,19.1c0,0-14.7-9.3-28.4,0
	c0,0-5.3,0.7-9.1,6.6c0,0-5.5,9.8,1.6,14.7c0,0-8.8,13.3,5.9,16c0,0,35.9,14,61-13.3l-1.5,7.1c0,0,6.6-8.7,10-15.8v10.6
	c0,0,11.9-17.7,13.6-27l-0.1,9.3l2.9,0.5c0,0,18.7-41.5,23.6-55.7c0,0,6.6-18.6,14.8-25.7c0,0,14.8-15.3,0-36c0,0-7.6-22.9-4.9-38.8
	c0,0,3.3,14.7,11.5,16.9c0,0-7.1-14.2-5.5-24.6c0,0,2.2,5.5,9.3,10.9c0,0-3.7-5.8,0-16c2,10.5,6,10.8,6,10.8
	c-1.5-3.5,2.5-9.8,2.5-9.8c5.6-11.6,5.6-22,5.6-22c2.1,18,15.2,18.7,15.2,18.7c-11.1-7.1-6.5-17.7-6.5-17.7
	c1.6,16.2,28.8,24.8,28.8,24.8c-12.6-6.8-20.1-23-20.1-23s35.6,24.6,38.7,41.8c3,17.2,22.4,49.1,3.5,87.3L857.4,700
	c0,0-16.5-5.6-27.6,6.6c0,0-3,1.8-7.6,7.4c0,0-2.8,11.9,5.3,15c0,0-5.5,14.9,9.5,14.2c0,0,38.2,5.3,56.3-27.1l1,7.1
	c0,0,5.2-10.2,6.9-17.9l2.5,10.3c0,0,6.7-19.8,6.1-29.2l1.7,9.1l2.1,6.7c0,0,8.4-44.7,9.9-59.6c0,0,2-19.6,8.4-28.4
	c0,0,1.3-2.2,2.2-5.9c19.4,4.2,41.5,2.5,41.5,2.5c-7.1-1.1-8.7-6.6-8.7-6.6c21.3,6,27.8,2.7,27.8,2.7l-2.7-6.6
	c6,1.1,8.2,6.6,8.2,6.6c4.4-7,2.4-21,1.5-26.3c2.1,7.1,11.1,17,11.1,17c-6.6-6.6-7.1-38.2-7.1-38.2c3.8,11.5,10.4,15.3,10.4,15.3
	S1021.8,578.5,1015.8,573z M128.5,53.5C128.5,53.7,128.5,53.7,128.5,53.5L128.5,53.5z M417.7,666.4l-1.6,13.2c0.6,3-1.9,5.7-1.9,5.7
	c-1.4-1.1-3.6-1.1-5.7-0.7c1.2-2.1,2.8-8-2.9-22.7c0,0,3.8,0.9,4,1.8l-3.1-16.7l3.1,4l0-11.9C409.6,639,420.1,647.2,417.7,666.4z"/>
</svg>
