<?xml version="1.0" encoding="utf-8"?>
<!-- Generator: Adobe Illustrator 18.0.0, SVG Export Plug-In . SVG Version: 6.00 Build 0)  -->
<!DOCTYPE svg PUBLIC "-//W3C//DTD SVG 1.1//EN" "http://www.w3.org/Graphics/SVG/1.1/DTD/svg11.dtd">
<svg version="1.1" id="Слой_1" xmlns="http://www.w3.org/2000/svg" xmlns:xlink="http://www.w3.org/1999/xlink" x="0px" y="0px"
	 viewBox="218.8 0 805.3 768" enable-background="new 218.8 0 805.3 768" xml:space="preserve">
<path fill="#000000"      d="
	M530.2,210.9l-8.7-16c-3-6-10.2-2.5-10.2-2.5c-8.9-1.9-12.8,2.7-12.8,2.7s-55.6-55-61.6-58.7c0,0-14.9-11.9-16.3-16.8
	c0,0-11.5-14.9-14.5-16.4c0,0-1.5-26.5-13.1-45.1c0,0-11.9-24.6-11.9-43.6c0,0-0.3-27.2-7.8,0l-1.1,3.9c0,0-2.3-28.1-5.7-3.9
	c0,0-6.3,19.7-3,31.3c0,0,1.1,20.5-16.8,24.6c0,0-32,1.8-31.3,6.7c0,0-26.4,3.4-35,16.4c0,0-24.2,14.9-22.4,26.5l-1.2,12.7
	c0,0-9.6-3-11.1,2.6c0,0-4.8,0-4.8,1.5c0,0-10.4,0-10.1,9.3c0,0,0,5.2-3,11.5c0,0-8.2,24.6,0,39.9c0,0,13,25,31.3,23.5
	c0,0,2.2,18.3,19,16l6-3c0,0,7.1,9.3,12.7,9.7c0,0,11.5,13,23.8,11.2c0,0,19.4,4.1,27.2,19.4c0,0,8.5,11.9,11.5,14.2
	c0,0-5.1,7.1-4.9,15.1c-7.4,3.4-12.6,10.8-12.6,19.4c0,8.1,4.6,15.2,11.3,18.8c-1.1,3.3-1.6,7.5-1.6,11.7c0,5.7,0.2,11.5,2.2,14.9
	c-0.5,0.8-1.6,1.8-1.6,2.8v20.5c0,3,2.4,5.4,5.4,5.4c3,0,5.4-2.4,5.4-5.4v-20.5c0-1.2,0.4-2.2-0.3-3.1c1.9-3.4,3.2-9,3.2-14.6
	c0-3.2-0.1-6.4-0.7-9.2c4.9-0.4,9.4-2.5,12.8-5.7c1.8,5.5,4.3,13.1,5.8,15.5c0,0,7.5,25,2.3,31.4h2.6l-2.6,5.1
	c0,0,1.9,34.3,24.2,63.4c0,0,1.5,65.4,13,86.3c0,0,2.6,11.5,4.8,31.2c0,0,5.2,38,8.6,46.5c0,0,1.5,7.1,0,14.5c0,0-5.2,20.1-4.1,23.8
	c0,0-4.8,7.1-10.1,6.7c0,0-27.6-1.1-25,16.4c0,0-4.5,7.8,0,12.3l3-1.9c0,0,8.6,5.6,10.1,6c0,0,1.9,7.5,5.6,3c0,0,24.2,7.5,30.2-2.6
	c0,0,0.4-5.6,4.5-5.2c0,0,4.6-0.4,4.8-14.9c0-1.9,7.1-19,7.1-19c4.5-7.8,8.2-27.6,8.2-27.6s6.7,1.5,4.5-7.8l0.4-13
	c0,0,12.3,41.7,13.8,49.9c0,0,1.9,22-1.5,27.9c0,0-6.3,11.9-5.2,16c0,0-1.8,8.1-5,8.2c0,0-30.2-1.2-27.4,17.5c0,0-4.9,8.3,0,13.1
	l3.3-2c0,0,9.4,6,11,6.4c0,0,2,7.9,6.1,3.2c0,0,26.6,7.9,33.1-2.8c0,0,0.4-6,4.9-5.6c0,0,5.3-0.4,5.3-15.9c0,0,3.4-11.5,4.6-15.9
	c0,0,10.9-21.8,10.5-32.6c0,0,8.6,1.5,5.6-13c0,0-12.3-67.1-11.9-77.1c0,0,1.1-58.5-3.7-68.9c0,0-1.1-9.7,7.8-6
	c0,0,100.6-13.7,124.4-19.7c0,0,14.2-3.4,22.4,0.7l-0.7-3.4l4.1,3l0.7-3c0,0,4.1,4.1,3.4,5.2c0,0,10.1-7.8,19.4-8.9l-4.8,4.5
	c0,0,33.5-10.8,38.7-7.8c0,0-2.6,19.4,20.9,22c0,0,6.7-0.4,16.8-5.6l32-20.5c0,0,7.5-6,10.4,4.1c7.1,24.2,22.4,40.2,22.4,40.2
	c5.6,13.8,54,61.8,54,61.8c17.9,23.1,4.2,59.2,4.2,59.2c-3.8,13.1-17.2,14.2-17.2,14.2c-9.4,1.5-13.4,7.4-13.4,7.4l-4.5,8.9
	c-3.4,7.1,3.4,6.7,3.4,6.7c0.4,7.1,26.1,8.2,26.1,8.2c-0.7,2.2,13,0,13,0c16-4.1,14.4-25.3,14.4-25.3c1.9-2.2,4.1-15.6,4.1-15.6
	s12.3-30.2,11.9-33.5l3.8-13.1c1.5,6,12.9,14.6,12.9,14.6c8.9,6.4,21.6,21.6,21.6,21.6c10.8,11.9,13.8,30.5,13.8,30.5l2.5,43.2
	c-1,13-10.7,14.2-10.7,14.2c-10.4,4.8-13.4,16-13.4,16l-4.5,8.9c-3.4,7.1,3.4,6.7,3.4,6.7c0.4,7.1,26.1,8.2,26.1,8.2
	c-0.7,2.2,13,0,13,0c16-4.1,12.3-25.3,12.3-25.3c1.9-2.2,2.2-11.5,2.2-11.5c-2.2-7.8,3-79.7,3-79.7c5.6-38.7-8.2-42.5-8.2-42.5
	c-21.2-15.6-25.7-37.3-25.7-37.3c-6.3-52.5-14.9-66.7-14.9-66.7c-8.2-16.4-5.3-39.9-5.3-39.9c3.7-40.6-6.7-60.4-6.7-60.4
	c-1.1-16.8-26.1-48.1-26.1-48.1c5.6,1.9,19-6,19-6l-2.2-2.2l4.1-1.5c-3.7-0.4-3-8.9-3-8.9c-4.8-24.6-25-21.2-25-21.2l-30.9,5.2
	c-11.2-11.2-67.4-26.8-67.4-26.8c-52.2-24.2-134.5-25.7-134.5-25.7c-36.5,3-64.1-6.7-64.1-6.7c-21.2-9.3-57.7-16-57.7-16
	c-7.5-5.6-25.3-4.4-25.3-4.4c-13.8,2.2-22.7-7.4-22.7-7.4l2.7-2.7C537.2,221,530.2,210.9,530.2,210.9z M359.1,340.5
	c0.6,2.2,1.1,5.3,1.1,9.3c0,6.3-1.2,10.4-2.2,12.4c-0.2,0-0.4-0.1-0.7-0.1c-0.3,0-0.7,0-1,0.1c-1-1.9-2.2-6.1-2.2-12.4
	c0-4.4,0.6-7.8,1.3-10C356.6,340.1,357.9,340.4,359.1,340.5z M362.3,336.3c-1.2-2.7-2.9-4.4-5.1-4.4c-1.6,0-2.9,0.9-3.9,2.3
	c-5.3-2.9-8.9-8.5-8.9-14.9c0-6.4,3.6-12,9-14.9c0.3,0.9,0.7,1.9,1.2,2.8c0,0,12.3,15.6,13,19.4l6.3,0.7c0,0,0.3,1.1,0.9,2.9
	C371.8,333.8,367.3,336.1,362.3,336.3z"/>
</svg>
