<?xml version="1.0" encoding="utf-8"?>
<!-- Generator: Adobe Illustrator 18.0.0, SVG Export Plug-In . SVG Version: 6.00 Build 0)  -->
<!DOCTYPE svg PUBLIC "-//W3C//DTD SVG 1.1//EN" "http://www.w3.org/Graphics/SVG/1.1/DTD/svg11.dtd">
<svg version="1.1" id="Слой_2" xmlns="http://www.w3.org/2000/svg" xmlns:xlink="http://www.w3.org/1999/xlink" x="0px" y="0px"
	 viewBox="0 111 1200 694" enable-background="new 0 111 1200 694" xml:space="preserve">
<path fill="#000000"    d="M296.8,467.5c-1.3-1-2.2-2.5-3.8-3.1
	c-1.5-0.5-4,2.3-4,2.3s-4.4-9.8-7.4-11.1c-0.3,0.7-0.8,1.1-1.1,1.9c-6.1-6.9-6.5-16.2-8.2-24.6c-0.4,1.5-0.8,2.6-1,4.3
	c-2.4-2.9-2.8-9.5-4.2-13.1c-1.5-3.8-3.9-7.4-5.5-11.2c-3-7.1-21-31.1-26.5-35.3c-3.1-2.3-15.7-10.9-20-12.7
	c-3.5-1.5-2.1-2.1-6.1-0.8c-2.2,0.8-4.5,2.7-6.8,3.1c-6.5,1.2-10.8-0.2-16.8,3c-4.8,2.6-9.6,6.7-15.2,8.4c-6,1.8-13,0.6-19.1,0
	c-10.8-1.1-22.9-5.4-31.8-12.4c-3.6-2.8-2.8-2.7-7.8-2.3c-2.8,0.2-19,3.6-45,1c-5.8-0.6-11.3,1-16.9,0.1c-10.3-1.6-16-9.6-21.4-18.2
	c-6.3-10.1-5.9-22-5.2-24.6c0.3-1.1,3.2-4.5,3.2-4.5l-1.7-3.8c0,0-4-1.4-5.4-2.8c-1.5-1.5-3-3.2-4.2-5c-2.9-4.3-5.4-9.6-7.1-14.3
	l-0.7-3C7,276.5,5.4,268.6,5,256.3c-0.2-6.1,2.9-9.3,1.5-21.1c-0.8-6.6-1-10.5,3.8-15.6c7.5-7.9,22.2-2.4,25.9-12.2
	c2.2-6-0.9-10.2-0.9-16.2c0-5.7,3-10.8,7.4-14.7c4.7-4.1,9-9.4,13.9-13.7c2.3-2,28-28,35.3-30.9c11.5-4.7,23.7-4,36.4-4
	c11.8,0,30.1,0.4,30.1,0.4s12.3-7.6,16.4-8c5.4-0.6,7.2,1.6,11.4,3.8c4.1,2.1,9,1.1,13.8,1.5c4.1,0.3,8.8,1.3,12.7,2.5
	c8.2,2.4,12.6,10.6,20.8,13.5c7.4,2.7,22,0.2,15.3,12c4.6,2.6,12.1,2,17.5,2.4c4.9,0.4,75.1,19.7,80,22.1c2,1,6.1,4.5,6.1,4.5
	s20.7-1.9,30.4,1.5c9.3,3.2,16.9,6,26.7,7.4c9.4,1.4,33.9,11.8,33.9,11.8s12.9-3.6,22.5-3.8c10.4-0.2,20,3.5,29.7,7.6
	c0,0,37,5.6,43.4,6.1c6.8,0.6,63.2-6.6,76.2-7.7c13.2-1.1,103.2-7.6,116.2-7.6c30.3,0,104.9,1.5,111.7,1.5c6.4,0,40.9,6.3,52.4,8.4
	c11.6,2.1,24.1,4.5,35.1,8.5c5.5,2,49.1,33.5,56.2,41.2c7.8,8.5,13.3,15.3,17.7,25.8c4.3,10.1,7.6,23.4,8.4,34.2
	c0.9,11.9,14.7,81.3,19.8,89.9c0.8,1.4,11.3,11.9,13.5,14.7c3.6,4.5,5.8,9.2,8.4,14.3c5.9,11.4,12.5,21.9,17.9,33.5
	c4.7,10,23.2,50.8,30.3,60c14.2,18.4,47.8,24.3,54.9,48c3.6,12,7.4,61,10.2,73.4c1.3,5.7,11.4,26.1,14.3,31
	c2.6,4.3,2.7,10.9,3.4,15.6c0.9,6,3.3,10,4.9,15.8c1.5,5.5,3.9,9.4,4.4,15.2c0.6,6.7-1,12.7-5,16.8c-3.2,3.3-7.8,6.6-12,9
	c-1.8,1-5.5,1.8-7.5,1.7c-1.5,0-4.2-2.8-4.2-2.8s-2.3,2.5-3.4,2.7c-5.9,1.4-14.4,4.1-20.4,3.1c-4.3-0.7-10.4-2.6-11.8-8.3
	c-5.5,1.6-11.2,2.6-15.3-3.1c-3.7-5.2-4-10.8-1.9-16.6c3.9-10.7,7.7-20.9,18.8-26.3c0.1-10.1-4.3-18.9-5.2-24.2
	c-3.8-22.9-13.8-43.7-30.3-61.1c-9-9.5-18.7-17.8-29.1-25.9c-10.1-7.8-28.5-17.1-31.5-17.7c-2.7,5-6.7,15.3-7.6,21
	c-0.9,5.7-1.9,11.2-2.9,16.8c-1.9,11.6-1.7,24.4-4.5,35.8c-1.3,5.5-3.8,10.6-5.4,16c-0.9,2.9-2.3,4.9-2.3,8.3c0,3,1.1,6.2,1.4,9.1
	c0.5,6,1.3,12.8-3.6,16.8c-5.2,4.2-11.3-0.1-17.5,1.5c-4.9,1.3-7.8,16-33.7,9.2c-2.9-0.8-11.8-8.6-11.8-8.6s-8.4,2.6-13.7-1.5
	c-4.8-3.8-6.5-9-5.6-15.1c1.1-6.7,4.5-8.7,10.5-10.8c5.5-1.9,9.4-6,14.7-8.2c5.5-2.3,9.8-3.4,15.8-3.9c0.2-3.5,1.1-7.1,1.6-10.6
	c1.8-12.3,2.3-24.5,2.3-37.3c0-11-5.6-21.6-12.2-29.7c-21.9-27.2-48.2-49.8-53.4-54.9c-16.9-16.9-40.1-28-55-47
	c-6.5-8.3-14.5-17.7-18.1-27.6c-1.8-5.1-3.8-9.9-7-14.5c-1.6-2.3-3.1-4.9-5.3-6.7c-1.9-1.5-4.7-3.6-4.4-3.2l-4.4-2.9
	c-4.4-0.9-14.5,1.9-18.5,2.9c-6.1,1.5-11.6,2.4-17.5,4.8c-12,4.8-46.7,34.7-95.3,56c-20.6,9.1-44.6,18.9-62.4,33.9
	c-4.3,3.7-10,10.7-15.1,13.2c-5.7,2.8-39.8,9.2-51.4,11c-12.3,2-24.8,1.3-37.8,2.4c-0.5,5.3-2.9,10.4-3.9,15.9
	c-1,5.3-2.5,10.6-2.9,16.2c-0.9,12.3-0.2,24.5-0.2,37.2c0,12.3-3.8,22.8-3.8,35c0,12.8,0,24.9,0,37.3c0,5.8-2.4,13.2-0.6,18.9
	c1.6,5.2,6.4,8.4,5.2,14.6c-2.7,14.3-20.6,1.7-27.7,12.9c-6,9.5-9.7,20.4-13.3,30.5c-1.9,5.4-2.1,11.2-4.6,16.2
	c-2.7,5.4-7,6.9-12.4,8.6c-6.3,1.9-10.1-0.6-16.6-1.3c-5-0.5-10.1,1.6-15.4,3c-5.4,1.5-33.9,4.6-30.6-8.1
	c-5.1-2.6-10.1-0.8-14.5-5.3c-3.8-3.9-5.4-10.7-4.4-16.2c1.8-9.7,13.8-12.1,21-17.3c6.7-4.8,9.5-6,16.4-5.5c2.9,0.2,5.7,0.9,8.4,0.7
	c4.5-0.3,6.5-0.5,8.6-4.2c2.5-4.5,4.9-9.5,7.6-14.1c3-5.3,8.7-10.5,10.9-16.2c2-5.3-0.2-12-1.1-17.4c-0.9-5.7-1.8-11.4-2.3-17.5
	c-0.9-12-2.6-24.7-4.6-36.6c-1-6.1-0.9-12.2-1.5-18.3c-0.6-6.3-3.5-12.1-4.6-18.3c-2.3-12.1-5.5-23.2-7.6-35.1
	c-1.6-8.8-3.9-17.4-6-25.9c-0.8-3.3-2.4-8.6-4.6-11.4c-1.8-2.2-9.7-4.9-12.8-4.5c-3.1,11.1-2,23.9-2,35.9c0,13.3-7.4,85.5-3.6,96.8
	c0.7,2.2,5.8,10.7,6.3,13.5c0.9,5.2,1.1,11.8-5.3,13.7c-2.6,0.8-6.5-1-8.6-0.6c-3.4,0.6-3.7,1.7-5.2,5.2c-4.2,10.2-8,19.7-12.4,29.5
	c-2.3,5.1-4.6,10.1-6.5,15.4c-2,5.7-2.8,10.6-8.4,13.9c-4.9,2.9-11.9,3.6-17.7,3.6c-6.2,0-23.8,10.5-39.8-4.5
	c-4.7,4.1-9.5,2.2-15.8,1.4c-17.7-2.1-16.1-15.6-12-21.4c3.5-4.9,6.7-6.9,11.3-10.5c3.8-3.1,6.8-7,10.8-9.9
	c4.8-3.5,9.6-3.8,15.8-3.3c7.1,0.6,11.6,1.9,16.2-5.1c3.3-5,4.7-11.3,6.8-16.9c2-5.4,4.5-10.5,6.5-16c2.5-7.1,3.3-10,1.7-17.5
	c-2.4-11.7-3.3-23.7-5.4-35.8c-2-11.5-1.6-25.4-1.5-37.3c0.1-11.5-4.8-21.5-7.5-32.2c-2.5-10.1-5.6-19.2-6.4-29.5
	c-0.4-5.4-0.6-11.1-0.6-16.8c0-4.1-1.5-14,0.8-16.8C315.7,481.4,301.8,471.5,296.8,467.5z"/>
</svg>
