<?xml version="1.0" encoding="utf-8"?>
<!-- Generator: Adobe Illustrator 18.0.0, SVG Export Plug-In . SVG Version: 6.00 Build 0)  -->
<!DOCTYPE svg PUBLIC "-//W3C//DTD SVG 1.1//EN" "http://www.w3.org/Graphics/SVG/1.1/DTD/svg11.dtd">
<svg version="1.1" id="Слой_2" xmlns="http://www.w3.org/2000/svg" xmlns:xlink="http://www.w3.org/1999/xlink" x="0px" y="0px"
	 viewBox="0 175 1590 839" enable-background="new 0 175 1590 839" xml:space="preserve">
<path fill="#000000"    d="M1584.2,573c-9.7,10.2-68.1,74.1-149.9,71
	c-17.5-0.7-34.7-6.1-51.8-11.1c-19.2-5.7-35.6-12.3-53.8-20.9c-16-7.7-30.5-15.8-47.6-20.7c-8.1-2.4-24.8-8.2-32.5-11.9
	c-1.3-0.7-1.6-0.5-1.5-0.3c-11.4-5.7-24.8-10.2-40.4-13.4c-17.9-3.6-34.4-7.2-53.1-8.3c-43.3-2.9-87.8-4.4-131.2-1.3
	c-15.8,1.2-139.8-1.9-157.5-1.9c-17.1,0-123.6-10.3-159.4-16.6c-19.5-3.3-93.4-23.1-111.8-29.3c-42.4-14.2-63.6-33.9-72.5-37
	c-7.4-2.7-18.2-4.6-23.6-10.3c-4.9-5-34.2-73-36.4-79.6c-10.7-32.1-79.2-181.1-122.2-195.2c-14.6-4.8-24.9-6.6-41.5-6.6
	c-36.7-0.1-69.3,11.3-102.6,27.7c-7,3.4-13.2,8.2-19.9,12.5c-15.8,10.1-15.2,29.8-26.2,35.9c-7,4-134.1,70.8-139.9,81.5
	c-6.9,12.5,8.1,28.2,20.8,33.1c16.6,6.4,20.4,21.3,33.9,22c10.3,0.5,10.9,6.8,25.7,4.9c11.9-1.5,115.5-5.7,132.8-4.4
	c11.9,0.9,35.1,0,41.5,13.4c2.6,5.8,3.4,15.5,3.8,22c0.7,8.3,1.3,16,1.3,24.6c0,17.8,4.8,34.2,9.3,50.7
	c4.6,17.2,13.6,34.1,15.4,51.8c3.3,34.7-9.1,94.7,3,136.6c32.3,110.8,132.6,162,147.2,168.9c6.9,3.3,13.9,6.4,20.7,9.8
	c8.3,4.2,11.5,6,11.5,6s-0.8,41.7-9.3,56.4c-3.2,5.6-5.4,13.6-10.3,17.9c-6.5,5.7-13.9,1.9-20.1-0.1c-7.7-2.3-12.1,2.5-18.4,7
	c-6.2,4.4-12.6,5.6-18.8,10.1c-3.3,2.4-6,5.3-7.8,8.5c-3.3,0.1-6.4,0.7-10.5,3.2c-3.4,2.1-14.7,10.9-8.6,14.3
	c3.6-4.6,11-3.8,17.2-3.3c1.9,4,6.4,7,14,7.7c5.6,0.4,7.2-1.7,11.7-2.9c5.6-1.5,4.5,0,8.3,3.7c6.8,6.6,21.7,4,21.5,3.3
	c0,0,18.8,0.8,21.7,1.1c4.2,0.4,8.9-0.1,12.6-0.8c8.5-1.6,11.9-3,15.6-9.3c6.5,0.3,18.7-1.3,22.1-0.8c4.9,0.8,6.9-1.1,10.6-3.8
	c5.7-4.2,13.5-6.9,15.6-13.8c2.5-8.1,4.5-15.6,4.5-24.4c0-8.2,0.1-17,3-24.4c1.3-3.4,3.8-6.1,4.8-9.8c0.9-4,0.9-8.3,1.6-12.5
	c0.4-2.1,0.7-4.2,0.9-6.4c11.4,1.3,26.4,1.9,44,0.1c66.5-6.5,174.9-43.2,198.8-53.1c34.8-14.6,71.8-24,106.7-34.8
	c39.4-12.3,80.6-11.4,122.3-11.4c27.3,0,53.8,1.9,80.3,4.4c11.1,1.1,17.6,6.1,25.8,13.5c5.6,5,17.8,13.1,23.1,17.4
	c7.9,6.4,28.9,6.1,40.1,6.2c8.2,0.1,49.2,4.9,49.2,4.9s2.9,20.8,2.9,28.2c0,16.8-4.8,33.9-8.2,49.7c-0.8,3.3-1.5,6.6-4.4,9
	c-4.8,4-5.4,0.3-10.1,0.3c-5.4,0-13.6,5.7-17.6,9.3c-2.4,2.3-5.4,6-6.2,9.3c-0.5,2,0.5,4.4,0.1,6.2c-0.4,1.6-2.3,3.6-2.4,4.9
	c0,0.1,0,0.1,0,0.3c-5.6,4-11.7,10.2-11.9,13.2c12.7-0.9,12.7-0.9,19.2-3.4c2.4,0.9,5,1.3,7.6,1.6c4.6,0.4,7.3-1.1,11.4-1.7
	c4.8-0.8,4.8-0.4,9.3,1.7c7.4,3.7,15.6,4,23.8,1.9c7-1.7,14.8-3.7,19.3-9.4c4.8-6,5.8-13,6.5-20.4c0.8-8.9,1.3-17.2,2.9-25.8
	c1.5-7.8,10.6-62,15.8-74.5l7.3,1.1c0-0.1,14.3-2.9,18.7-2.1c5.3,0.9,15.2,6.1,15.2,11.7c0.3,20.5,18,71.4,12.6,83.1
	c-3.3,7.3-18.7,19.2-25.6,23.6c-6.6,4.2-6.5,9.8-8.7,17.2c-0.8,0-1.9,0.4-2.8,0.3c-0.1,2-0.3,3.7-0.3,5.4c-2.5,0.8-5,1.9-7.4,3.4
	c-8.1,5.6-5.2,8.3,4.4,7.6c2.3-0.1,4.4-0.4,6.6-0.7c1.2,1.1,2.6,2,4.6,2.8c3.7,1.3,6.8,1.6,10.5,1.1c1.5-0.3,3.4-2.5,5.2-2.3
	c0.8,0.1,1.7,1.1,2.7,2c-2.1,2.5-4.1,5.3-5.7,8.2c3.4,0.9,9.5-1.2,15-4.1c12.7,2.7,31.1,0.4,40-5.7c1.7-1.2,3.2-1.1,4.2-3.3
	c0.8-1.6-0.3-5.2-0.1-5.4c1.7-3.7,6.2-5.3,9.4-7.8c9-7,1.6-9.3-2.4-16.8c-3.4-6.6-3-17.2-3-24.6c-0.1-8.7-6.2-51.9,2.3-77.6
	c2.5-7.6,6.5-14.3,5.7-23.1c-0.7-8.1,0.7-16.8,1.3-24.8c0.7-8.3-0.3-14.7-7.6-19.5c-5.6-3.7-12.9-4.4-19.2-6.8
	c-6.8-2.5-23.1,3.3-38.3-21.7c-8.5-13.9-17.8-26.9-23.8-42.1c-6-15.1-7.9-32.5-10.7-48.6c-0.8-5.2-2.7-15.6-7.4-28.2
	c33.5,10.7,90.5,26.8,129.6,23.1c87.7-8.2,123.9-57.4,129.5-63.6C1577.8,595.2,1585.8,588.1,1584.2,573z"/>
</svg>
