<?xml version="1.0" encoding="utf-8"?>
<!-- Generator: Adobe Illustrator 18.0.0, SVG Export Plug-In . SVG Version: 6.00 Build 0)  -->
<!DOCTYPE svg PUBLIC "-//W3C//DTD SVG 1.1//EN" "http://www.w3.org/Graphics/SVG/1.1/DTD/svg11.dtd">
<svg version="1.1" id="Слой_1" xmlns="http://www.w3.org/2000/svg" xmlns:xlink="http://www.w3.org/1999/xlink" x="0px" y="0px"
	 viewBox="0 0 898.5 768" enable-background="new 0 0 898.5 768" xml:space="preserve">
<path fill="#000000"      d="
	M892.5,741.2c-10.3-14.9-29.3-113.1-29.3-113.1c-3.8-20.6-33-29.7-33-29.7c-52.4-39-57.3-109.1-57.3-109.1
	c-8.4-43.9-37.5-93.1-37.5-93.1c-1.3-5.8,7.8-26.5,7.8-26.5c7.8-25.8-21-18.4-21-18.4c-15.1,6.2-37.8-2.2-37.8-2.2
	c-8.4-4.5-62.7-19.4-62.7-19.4c-1.9,0-229.3-80-229.3-80c-11-8.4-67.9-22-67.9-22l-16.2-13.6c-1.3-5.2-28.4-27.1-28.4-27.1
	c-9.7-18.1-69.1-77.5-69.1-77.5c-3.2-7.8-19.3-22.8-19.3-22.8s4.5-27.2-13.1-47.3c0,0-11.1-22.2-7.6-34.2c0,0-7-7.6-15.6,16.6
	c0,0-7,29.7-4,43.8c0,0-5.5,2.5-4,6c0,0-11.5,3.4-18.1,9.7c0,0-15.4,10.6-24.7,12.6c0,0-12.5,4.1-12.8,13.7c0,0-9,23.3-32.9,29.9
	c0,0-31.2,10-38.9,14.3c0,0-14.7,4.5-16.4,10.8c0,0-0.3,10.8,9.4,15.7c0,0,13,23.6,42.9,14.6c0,0,32.6-16.3,47.2-12
	c0,0-16.7,5.2-37.5,22.3c0,0-21.1,21.1-29,23.7c0,0-6.1,6.6,11,0c0,0,5.8-4.2,9.7-3.7l2.2,2.3c0,0,3,9.6,16.6,6.3
	c0,0,14.5-9.7,39.9-19.2c0,0,27.2-11.6,51.2,10.3c0,0,16.7,19.8,35.4,67.7c5.4,5.6,2.5,7.9,10.3,16.8c0,0,6.4,13.1,4.5,51
	c0,0-10.3,64.6,45.2,110.5c0,0,3.2,12.3,8.4,17.4c0,0,9,22,9,29.7c0,0,6.8,37.3,12.6,47.6c0,0,6.1,27.5,5.5,44.8
	c0,0,4.2,61.2,9.4,70.9c0,0,8.8,33.2-5.3,43.9c0,0-8.9,2.4-15.9,3c0,0-21.8,20.1-13.6,26.6l8.9,1.8c0,0-0.6,6.6,16.5,4.8
	c0,0,6.4,6.6,23.5-2.2c0,0,6.8-5.9,8.3-10.2c1.9,1.3,5.7,2.4,13.3,1.6c0,0,5.9,6.6,21.7-2.3c0,0,8.3-7.9,8-12.1l5.2-10.9
	c3.6-2.6,0.9-18.2,0.9-18.2c-6.1-29.1,3.7-37,3.7-37c10.1,5.2,4-14.3,4-14.3c-3-5.8-7-26-7-26c-6.4-31.9-3-100.3-1-130.5
	c16.5-2.2,31.4-5.7,31.4-5.7c12.3-5.2,155-22.1,155-22.1c41.4-4.5,58.2,45.9,58.2,45.9c19.4,47.8,57.1,78.7,57.1,78.7
	c63.3,39.4,43.8,87.6,43.8,87.6s-4.5,31.6-24.6,34.6c0,0-19.5,0-23.6,5.3c0,0-13,14.2-4.7,16.5c0,0-0.6,5.9,14.8,5.3
	c0,0,7.1,7.1,26,0.6c0,0,18.2-7.1,27.6-28.3c0,0,14.3-29.2,16.1-33.3c0,0-0.7-12.1,1.5-20.7c9.9-39.5,9.7-50.1,9.7-50.1l21.3,11
	c52.3,25.8,51.3,53,51.3,53c22,43.3,8.6,67.2,8.6,67.2c-8.4,3.2-7.1,16.8-7.1,16.8c1.9,10.3,13.4,5.2,13.4,5.2
	c1.9,5.8,16-0.3,16-0.3c2.6,5.8,17.9,0,17.9,0C899.2,762.4,892.5,741.2,892.5,741.2z M346.9,712c0,0-5.1,1.5-10.5,2.4
	c-5.8-27.6,4.4-35.2,4.4-35.2c11,5.2,4.4-14.2,4.4-14.2c-3.2-5.8-7.6-25.8-7.6-25.8c-5-22.9-4.5-64.8-3-97.7
	c1.2,4.2,2.4,7.8,3.6,10.1c0,0,5.6,27.7,5.1,45c0,0,3.9,61.6,8.7,71.3C351.9,667.9,360,701.4,346.9,712z"/>
</svg>
