<?xml version="1.0" encoding="utf-8"?>
<!-- Generator: Adobe Illustrator 18.0.0, SVG Export Plug-In . SVG Version: 6.00 Build 0)  -->
<!DOCTYPE svg PUBLIC "-//W3C//DTD SVG 1.1//EN" "http://www.w3.org/Graphics/SVG/1.1/DTD/svg11.dtd">
<svg version="1.1" id="Слой_1" xmlns="http://www.w3.org/2000/svg" xmlns:xlink="http://www.w3.org/1999/xlink" x="0px" y="0px"
	 viewBox="160 5.3 769 768" enable-background="new 160 5.3 769 768" xml:space="preserve">
<path fill="#000000"      d="
	M512.6,503.1c0,0,1.5,4.1-3,7.7c0,0-4.7,6.8,1.6,23c0,0,8.2,33,8.2,48.3c0,0,3.6,53.8,12.6,78.2l3,11.2c6.1,22.9,7.7,34.8,7.7,34.8
	c3.6-2.7,4.2-5.1,4.2-5.1c4.1,11.8,1,14.9,1,14.9c-2.3,3.4,8.8-3.2,8.8-3.2s-4.1,16.7,1.5,20.9l4-2.7c0,0,3.6,15.3,10.4,19.6
	l0.2-2.4c0,0,0.1,19.1,15,20.5c0,0,3.2,2.9,13.4,1.3c0,0,8.8,7.6,9.6-1.1c0,0,22.8,7.4,37.1-0.5c0,0,9.8,7.2,9,0.4
	c0,0,4.1-0.6,7.9-3.9c0,0,6,5.3,7.4,1.2c0,0-0.3-17.7-15.7-24.3c0,0-10.4-10.7-27.2-13.9L617,716.6c-12.2-9-18.5-42.2-18.5-42.2
	c0-11.3-5.9-55.6-5.9-55.6c5.4-19.4,2-66,2-66s15.6-17.2,23.7-31.2c0,0,16.3-2.7,28-14.9c0,0,13.6-2.3,19-7.7c0,0,4.8,5.1,18.4-5.6
	c0,0-3.8,9.7-6.3,12.2c0,0-2.9,3.8-1.4,12.1c0,0,0,6.1-3.9,12.4h3.6c0,0-8,30.9-3.6,46.5c0,0,4.9,24.3,0,30.1l3.2-1.6
	c0,0-0.1,4-5.3,7.4l6.3,0.4c0,0-1.3,2.9-4.2,6h4.6c0,0-6.6,16.7,7.1,31.8c0,0,1.9,8.6,0,12c-2,3.4,4.4-3.5,4.4-3.5
	s-2.4,16.1,3.4,19.5l3.3-2.9c0,0-0.5,14.6,5.7,18v-2.3c0,0,2.3,17.9,16.9,17.9c0,0,3.6,2.4,13.4,0c0,0,9.4,6.3,9.4-2
	c0,0,23,4.9,36.1-3.9c0,0,10.3,5.9,8.8-0.5c0,0,3.9-1,7.3-4.4c0,0,6.3,4.4,7.3,0.5c0,0-1.9-16.6-17.5-21.5c0,0-15.1-8.8-31.7-10.2
	c0,0-16.6-7.3-23.9-26.8c0,0-10.7-38,1.5-68.7c0,0,30.2-65.3,23.9-92.2c0,0,4.9-26.3,18.5-42.9c0,0,25.4-32.2,6.8-66.8l-0.6-9.7
	c1.8-11.7-5.9-24.8-5.9-24.8l5,4.5c-4.5-6.3,1.8-26.7,1.8-26.7c0,9.5,5,9,5,9c-4.1-5,0.9-15.4,0.9-15.4c2.3,4.1,3.6,3.6,3.6,3.6
	c-3.6-3.6,0-11.7,0-11.7c30.7,5,68.7-24.8,68.7-24.8c15.4,1.4,39.8-14.9,39.8-14.9c23.5-1.8,25.3-26.7,25.3-26.7
	c4.1-22.1-11.3-21.2-11.3-21.2l-0.9-5.9c5-1.8,13.6-9.5,13.6-9.5c13.6-14.5,2.3-41.1,2.3-41.1c-8.1-23.5-22.6-21.7-22.6-21.7
	c2.7,0,3.6-3.6,3.6-3.6c-9.9-21.7-20.3-14-20.3-14c-1.4-5.4-9-7.2-9-7.2c0-4.5-6.3-19-6.3-19c3.2-14.9-30.7-15.8-30.7-15.8
	c-22.6-15.8-61.4-9-61.4-9c-12.2,1.8-16.7-3.2-16.7-3.2c-5.4,0-15.8-27.6-15.8-27.6c-14.5-26.2-19.9-14.9-19.9-14.9
	c2.7,6.2,0,23.5,0,23.5c-4.5,14.9-5.9,33-5.9,33c-2.7-5-14-14-14-14c-0.9-6.3-23-28-23-28c-8.1-12.2-17.2-14.5-17.2-14.5
	s-15.8-4.1-6.3,35.2c0,0,4.1,23.5,0,33c0,0-4.1,19,3.2,31.2c0,0-4.5,8.6,1.8,14.9c0,0-6.3,15.4,1.4,23.5c0,0-19.9,0.5-29.4,10.4
	c0,0,4.1-2.3,9.5,0c0,0-23,11.3-31.6,30.7l6.3-4.1l-9.5,11.7c0,0-9.5,6.8-21.2,4.1l5.2,5c0,0-37.7-0.9-52.6,9.9
	c0,0-18.1,14.9-70-0.5c0,0-98.9-34.8-151.3-14.9c0,0-22.6,6.8-33.9,9.9c0,0-25.6-2.6-26.5-10.3c0,0-5.8,9-0.8,12.7
	c0,0-8.2-1.3-12.3-8.5c0,0-4.8,4.6,0.7,9.7c0,0,0,0-8.1-4.1c0,0,0,9.5,3.6,11.7c0,0-5,2.7-6.8,1.4c0,0-1.8,15.8,7.7,18.1
	c0,0-43,26.7-40.3,66c0,0,1.5,51-0.1,58.7c0,0-15.6,70-16,93.5c0,0,0.5,50.1-9,56.5c0,0-14.5,5.4-4.5,39.8c0,0-3.6,25.8,0.5,33.9
	c0,0,2.1,14.9-3.9,23l5.7-1.8c0,0-5.6,4.1-5.7,19l3.5-4.5c0,0-14,28.9-5.4,32.5c0,0-11.7,20.8,14.9,23c0,0,9,11.7,9-0.9
	c0,0,11.7,9.9,27.6-0.5c0,0,6.3,7.7,6.8-1.4c0,0,6.8,0.5,9.9-3.6c0,0,6.8,4.5,6.3-4.5c0,0,5-12.6-9.9-25.3c0,0-9.9-9-15.4-12.7
	c0,0-9.9-44.7,2.7-71.4c0,0,48.8-70.9,70.5-131.5c0,0,9.9-9.9,16.3-8.1c0,0,3.6,19.9,9.5,29.4c0,0,3.6,12.6-11.3,23
	c0,0-13.1,5.9-3.6,28.5c0,0,3.2,20.8,1.8,32.5c0,0-1.8,23,4.5,30.3c0,0-3.2,39.3,10.4,45.6c0,0-2.3,19,29.8,14.9c0,0,8.6,3.2,5-2.3
	c0,0,16.3,1.8,23-3.2c0,0,13.6,5.9,9-2.7c0,0,10.4,3.2,6.3-3.6c0,0,3.6-6.3-7.2-16.7c0,0-9-9.5-16.3-9.9c0,0-13.1-8.1-18.5-21.2
	c0,0-4.1-9-5.4-15.8c0,0-1.8-34.3,9-47.9c0,0,44.1-29.6,47.4-57.1c0,0,25.8,7.6,52.9,22.1C453.9,475.3,499.9,502.2,512.6,503.1z"/>
</svg>
