<?xml version="1.0" encoding="utf-8"?>
<!-- Generator: Adobe Illustrator 18.0.0, SVG Export Plug-In . SVG Version: 6.00 Build 0)  -->
<!DOCTYPE svg PUBLIC "-//W3C//DTD SVG 1.1//EN" "http://www.w3.org/Graphics/SVG/1.1/DTD/svg11.dtd">
<svg version="1.1" id="Слой_2" xmlns="http://www.w3.org/2000/svg" xmlns:xlink="http://www.w3.org/1999/xlink" x="0px" y="0px"
	 viewBox="337 0 1374 1200" enable-background="new 337 0 1374 1200" xml:space="preserve">
<path fill="#000000"    d="M1700.2,1139.3c2.3-8.8,6.4-15.5,2.3-24.6
	c-3.4-7.6-8.2-12.4-8.9-21.2c-1.6-18.6-0.3-36.8-3.2-54.6c-3-17.2-0.6-35.4-2.3-53.5c-0.8-9.2-3.7-17.9-2.3-26.7
	c1-5.9,2.3-19.6,5.5-23.4c0,0-4.5-11-6.4-13.7c-2.4-3.1-4.9-5.1-7.8-7.8c-4.2-4.1-30.5-34.4-39.7-46.3
	c-7.9-10.2-13.1-22.2-19.5-33.7c-6.6-12.1-25-50-28.1-56.8c-3.5-7.6-5.4-15.5-7.9-23.3c-2.1-6.8-6.9-20.9-6.9-20.9
	s7.5-59.3,10.3-76.1c3-18.2,11.9-119.4-4.4-160.7c-6.1-15.4-10.7-30.4-17.9-45.6c-7.1-15.1-44-59.2-108.4-93.5
	c-15.8-8.5-74.1-29.4-153.6-33.7c-18.8-1-102.4,6.5-138.2,4.5c-7.2-0.4-115.1,1.8-152.8-1.1c-18.2-1.4-33.3-13-51.4-16.7
	c-17.9-3.7-83.9-23.7-99.2-31.6c-14.5-7.3-29.9-15-42.5-26.3c-5.6-5.1-28.5-28.9-52.1-76.1c-14.7-29.8-71-108.3-83.9-119.6
	c-11.6-10.3-22.9-19.5-35.4-28.2C618.5,9.5,585.8,2.8,552.7,2.8c-18.2,0-33.2,6.1-50.1,10.3c-7.9,2-16.1,4.8-23.4,7.5
	c-10.6,3.8-8.6,16.1-12.6,24.7c-5.5,12.1-26.7,15.8-39.8,16c-9.6,0.1-44,0.4-52.4,1.7c-15.5,2.1-38.3,2.4-31.3,24.6
	c1.4,4.4,3.5,7.1,3.4,12.1c-0.1,4.7-1.4,8.6-1.1,13.4c0.6,8.8,3.5,17.4,8.6,24.6c15,21.2,38.5,46,64.9,49.3
	c-14.5,3.5-37.8-6.1-50,8.5c5.5,1.8,10.9,3.7,16.4,6.1c0,0.4-1.3,2.8-1.3,2.8c0.1,3.5-3.4,6.5-0.6,11.2c1.7,2.8,5.2,4,7.9,5.5
	c3,1.8,5.9,3.4,8.3,6.2c2.1,2.4,3,6.4,4.9,8.3c6.5,6.4,18.8,1.6,25.4-1.1c8.8-3.5,18.5-4.2,27.8-4.2s17.8,0.4,26.8,1.1
	c8.6,0.7,13,9.3,21.2,8.9c8-0.3,13.4-7.9,22.3-7.9c4.4,0,20.6-3,24.6-2.3l3.4,1.1c0.1,15.4,9.3,28.7,17.5,41.5
	c9.2,14.3,14,29.2,20.3,44.3c6.1,14.5,29.9,88.4,32.6,96.7c16.4,50.4,3.8,72.1,13.1,106.2c2.4,8.8,7.9,69.3,26.5,102.6
	c4.8,8.6,10.4,16.8,15.1,25.6c4.7,8.8,19.8,28.8,22.9,37.7c11.2,33,12.8,96.6,17.9,116.5c2,7.6,3.4,15.7,5.9,23.2
	c9.6,28.9,6.6,159,12.3,187.3c3.4,17.5-1.3,35.6-5.4,51.5c-3.8,15-7.8,33.5-15.5,46.6c-4.4,7.3-9.6,10-18.1,10
	c-8.8,0-18.8-2.3-24.3,4.8c-4.1,5.4-6.9,12.3-9.5,18.4c-1.3,3.1-2.4,6.9-5.1,9.5c-2.8,2.5-6.2,1.7-9,4.5c1.8,3.1,4.9,4.4,8.6,4.4
	c0.1,2.1-1.7,10.4,0.4,10.7c6.8,1.1,8.5,0.4,8.5,0.4s4.1,3.4,8,3.4c3.5,0,10-1.4,10-1.4s12.3,2.3,19.1,2.3c2.3,0,8.9-2.4,8.9-2.4
	s3.7,2.8,7.5,2.3c-8,10.3,7.2,15.5,15,15.7c10.3,0.3,22.7,0.3,32.2-3.2c3.1,7.6,29.5,5.1,38.4,3.4c3.8-0.7,8.5-1.6,9.9-5.8
	c0.7-2.3-2-3.7-1.3-5.6c0.7-1.8,2.7-1.6,3.8-3.1c4.8-6.6,6.9-9.7,7.5-18.1c0.3-3.8-1.1-7.9-1.1-11.2c0-3.1,10-45.3,11.3-52.4
	c1-5.9,0.8-15.8,5.9-19.9c6.8,1.8,11,5.6,14.4-3.2c2.3-5.9,1.8-31.6,0.6-39c-1.1-6.2-0.8-13.6-0.8-20.3c0-30.2,1.1-60.1,1.1-90.4
	c0-18.5,4.2-35.2,4.5-53.5c0.4-39,10.7-86.4,15.4-102.8c1.1-4.2,0.4-8,2.5-12c1.6-3.1,4.4-5.9,6.4-8.9c4.5-6.8,8.8-12.8,5.9-21
	c20.8-4.5,42.8-10,63.4-15.5c22.4-6.1,42.1-10.6,63.5-19.5c17.2-7.2,65.1-38,73.6-41.8c8.6-3.8,63.1-17.2,81.5-21.7
	c7.9-2,15.7-4,23.4-5.4c8-1.6,52.1-15.1,58.3-12.6c2,0.8,6.6,3.8,7.3,6.1c1,3.5-1,4.9-1.1,7.9c-1.6,16.2,20.3,13.6,30.8,9.2
	c1.3,5.1,2.5,7.2,2.1,12.1c-0.6,5.1,0.1,33,1.8,42.2c13.7,73.3,90.2,140.5,113.8,175.2c9.6,14.1,42.5,41.9,52.9,77.8
	c4.8,16.4,14.1,30.6,18.2,46.9c4.2,16.8,5.6,35.7,4,53.5c-0.8,9-11.2,59.2-11.2,59.2c-5.1,4.7-19.6,5.6-25.7,6.6
	c-7.1,1.1-15.4,5.9-20.9,10.3c-2.5,2-4.9,4.9-7.2,7.2c-1.4,1.4-0.6,3.1-2.1,4.5c-1.4,1.3-3.4-0.1-5.1,1.6c-4.1,4.2-1.7,5.8-0.6,10
	c0.8,3.1,1,8,2.3,11.2c3.7,8.5,13.6,10,21.5,10.6c5.4,0.4,13.4-2,13.4-2s7.9,2.8,12.3,2.8c9.3,0,17.5-2.7,26.8-2.8
	c10.6,0,13.6,1.1,18.9-8.9c4.4-8,5.6-14.1,5.6-23.4c0-4.8-0.1-9,1.4-13.1c1.1-3.2,3.4-5.6,4.2-9.2c2.1-8.3,2.3-18.6,3.4-26.8
	c2.4-16.8,5.6-35.2,11.2-51.2c5.9-17.5,6.6-36.1,11.4-53.4c2.3-8.2,4.5-15.5,6.4-22.9c0.3,1.3,0.6,2.5,0.8,3.7
	c1.6,6.4,4,21.7,10,25.6c6.6-17.4,7.6-36.6,9.2-55.8c0.4-6.1,1.1-12.7,1.4-19.3c5.6,6.4,11.2,12.8,15.4,19.6
	c7.8,12.7,17.2,26.4,23.2,40.1c3.5,8,22.9,65.9,24.8,74.4c2,8.8,3.2,45.3,3.2,54.6c0,7.2,3.5,22-1.1,26.5
	c-5.1,4.9-14.4,4.4-20.3,8.9c-7.3,5.6-8.6,12.3-8.9,21.3c-4-0.6-6.8,1.7-9.7,3.7c-0.7,2.7,0.3,5.4,1.6,7.6
	c-5.4,4.7-0.1,13.8,4.8,16.7c6.1,3.5,12.7,1.8,18.8,0.1c1.3,9.5,29.5,3.8,34.9,0.3c0.8,6.2,12.7,6.8,17.8,6.4
	c3.4-0.3,16.4-2.5,18.6-4.8c4.7-4.7-0.6-16-1-20.9C1697.5,1153.6,1698.6,1145.6,1700.2,1139.3z M1536,879.7
	c-10.9-12.6-22-24.7-33.2-37c-10.9-12.1-20.3-27-26.8-41.2c-7.5-16.7-16.2-31.9-20.2-49.8c4,6.1,18.6,28.7,24.8,33.9
	c10.3,8.8,20.2,17.8,29.8,27.4c11.4,11.4,14.5,27.8,23.7,40.7c4.1,5.6,8,11.2,12.1,16.7c-0.8,7.6-0.6,15.4,0.1,23.3
	C1543.5,888.7,1540,884,1536,879.7z"/>
</svg>
