<?xml version="1.0" encoding="utf-8"?>
<!-- Generator: Adobe Illustrator 18.0.0, SVG Export Plug-In . SVG Version: 6.00 Build 0)  -->
<!DOCTYPE svg PUBLIC "-//W3C//DTD SVG 1.1//EN" "http://www.w3.org/Graphics/SVG/1.1/DTD/svg11.dtd">
<svg version="1.1" id="Слой_2" xmlns="http://www.w3.org/2000/svg" xmlns:xlink="http://www.w3.org/1999/xlink" x="0px" y="0px"
	 viewBox="308 0 1397 1200" enable-background="new 308 0 1397 1200" xml:space="preserve">
<path fill="#000000"    d="M1687.6,80.3c-20.5-13.7-82.9-21.7-112.8-41.6
	c-10-6.6-40.1-28.5-64.1-32.8c-13.1-2.4-28.7-1.7-42.2-1.7c-7.2,0-41.6-0.1-63.8,13.7c-9.3,5.8-21.6,14.5-27,24.4
	c-5.9,10.7-41.6,59-45.9,65.4c-7.6,11.7-108.3,155-117.2,165.2c-7.9,9-20.8,13-31.6,15.5c-12.7,3-70.6,11.9-76.9,13.3
	c-14.1,3.2-28.1,5.6-42.4,9.5c-7.2,2-12.8,5.1-20,5.6c-7.1,0.6-14.7,0.1-21-2.4c-84.3-33-296-14-313.6-12.7
	c-14.1,1.1-28.7,2.3-43.1,3.4c-86,6.9-136.2,52.5-144.1,58.9c-8.5,6.8-19.5,17.8-28.5,23.9c-94.6,64.7-64.1,144.6-59.4,155.9
	c4.9,11.9,11.4,23,17.9,34c0-0.4,2.5,3.7,2.5,3.7c0,7.9,2,15.7,2.5,23.6c9.3,121.3-20.3,168.8-24.4,180.3c-4,11-14.1,32.3-14.1,32.3
	s-23.9,13.6-34.2,20.8c-6.6,4.5-8,6.1-6.6,14.5c0.8,4.7,2.4,16.7,2.4,16.7s-22.9,28.4-28.5,34.6c-5.4,5.9-36.3,39-36.3,39
	c-3,3.5,9,63.8,10.2,76.7c1,12.8-7.2,26.8-1,38.1c3.1,5.6,9.7,30.2,10.3,36.8c1.4,14.1-0.8,28.4,0,42.1c0.4,6.2,4,11.3,3.4,17.6
	c-0.6,6.5-1.1,11.6,1.8,17.5c1.4,2.8,3.1,4.9,4,7.8c1,3.1,0.6,5.4,2.7,8.3c3.1,4.4,8.9,7.3,13.4,9.3c5.9,2.5,11.7,4,17.5,0.4
	c2.8-1.7,6.8-4.4,6.8-4.4s6.2,1,9.3,1.7c6.1,1.6,12.8,1.7,19.3,1.7c2.5,0,8.3,1,10.2-1c2.4-2.7-1-5.4-0.7-8.2c2.5,1,5.5,3.2,8.2,1.4
	c-2.5-5.2-7.8-8.8-10.3-14.1c-2.4-5.2-3.4-11.2-6.8-16c-6.6-9.6-17.2-15.7-26.8-21.7c-6.8-4.4-8.2-7.1-9.2-14.5
	c-1-7.1-5.9-48.1-5.9-62.4c0-14.5,1.1-28,5.6-41.4c1.4-4.1,19.6-43.8,19.3-44.6c-0.3,10.3-0.3,10.3,0.1,14.3
	c1.7,13.4,4.2,27.5,4.2,41.4c0,14-0.7,29.4,1.7,42.9c2.3,13,7.9,23.4,21.9,26c7.2,1.3,12.7-1,19.2-2.5c3.2-0.7,6.1-0.8,9.3,0.4
	c2.5,1,3.8,3.5,6.8,3c0.1-2.4,0.4-5.4-0.4-7.5c4.8,2.4,11.7,0.6,16.4-1c3.2-1,5.6-1.6,8.8-1.7c4.2-0.3,5.4,0.8,5.5-3.8
	c0.1-5.8-6.9-8.8-9.7-13c-3.8-5.8-2-12.4-8.5-16.9c-5.4-3.7-11.7-4.4-17.9-4.8c-6.4-0.4-14.3,1-17.8-5.8c-2.8-5.5-2.3-14.1-3.2-20.3
	c-1.1-7.2-2.5-13.6-2.5-21c0-4.8,3.8-45.5,5.8-53.9c1.1-4.7,2.1-9,3.4-13.6c1.4-4.8,10.9-29.5,14.4-37.1c3.1-7.1,8.3-13,12.8-19.3
	c15.2-21.6,35-39.7,52.9-59c9.9-10.6,19.3-20.9,30.2-30.6c8.5-7.6,15.1-18.5,24.8-24c8.9-5.1,21.3-9.9,28.7-17.6
	c1,7.3,1.3,14.8,0.7,22.4c-1.1,13-7.9,22.6-15.4,33.5c-7.2,10.4-16.5,16.1-26,23.9c-9.3,7.8-17.9,15.8-26.8,24.7
	c-4.2,4.1-8,8.9-11.9,13.3c-3.2,3.8-8.6,8.2-10.9,12.7c33.3-4.9,61.8-23.2,85.8-47.9c18.4-18.9,25.8-40.4,29.5-65.1
	c2-13.4,1.4-28.7-1-42.1c-1-5.1-2.1-9.7-4-14.4c7.1-23.3,8.2-49.7,15-73.3c21.9-76.2,45.6-93.7,52.4-98.4c9.9-6.6,22-13.8,33.5-14.7
	c105.7-7.8,170.1,81.6,353.9,132.4c36.7,10.2,124.7,4.2,124.7,4.2c-3.2,5.6-16.2,54.9-14.1,60.7c1.6,4.4,6.2,10.4,9.7,13.6
	c2.5,2.3,7.6,11.9,8.5,14.5c2,6.5-0.3,14,2.7,20c5.6,11.6,6.9,24.3,9.5,37.1c12.4,63.7,10,175.8,9,182c-0.4,3-4.1,28.5-4.9,33
	c2.4,2.7,7.9,3.1,11.2,6.4c2.8,2.8,4.1,6.6,6.2,9.7c5.2,7.5,8.5,12,8.6,21.7c0.1,5.8,2.5,12,5.1,16.8c1.4,2.8,2.8,4.2,3.5,7.3
	c0.7,2.7,0.8,5.8,1.7,8.5c2.1,6.2,3.5,11.3,5.1,17.6c1.4,5.9,0.7,13.3,2.5,19.3c0.7,2.3,2.1,5.8,4.2,7.6c2.4,2.1,5.8,0.6,8,2.1
	c1.6,1,0.7,2.7,2,3.8c1.1,1,10,4.1,13.3,4.4c7.1,0.6,19.2-0.7,19.2-0.7s6.5,1.4,9.5,1.6c2.8,0.1,5.8-1.3,8.2-2.4
	c5.4,3.4,19.6,2.8,26.3,2.3c0-2.1,1.1-3.5,3.2-4c1.1,1.3,2.8,1.8,4.4,2.3c2.3-9-8.6-17.8-13.4-24.4l-1.6-5.9c0-2.3-0.1-4.5,0.1-6.6
	c6.5-1.1,16.4,2.4,23.3,0.6c0.7-8.5,0-17.8-7.3-22.9c-6.1-4.2-12.3-7.8-12.3-7.8s2.8-8-16.5-8.9c-6.5-0.3-13,2.4-17.9-2.3
	s-6.9-11.9-9.7-17.9c-5.8-12.6-8.3-24.3-9.5-38c-0.6-6.6-1.7-13.1-1.7-20.2c0-6.6-4.2-184.8-4.2-198.9c0-14.5,1.6-27.8,2.7-41.9
	c1-13.1-0.1-27.7,1.7-40.7c1.8-13.1,5.1-26,8.2-38.8c3.1-12.6,12.1-23.2,18.4-34.6c7.1-13,26-64.9,27.8-77.8
	c1.8-12.7-0.7-26.5,4.7-38.4c2.7-5.8,6.5-11.2,9-17.1c2.7-6.5,5.2-13.3,6.8-20.2s2.3-14.1,3.4-21c0.6-3.2,15.8-60,21.3-72.4
	c5.4-12.4,10-24.8,14.1-38c8-25.6,41.8-138.9,45.7-150.8c2-6.1,4.9-14.3,8-19.3c2.8-4.7,9.5-6.4,14.5-6.8
	c53.9-4.2,153.9-14.8,166.4-18.1c9.3-2.4,26-7.5,18.2-22.2c12.7-2.7,16.1-15.2,24.1-24c2.8-3.1,8.8-9.6,8.8-14.1
	C1699.6,90.1,1692.1,83.4,1687.6,80.3z"/>
</svg>
