<?xml version="1.0" encoding="utf-8"?>
<!-- Generator: Adobe Illustrator 18.0.0, SVG Export Plug-In . SVG Version: 6.00 Build 0)  -->
<!DOCTYPE svg PUBLIC "-//W3C//DTD SVG 1.1//EN" "http://www.w3.org/Graphics/SVG/1.1/DTD/svg11.dtd">
<svg version="1.1" id="Слой_1" xmlns="http://www.w3.org/2000/svg" xmlns:xlink="http://www.w3.org/1999/xlink" x="0px" y="0px"
	 viewBox="0 23 1024 745" enable-background="new 0 23 1024 745" xml:space="preserve">
<path fill="#000000"      d="
	M254.8,762l5.8,3c4.6,0,0.8-10.3,0.8-10.3l0.9-3.4c8.6,12.9,7.5,0,7.5,0c6.9-19-20.7-24.3-20.7-24.3s-10.9,0.9-14.5-10.1
	c-2.8-8.7-3-27.5-3-27.5c10.3,4.7,28.6-3.4,28.6-3.4c12.8,2.7,4.6-7.4,4.6-7.4c3.4,6,7.5,2,7.5,2c-0.8-7.5-4.7-15.1-13-17.2
	c-18.9-4.9-29.8-11.5-29.8-11.5v-19.6c2.8-14.8,25.1-44.3,25.1-44.3c18.8-16.8,39.3-48.3,39.3-48.3c24.8-15.4,41.2-79.2,41.2-79.2
	c5.4-35.6,12.9-28.3,12.9-28.3l25.6,14.2c41.6,20.8,34.9-11.4,34.9-11.4c-3.4-15.4,8.7-10.1,8.7-10.1
	c29.5,12.8,127.5,34.2,127.5,34.2c50.3,24.2,124.2,25.5,124.2,25.5c-3.4,4.7,2.7,12.1,2.7,16.8s1.3,32.2,1.3,32.2
	c-2,5.4,4.7,87.2,4.7,87.2c1.3,12.8,0.7,30.9,0.7,30.9c-9.4,34.9,4.7,30.9,4.7,30.9c6.7-4.7,17.4,22.8,17.4,22.8
	c3.4,31.5,17.4,40.3,17.4,40.3c19.5,11.4,43,0,43,0l6.7,2.7c5.4,0-0.7-10.5-0.7-10.5l2.6-1.6c10.1,11.4,8.8,0,8.8,0
	c8.1-16.8-24.2-21.5-24.2-21.5c-4-4-14.1-10.7-14.1-10.7c-2-6.7-7.4-20.1-7.4-20.1c3.4,0,24.8-4.7,24.8-4.7
	c10.7,4.7,6.7-6.9,6.7-6.9l4-1.2c9.4,6,0-13.4,0-13.4c-6-12.1-34.2-13.4-34.2-13.4l-9-26.2c3.8-15.4,7-61.7,7-61.7
	c-2-16.1,4.7-49.7,6.7-54.4c2-4.7,13.4-27.5,13.4-27.5c11.4-5.4,38.3-49.7,38.3-49.7c6.7-11.4,14.8-34.2,14.8-34.2
	c13.4-21.5,14.1-45,14.1-45c-2.7-6.7,9.4-19.5,9.4-19.5c15.4-13.4,20.8-32.9,20.8-32.9c9.4-4,18.1-43,18.1-43
	c3.4,0,12.8-17.4,12.8-17.4c8.7-19.4,24.8-30.3,24.8-30.3c4.7-7.4,40.3,4,40.3,4c12.1,1.3,22.8-10.7,22.8-10.7
	c9.4,4,24.2-2.7,24.2-2.7c20.8-12.1,26.8-44.3,26.8-44.3c16.1-19.5-12.8-25.5-12.8-25.5l-16.8-4.7c-13.4-4.7-43-12.8-43-12.8
	c-6-3.4-7.4-13.4-7.4-13.4c-8.7-31.5-77.2-34.9-77.2-34.9c-53-5.4-74.5,32.2-74.5,32.2c-8.1,14.1-21.5,28.2-21.5,28.2
	c-7.5,8.3-26.8,31.5-26.8,31.5c-8.7,9.4-26.2,28.2-26.2,28.2c-22.1,24.8-54.4,34.9-54.4,34.9c-43.6-2.7-66.4,12.8-66.4,12.8
	c-14.8,10.7-42.3,6.8-42.3,6.8c-17.4-4.7-63.7,0-63.7,0c-24.2,0.7-60.3-6.7-60.3-6.7s-101.5-16.8-151.8,7.3c0,0-64.4-20.8-79.2-20.8
	c0,0-75.2-12.8-112.1-53.7c0,0-20.1-12.8-40.9-72.5c0,0-15.4-45.6-36.9-56.4c0,0,1.3,31.5,8.1,39.6L5.1,55.9c0,0-1.3,35.6,7.4,45.6
	l-7.5-6c0,0,6.1,53.7,22.9,62.4l-10.1-0.7c0,0,18.1,20.8,34.9,24.8l-20.8-3.4c0,0,24.2,22.8,36.2,22.8l-16.1-1.3
	c0,0,40.9,34.9,87.9,40.9c0,0,58.4,16.1,72.5,28.9c0,0,25.5,2.7,17.4,24.8c0,0-36.2,43-22.8,110.7c0,0,6.7,26.8,4,34.2l5.4-7.7
	c0,0,1.3,22.2-2.7,30.5l8.7-5.7c0,0,1.4,17.7-1.3,23.1l6-3.4c0,0-1.3,16.8-4,19.5c0,0,4.7,0.7,8.7-3.4c0,0-8.1,31.5-26.2,45.6
	c0,0-14.8,7.4-10.7,32.9l2.7,14.8c0,0-3.4,7.4-8.1,14.8c0,0-13.4,4-1.3,47c0,0,6.7,59,15.4,76.5c0,0,1.4,25.6,12.1,32.9l10.7,7.3
	C226.5,764.5,249.7,769.2,254.8,762z"/>
</svg>
