<?xml version="1.0" encoding="utf-8"?>
<!-- Generator: Adobe Illustrator 18.0.0, SVG Export Plug-In . SVG Version: 6.00 Build 0)  -->
<!DOCTYPE svg PUBLIC "-//W3C//DTD SVG 1.1//EN" "http://www.w3.org/Graphics/SVG/1.1/DTD/svg11.dtd">
<svg version="1.1" id="Слой_2" xmlns="http://www.w3.org/2000/svg" xmlns:xlink="http://www.w3.org/1999/xlink" x="0px" y="0px"
	 viewBox="139 0 1307 1200" enable-background="new 139 0 1307 1200" xml:space="preserve">
<path fill="#000000"    d="M286.8,41.2c-6.9,6.9-13.6,19.1-17.5,27.7
	c-2,4.2-4.5,8.6-5.8,13c-1.4,4.4-1.6,8.6-2.8,13c-11.9-1.1-23.9-2.7-36.3-2.7c-6.4,0-12.7,0-18.9,0c-5.9,0-24.6,1.7-28.2,2.7
	c-4.1,1.1-8.3,0.3-12.4,1.7c-7.6,2.7-13,5.5-13.6,13.4c-0.1,2.3,0.7,4.5,0.6,6.5c-0.1,1.8-1.6,3.7-2.1,5.4
	c-1.6,4.4-2.5,8.6-3.2,13.1c-1.4,8.2-0.8,16.2,0.6,24.4c0.7,4.5,3,8.5,3.2,13c0.3,4.4,1.3,8.2,2,12.4c1.4,8,8,22.2,10.4,29.8
	c1.4,4.8-2.5,2.7-3.2,7.6c-0.6,4.1-1.6,8.3-1.7,12.4c0,8.3,1.7,17.8,6.6,24.8c5.2,7.5,12.3,12.4,18.2,19.1
	c5.5,6.4,12.3,10,17.9,16.1c6.2,6.5,13.4,11.2,19.5,17.8c5.4,5.8,12.6,10.6,17.4,16.9s9.9,13.6,12.6,21.2c3.8,10.3,1.6,22.2,2.5,33
	c0.6,5.5,4.5,6.1,7.1,10.3c2.4,4,2.5,8.9,4.7,13c1.1,2.3,2.1,3.2,2.7,5.9c0.4,2,1,3.8,1.3,5.9c0.4,4.7-4.4,26-9.2,25.6
	c0.4,2,3.5,3.8,5.4,4.4c-1.1,3.4-4.7,3.2-7.3,4.2c1,0.6,2,1.1,3,1.6c-0.6,2.4-3.7,2.7-5.4,3.1c1.8,1.4,5.1,2.7,7.5,2.4
	c0.6,4.4-5.8,8-9.5,8c3.4,0,8.9-1.6,8.9,2.5c0,2.3-3.4,7.6-4.7,9.2c2.1,0.3,4.1-0.6,4.8,1.7c0.6,1.8-1.3,4.1-2.3,5.4
	c-1,1.1-2.5,2.1-3,3.5c-0.3,0.8,4.7,10.7,2.5,11.3c1.7-0.7,0.4,2.4-2,4.5c1.4,0.4-4.9,7.1-5.1,8.9c-0.1,1.7,4.7-4.2,3.4-4.1
	c2.1,0.4-4.2,7.5-2,7.9c-0.3-0.3-0.6-0.6-1-1c0.6,3.5-2.3,4.8-4.7,6.8c0.8,1,2.1,1.3,3.5,1.3c0,1.7-3,2.8-4.1,4.1
	c7.9-0.8-0.1,4-1.1,5.9c2.4,0.3,5.1,0,7.5,0.3c-1.1,1.4-1.8,3.4-3.1,4.8c-1.3,1.4-3.8,2.4-3.8,4.2c1.3,0.3,2.5-0.1,3.7-0.4
	c1,3-3.4,4.1-4.2,6.4c2,0.1,3.8-0.7,5.8-0.4c-0.4,4-6.9,8.2-8.6,12.3c3.4,0.8,6.2-2.5,9-3.1c0.7,3.1-4.5,6.2-4.7,9.5
	c1.3-1,2.3-2.5,3.7-3.1c0,4.8-5.9,8.8-4.7,14c3.2-0.1,3.8-8.3,7.9-8c0.4,3-2.7,6.4-3.8,9c-1.8,4.1-2.5,7.5-2.5,11.9
	c0.4-2.4,2.7-7.1,4.8-7.9c0.8,3.1-3.4,9.9-4.7,12.8c1-1.1,1.8-2.5,3.2-3.4c0,4.2-8.6,20.3-4.4,21.3c1.6-4.2,3.8-9.9,7.5-12.7
	c-1.4,4.1-14.1,28-8.8,30.2c1.3-4.9,4.8-9.5,7.3-14c0.8,1.6-2.3,7.6-2.8,9.7c-1.1,3.7-2.7,8-2.1,11.9c1.6-1.4,2.1-4.1,4.1-5.4
	c0.6,5.9-2.1,10.4-3.2,16.1c1.4-4,6.4-5.6,8.2-9.5c0.1,4.5-2.1,7.1-3.4,11c2.3-2.7,4.7-5.5,7.6-7.2c0,3.2-2.7,6.1-2.3,9.3
	c1.6-1.4,2.5-3.5,4.8-3.5c0.6,3.2-3.2,5.8-3.2,9c1.8-2.3,5.4-4,8-4.1c0.1,3.4-3.8,8.3-5.4,11.2c3.7,0.4,6.8-5.6,10.7-4.7
	c0.3,3.7-4.7,6.8-4.2,10.2c1.7,0.3,3.1-0.6,4.7-1c0.4,3.5-4,4.5-5.2,6.9c1.6-0.3,3.5-1,5.2-0.8c1.1,3.7-4.9,4.8-6.2,7.5
	c3.4,1.6,10.4,0.4,12.8-2.4c0.4,2.8-3.1,5.1-3.7,7.9c2.1-0.1,3.7-1.6,5.6-2c-1.3,2.8-4,5.1-5.1,8c3.4,2.1,8.2-2.3,10.4-4.2
	c-0.6,6.5-4.2,14.1-6.9,20.5c6.1,0,8-8.9,13.4-10.2c-0.1,6.2-5.9,12-5.8,18.4c3.7-0.1,5.9-7.3,10.2-8c0.8,3.5-2.3,7.3-2.5,10.6
	c2-2,3-5.4,5.8-6.4c1.1,4.8-3.4,10.6-3.7,15.5c1.1-2.8,5.9-6.2,8.6-7.8c-0.7,2-2,4.4-2.1,6.6c0.7-0.8,1.7-1.6,2.7-2
	c0.6,2.5-1.1,4.5-0.8,6.8c0.3-0.3,0.4-0.6,0.4-1l1.7,2.1c1.3,0.4,2.8,0.7,4.2,0.6c-0.3,1.7-2.8,2.5-0.4,3.8c1.6,0.8,3.2-1.3,4.4-1
	c5.4,1.1-0.6,4.5-1.6,6.4c1.6,0.1,3.4,0.6,4.7-0.4c-0.7,0.4-1,1.1-1.4,1.6c2.3,1.4,5.1-1.1,6.5,1.1c1.3,2.1-0.6,6.2-1.7,7.8
	c-2,2.5-3.7,2.7-1.1,4.8c2.1,1.8,4.1,1.7,5.8-0.6c-1,0.1-2,1-2.5,2c2.4,0.3,5.1,0,7.5,0.1c-0.1,1.7-1.4,3.2-1,5.2
	c3.1,0.7,3.7-1.3,5.8-2.5c1.3,2.4,0.7,6.1,0,8.6c-0.8,2.8-4,6.6,1.1,6.1c-0.4,4.5-0.8,5.2,3.8,4.4c0,1.7-0.3,3.5,1.1,4.8
	c1.3-0.6,2.7-1.7,4.2-1.4c-0.1,1.3-0.6,2.3-0.4,3.7c2.8,0,5.6-3.7,7.9-5.2c1.1,7.3-2,13.4-8.3,16.7c2.5,0.4,5.1,1.6,7.8,1.1
	c1.7-0.3,6.1-3.1,7.6-2.1c4.8,3.2-4.4,9.7-6.9,10.3c2.7,2.1,9,2.3,11.4-1c-0.3,4.9-4,4-5.9,7.3c3.4,0.3,6.4-0.4,9.7-1
	c2.8-0.4,6.6-1.7,9.2-1.6c0.4,1.7-0.7,3-0.3,4.8c3.1-2.3,7.3-3.4,8.5,1.7c0.3,1.4,0.1,3.5-0.4,4.9c-0.7,1.7-2.8,3.1-2.7,4.8
	c2.5,0.6,4.8-1,6.5-2.7c4,3-1.6,10.9-3.7,13.6c3.2-1.3,7.1-1.6,8.5-5.4c0.4,2.5-0.3,4.7-1.3,6.9c2.8-0.4,3.7-2.4,5.6-4.2
	c0,3.2,1,6.6,1.1,9.7c0.3,3.4,0,6.9,0,10.3c0,7.8-1.7,71.4-1.7,80.2c0,7.2-1.1,14.1,0.1,21.2c0.7,3.8,2,7.2,2,11.3
	c0,3.8-0.3,7.6-0.6,11.6c-0.4,5.5-9.7,40.9-11.6,44.9c-1.7,3.4-2.7,7.2-4.8,10.4c-12.4,19.1-34.4,9.9-53.1,13
	c-11,1.8-19.1,6.9-27.5,13.7c-6.4,5.1-13,13.1-11.4,21.6c0.7,4.2,0.3,8.8,2,12.6c0.8,1.7,2,2.7,3,4.2c1.1,1.6,1.1,3.4,2.1,4.8
	c5.2,6.6,18.6,2.3,25.8,3c0.3,3.8,5.2,3.1,7.6,3.8c2.3,0.7,4.2,2.7,6.6,3.1c3.4,0.6,6.9,0,10.3,0.6c3.5,0.6,5.8,0.4,9-1.1
	c-3.5,3.4-6.8,7.2-8.6,11.9c-1.4,3.4-2.7,8.2-2.5,12c0.1,4.2,2.5,7.6,4.2,11.4c1.7,3.8,2.7,7.5,5.9,10.4c3.1,2.8,6.8,5.4,10.4,7.6
	c3.1,1.8,7.1,3.8,10.4,5.2c3.7,1.4,8,1.1,11.3,3.8c3.8,3.1,4.9,6.9,9.7,8.9c4.7,2,9.7,2.5,14.7,2.5c6.2,0.1,12.6,1,18.5,0
	c5.2-0.8,10.4-2.4,15.7-3.1c10.3-1.4,20.8-1.1,30.9-2.8c4.8-0.8,9.3-2.5,14.1-4c4.9-1.6,7.3,1.7,12.4,1.3c4.1-0.3,8.3-2.5,11.9-4
	c2.8-1.1,9.7-4.1,11-6.8c2-0.7,4.7-3.1,5.5-4.9c0.3,0.1,0.4,0.3,0.8,0.4c0.3-2.8-0.4-4.7-1-7.3c3.8,1.7,5.2,7.1,8.6,9.5
	c2.3-2.7-1.7-7.1-1.6-10c1.4,1.4,3.4,2.7,4.9,3.5c1.1-1.8,0.4-4.8,0.7-6.9c3.1,0.8,7.6,6.1,9,8.9c2.5-2.8-2.4-8.8-1.6-12.3
	c5.8,1.6,7.3,9.5,10.2,13.4c0.6-3.7-1.4-7.5-0.8-10.7c4.1,0.1,4.8,8,7.3,10.2c2.8-4-0.6-10.2-0.8-14c1.1,1.3,4.7,6.8,6.5,5.4
	c3.1-2.1-1.8-10.4-1.7-12.8c1.8,1.3,3.4,2.4,4.8,4.1c1.3,1.6,2,4.4,3.7,4.9c0.7-4-2.5-6.8-2.5-10.2c3,3,5.5,7.1,8.3,10.2
	c-1.1-2.5-4.8-11.7-0.3-13c4-1.1,7.9,7.2,8.8,9.7c4.2-0.1,3-9.5,3.2-12.3c3.2,0.7,4.4,7.3,7.5,7.5c0.6-4-2.8-7.6-2-11.3
	c5.6,1.6,9.7,9.3,10.3,14.5c4.4-4.1,0.8-11.9,0.6-16.7c2.3,0.8,4,4.9,6.4,4.8c-0.7-2.4-1.1-5.1-2.1-7.5c1.6,1,3.5,4.8,5.8,4.2
	c0.7-5.1-4.8-10.3-3.7-15.1c3.5,1.7,3.8,6.6,6.8,8.6c0.1-4.2-2.4-9.7-4.8-13l9.2-4.4c-1-3-2.8-5.8-3.8-8.5c2.1-0.1,6.6,2.3,8.6,3.5
	c0.1-4-5.8-7.2-4.7-11.3c2,1.1,3.5,2.7,5.4,4.4c1.4,1.3,4.5,4.9,6.4,4.8c0.6-2.7-0.4-6.6-1.6-9c-1.3-2.7-4.2-4.4-5.2-7.1
	c4.5,0.3,7.5,5.8,11.6,7.6c-1.7-3.8-3.8-7.6-5.8-11.4c-1.1-2.3-3.5-4.5-3.7-6.9c5.2,0.4,11.3,6.5,15,10.2
	c-1.7-4.8-7.2-10.2-7.3-15.4c3.4,1.7,6.4,4.1,8.9,6.9c-1.1-3.2-2.3-6.6-3.5-9.9c-1-2.3-4.4-6.6-3.7-9.2c2.3-0.7,5.4,1.8,6.5,3.5
	c-2.7-6.1-2.1-13.1-2.3-19.8c1.7,1.7,2.4,4.2,3.8,6.2c1.3,1.7,2.8,3.1,3.7,4.9c-3.7-3.4-3.8-14.1-3.7-18.9c0-4.5,1.3-11.6-1.1-15.5
	c1.7,2.5,2.7,5.1,4.9,7.3c1.7,1.8,3.5,3.5,4.4,5.8c-2.4-4-3.2-9.9-4.5-14.4c-0.8-3-2.8-7.1-2.5-10.2c2.1,3.7,6.4,6.8,8.2,10.4
	c0.3-5.2-2.8-12.6-5.4-16.9c2.3,3.1,7.5,7.5,11.3,8.3c-5.8-4.5-8.6-13-8.6-20.5c0-4.1,0.3-7.3-1.6-11c-1.6-3.1-3.8-5.2-4.9-8.3
	c2.7,3.1,3.1,7.3,5.5,10.4c-0.3-8.3,2.7-16.5,2.1-24.7c-0.6-7.2-4.8-13-6.1-19.9c2.8,1.7,7.1,6.6,8.2,9.9c-0.7-5.5-5.2-9.2-6.1-14.3
	c2.4,1.8,5.8,4.9,6.8,7.9c1.8-3.1-1.1-8.8-3-11.4c-2.1-3-7.3-5.6-8.3-9c5.2,2.8,9,7.8,12.7,12.3c1.4-9.2-8.3-18.9-14.4-24.6
	c2.1,0.7,4.2,1.4,6.4,2.5c2,1,4.4,3.7,6.5,3.7c-2.4-4.7-7.3-7.1-10-11.3c2.3,1.8,6.6,4.9,9.5,4.9c-1.4-5.6-9-9.5-9.6-15.5
	c3.5,0,6.2,3,9,4.2c-2.1-4.2-4.8-8.6-7.1-13c-1.3-2.5-3.8-5.5-4.2-8c3.1,3.4,6.4,8.2,11.2,10c0-4.5-3.1-10.9-4.2-15.4
	c-0.8-3.4-2-6.4-1.6-9.9c2.8,2.8,6.4,5.5,9,8.5c-0.7-1.6-3.4-9-1.6-9l5.4-0.6c-0.1-0.8,0.3-1.3-0.4-1.6c0.1,4.1,2.5,9.3,3.5,13.6
	c0.7,3.1,1.4,7.3,4.4,9.2c-1.3-7.1,0-15.5,3-22.2c1.3,2.1-0.1,5.9,1,8.6c0.3,0.1,0.6,0.1,0.8,0c0.3-2.3-0.3-4.8,1.1-6.8
	c1.1,2.7,1,10.7,4.8,11.2c0.6-4.5,0-9.9,2.7-13.8c2.8,4.8-1.4,11.2,3.8,15.4c0.3-3.5-1.4-11,2.1-13.3c0.8,5.4,4.5,14.8,9.9,16.9
	c-1.3-7.5-0.3-14.7,3.4-21.5c1.3,2.5,0.1,10.4,3.5,11.9c1.3-2-0.4-6.8,1.7-7.5c1.3,2.8,3.5,9,6.5,10.2c0.7-3.8-1.3-7.8-0.8-11.9
	c2.1,2.1,4.8,5.8,6.4,8.5c0.6-3.1-2.1-8.5,1-10.6c3.1,4.2,5.2,9.5,8.2,13.8c0.4-3.4-0.4-8.3,2.7-10.6c0.1,2.5,2,5.8,3.8,7.3
	c0.4-3.7-0.6-7.3-1.3-10.7c4.2,4.5,9.6,10.9,16,12c0.6-3.4-2.4-6.8-2-10.2c3.4,0.6,4.7,6.5,8.5,6.9c0.3-2.3,0-5.4-1-7.3
	c1,1,2.5,5.6,4.4,4.7c1.4-0.7,0.1-4.5,1.1-5.8c2.1,1.1,4.1,2.5,6.9,2c0.8-3.2-2.5-7.1-4.2-9.5c4.7,5.4,17.6,11,24.8,9.5
	c-1.6-2.5-7.1-4-7.5-7.3c2.5-0.3,6.8,2.4,9.7,2.7c3.5,0.4,8,0.1,11.3,1.4c-1.6-1.3-4.1-4.2-4.2-6.4c7.2,3.4,15,6.2,21.6,10.6
	c-1.4-4.1-6.4-8-5.9-12.7c3.5,0.3,7.1,5.1,10.6,6.4c0.1-2-1.4-4.4-2-6.4c4.4-0.7,10.2,5.4,11.7,8.6c-0.1-4.5-2-9.2-1.4-14
	c0.3-0.1,0.6-0.1,0.8,0c1.1,4.1,5.4,5.1,7.2,8.5c-0.6-2.8-1.6-6.1-1-9c1.6,1.1,2.1,3.1,3.2,4.7c1.1,1.7,3.2,3.7,4.7,4.9
	c0-2-3.7-11.4,0.6-10.7c0.8,0.1,3.5,5.2,4.1,6.1c1.4,2.1,2.7,4.7,4.2,6.8c-0.1-3.7-1.6-13.1,2-15c1.3,4.7,4.7,7.9,6.6,12.3
	c0.3-2.8-2.4-13.7,3.1-10.2c2.5,1.6,4.8,8,5.5,10.7c-0.1-5.1,0-10.7-1.7-15.5l6.5,5.4c-0.6-1.7-0.7-3.7-0.4-5.4
	c3.2,1.3,3.7,5.8,5.4,8.5c0.1-3.1-1.6-6.5-1-9.5c4,2.4,3.1,8.3,5.4,11.9c2.4-1-0.4-7.1,0.8-9.2c1.6,3.2,4.4,7.5,4,11.2
	c0-6.9-0.6-14.1,0.1-20.9c2.4,1.4,4.5,0.8,5.9,3.7c1.4,2.8,0.1,7.3,2,9.9c3.7,4.9,3-6.1,3.8-7.6c1.3,2.7,0.8,7.1,2.1,9.2
	c2.4-4.4,2-8.2,2.4-12.8c4.2,2.3,2.8,9.5,3.2,13.4c4.9-3,1.8-9.9,4.1-13.4c0.7,3.2,2,6.8,1.8,10.3c1.6-2.5-0.7-12.1,2-13.4
	c1.7,4.2,2,8.6,3.4,12.8c0-4.8,1.1-9.3,1-13.7c1.1,2.1,1.7,5.1,2.4,7.5c0.4,1.6,1.1,3.2,1.4,4.8c0.3,1.3-0.4,3.5,0.1,4.7
	c2.4,5.6,5.5-10.3,5.4-13.3c2,3.2,1.7,7.3,3.4,10.6c3.8-1.4,2.4-6.5,2.7-9.5c3.7,1.6,1.6,6.5,3.1,9c2.7,4.4,5.2-3.8,6.1-6.4
	c0.8,2.3,2.4,6.6,5.4,3.8c1.7-1.6,0.8-5.1,1-7.2c3-0.3,3.4,8.9,4.4,11.3c6.5-1.6,4.7-9.3,6.8-12.8c0.8,1.1,1.1,5.8,2.7,5.2
	c1.3-0.4,0.7-4.2,0.7-5.2c1.7,1,2.8,4,3.2,5.8c3.8-0.4-0.4-6.2,0.4-8c1.4-3.4,3.8,0,4.8,1.8c1.3,2.1,2.8,7.6,3.4,2
	c0.3-2.8-1.7-5.8-1-8.5c3.8,1.3,6.5,5.2,10.2,6.8c0.1-1.4,0-2.8,0.1-4.2c6.9-1.1,8.2,15.5,10.2,19.2c1-2.8,1.1-5.8,1-8.9
	c3.2,2.4,6.2,6.9,8.6,10.2c3.1,4.2,5.8,8.8,8.9,13c3.7,5.1,8,9.6,11.9,14.7c2.8,3.5,5.4,7.9,7.5,11.9c2.7,5.4,6.9,10.2,11.2,14.7
	c6.5,6.8,15.4,11.7,23.2,16.8c7.1,4.7,14.3,9,22.2,12.1c10.2,3.8,19.2,9.2,27,16.7c6.4,6.2,13,10.9,20.3,15.5
	c8.2,5.1,8.3,13.7,9.6,22.3c2.7,16.2,8.8,37.6-8.8,48.8c0,0-14.3,6.8-16.2,7.1c-9.2,1-19.6,4.9-27.7,9.6
	c-6.9,4.1-14.3,9.9-17.2,17.5c-3.4,9,4.4,15,4.8,22.7c0.3,5.5,2.7,7.5,8.2,8.8c4.2,1,8.9,2.1,13,2.7c4.7,0.7,7.1,0.6,11.3,2.8
	c1.6,0.8,4.1,1.8,5.4,2.7c1.8,1.3,1.7,3.1,3.2,4.4c2.8,2.4,8.5,1.4,12.1,1.4c4.5,0,9,0.4,13.6,0c8.3-0.7,17.1-1.7,24.8-4.5
	c4.1-1.6,8.5-3,12.6-4.7c3.5-1.4,7.8-3.8,11.7-4c-1.4-6.5,1.3-5.1,2.8-5.8c2.4-1.3,5.9-1.7,8.6-1.8c0.3-1.4-0.3-3-0.8-4.2
	c1.4,0.4,3,1.1,3.7,2.5c1.4-0.6,2.8-1.6,4.2-2.3c0.1-1.6,0.6-2.7,0.7-4.1c3.2-0.7,6.5,2,10,0.6c-0.6-1.3-1-2.4-0.8-3.8
	c4.9-1.1,8.2,5.5,12.3,4.1c-0.3-1.8-2.3-3.4-2.5-5.2c2.8-0.6,5.5,2.3,8.5,1.4c0-2-1.6-3.7-1-5.8c3.8,0.4,7.5,1.8,11.9,1.4
	c-1.7-3-6.6-6.8-4.4-10.7c1.7,0.7,3.5,0.6,5.4,0.4c0-1.6-1.1-3.1-1-4.7c3-0.3,6.8,0.8,8.5-2.1c-2.3-1.8-5.2-5.1-5.8-7.8
	c2-1.3,5.2-0.6,7.5-1.6c-0.6-1.4-2-2.5-2-4.2c1.1-0.6,2.4-0.7,3.5-1c-1.1-2-3.8-2.8-4.1-4.9c3,0.3,6.2,7.2,7.9,9.7
	c2.5,3.8,5.6,6.5,8.5,10.2c2.8,3.7,2.8,6.8,2.4,11.4c-0.4,4.5-0.6,9,0.1,13.6c0.7,4.5,1.6,8.5,0.6,13c-1.8,8.2-9.3,13.3-15.5,18.6
	c-5.8,4.9-13,8.8-19.2,13.3c-5.2,3.7-15.2,6.5-16.5,13.8c-0.7,4.1,2.4,8.3,3.1,12.3c0.7,4.1,2.8,7.1,6.4,9.3
	c3.2,2.1,7.6,2.1,10.9,4.8c1.4,1.1,1.8,2.7,3.4,3.7c1.4,0.8,4.2,1.1,5.9,1.6c8.3,1.7,17.2,2,25.4,4.4c2.3,0.7,3.8,2.3,5.9,2.7
	c1.8,0.4,4.7,0.1,6.5,0c4.4-0.4,8.9-1,13-1.7c8.8-1.4,14.4-6.2,21.2-11.9c5.2-4.4,9.6-9.7,15-13.8c3.5-2.7,17.8-10.2,16.9-15
	c2.7,0.6,11.9-7.1,11.9-7.1c4.1,0.3,8.8-0.8,13-1.1c0.3-1.6-0.3-3.2-1.8-3.7c5.6-4.7,12.3-6.9,19.2-8.8c0.6-2-1.4-2.8-3.1-2.7
	c1.6-3.8,9.2-7.3,9-11.7c-2.3,1.6-6.2,1.3-8.5,0.3c-0.1-2.7,3.4-3.2,4.9-4.8c2.1-2.3,3.8-6.6,5.4-9.5c1.8-3.4,6.1-10.6,5.9-14.3
	c-0.8,1.8-4.5,3-6.5,3.5c0.7-3.5,3.1-5.8,4.8-8.9c-2.7,0.4-5.1,1-7.9,0.7c1.6-2.3,3-4.4,4.1-6.9c-2.8-0.1-5.6-0.6-7.9-1.7
	c3.7-2.3,4.9-4.5,7.2-8.2c-2.7-0.6-5.1-2.3-7.8-3.1c-2.1-0.7-4.9-0.3-4.7-2.4c0.6-3.5,7.1-5.4,9.9-5.4c-2.4-4.5-8.6-5.5-11.3-8.9
	c2.4-2,5.2-2,7.3-3.4c-1.8-2-4.7-2.5-6.9-3.8c-0.7-0.4-2.5-1.1-2.8-2c-0.8-2.3,1.1-1.1,1.3-2.4c0.3-2.4-1-3.2-3-5.2
	c-0.7-0.7-4.5-3.4-4.7-4.1c-1.4-5.1,9.9-3.1,6.6-8.8c-1.1-1.7-4.5-3.2-6.1-4.8c-1.6-1.6-3.2-3.1-4.8-4.8c-5.6-6.4-10.7-14.1-15.5-21
	c-4.8-6.9-7.2-16.2-10.6-24.1c-1.6-3.7-3.4-7.5-5.1-11.2c-1.1-2.5-5.9-7.9-5.8-10.3c1.4-0.4,2.8-0.1,4.1,0.6
	c-2-3.4-3.2-7.9-4.5-11.4c-0.7-2.1-5.9-11.9-0.1-11c-1.3-2.4-5.5-4.4-4.8-7.3c2.7-0.1,5.9-0.3,8.5-1.3c0.4-3.7-1.6-5.5-4.4-7.5
	c1.6-2.5,5.1-1.6,7.6-1.7c0.1-2.5-5.1-6.4-3.8-8.2c1.3-1.8,7.9,0.4,9.9-0.8c-0.8-2.1-7.6-3.7-6.9-6.9c0.7-3,7.8-1.1,9.6-1.3
	c-0.7-3.2-5.2-4.4-6.4-7.3c3.2-1.8,7.9-0.6,10.7-2.3c-0.8-2.7-10-3.5-12.8-5.8c5.2-3.1,16-4.8,17.1-12c-2.4,0-6.9-0.6-9-1.8
	c1.1-0.7,5.2-1,6.9-1c0.1-0.3,0.1-0.6,0-0.8c-3-0.1-5.6-0.7-8.5-1.1c4.4-2.3,8.2-3.8,11.6-7.6c-1.4,1.1-6.1,1-7.3,0.1
	c1-0.8,2-1.3,3.1-1.4c-1.4-0.6-3.8-1.6-5.8-2c2.3-1.8,6.1-1.1,8.9-2.1c-2.7-0.7-5.2-1.4-7.8-2.1c2.5-1.4,13.8-0.7,12.1-5.4
	c-3.2-0.3-6.2,0.4-9-1.3c-0.1-0.6-0.1-0.8,0-1.4c2.3-1,4.5-0.6,6.9-0.7c-1.4-2-4-3.1-5.4-4.9c-2.5-3.2,2.1-0.8,3.7,0.1
	c0.3-2.5-3-4.5-4.2-6.4c3.2-0.7,5.8,2.3,8.5,3.1c0.7-2.5-1.4-6.4-3.7-7.6c1.3-0.6,2.8,1.4,4.2,2.3c-1.4-2.3,2.3-1.8,0.7-4.4
	c-1-1.7-3.7-1.8-4.8-3.5c3.4-0.8,4.9-2.8,6.9-5.4c-2-0.7-4-1.1-5.8-2.1c2.1-1.4,4.9-0.6,6.2-3.2c-1.8-1.6-5.2-2.3-4.2-5.5
	c0.6,0.1,1.4-0.3,2-0.1c-0.1-1.1-1.1-2-1.8-3.1c1.3,0.6,2.5,0.6,4.1,0.4c0.1-2.5-1.4-5.5-2.1-8c-0.6-2,4.2-41.4,3.2-54.8
	c-0.3-4.2-6.1-37,0.4-35.9c-1-2.4-4.7-3.7-3.7-6.9c2.4-0.3,4.1,0.3,6.4,1c-0.8-2.8-4.2-4.7-5.4-7.5c1.6,0.3,3,1.3,4.8,1
	c-0.3-3.1-4.8-11.2-3.4-13.4c0.6,1.3,1.6,2.5,2.7,3.1c0.7-3.4-3.2-9.5-4.1-13c-1.1-4.7-2.1-9-3.8-13.7c-3.5-10.2-5.2-21-7.9-31.5
	c-5.1-19.9-6.5-41.9-16.5-60.6c-2.7-5.1-4.1-10.6-6.8-15.7c-2.5-4.8-6.1-9.7-9.2-14.1c-6.8-9.3-12.6-18.9-19.8-27.8
	c-15.1-18.5-36.6-32.6-55.5-46.3c-8.2-5.9-18.5-9.9-28.2-12.4c-4.4-1.1-8.5-2.4-12.8-3.5c-3.4-0.8-11.7-1.6-8.9-6.4
	c-15-1.4-29.1-7.3-43.6-11.6c-5.2-1.6-10.3-3-15.2-4.9c-4.4-1.7-8.9-3.8-13.6-4.2c-9.9-0.7-19.3-2.5-29.2-3.2
	c-4.7-0.3-9.7,0.8-14.1-0.7c-2.1-0.7-3.8-2-5.8-2.7c-2.3-0.8-3-0.6-5.5-0.4c-4.5,0.4-23.7,2.8-23.3-4.7c-2.3,1-5.6,2.8-8.2,3.1
	c-4.5,0.4-3.5-2.1-2.7-5.2c-3.1,1.3-6.9,5.4-9.7,5.6c2.7-5.1-2.8-4.9-6.1-3.8c-4.2,1.4-8.2,2.1-12.6,2.8c-3.8,0.7-23.9,2.5-22.9-2.7
	c-6.1-1.6-15.1,6.1-18.5-2.7c-9.3,3.1-18.6,6.1-28.8,4.4c-3.7-0.6-6.5-1.4-10.6-1.1c-3.1,0.3-10.2,3.2-9.5-2.3
	c-3.1,1.1-6.6,1.7-10.2,1.6c-0.1-1.4,0-2.8-0.1-4.2c-6.5,2.8-13,6.5-20.5,7.5c-4.5,0.6-9-0.1-13.6-0.4c-5.1-0.4-10,0.3-15.1-0.7
	c-7.5-1.4-15.8-1.8-23.3-2.4c-5.6-0.4-11.6-1.1-17.2-0.6l-11.4-1.7c-9.2,0-17.1,1-26-1.7c-4.1-1.3-8.2-3.4-12.4-4.7
	c-5.4-1.6-11.9,0.3-16.9-1.8c-0.4-3.8,1.1-6.1-3.8-7.6c-4.1-1.3-8.5,1-12.4,0c-0.7-3.2,5.6-4.4,6.9-6.4c-4.8-4-10-0.7-15.1-1.8
	c-0.3-2.8,4.2-4.1,5.8-4.7c-8.3-1.6-16.1-4-24.8-3.2c-7.8,0.6-14.7,4.9-22.7,4.1c0.6-0.8,0.1-1.4,1.8-1.6c-4-2.7-9.9-4.8-14.4-6.6
	c-2.4-1-14.8-2.5-7.2-5.9c-3.7-2.3-8.8-3-12.8-4.4c-3.5-1.3-6.6-2.5-10.2-2.7c0.1-0.7,0.6-1.8,1.1-2.5c0.4,0,1-0.1,1.4-0.1
	c-5.1-6.4-13.7-6.6-20.5-9.7c0.4-1,1.4-1.6,2.7-1.6c-4.5-3.1-10.3-2.1-15.7-2.7c0.1-1.3,1.1-2.1,2.4-2.7c-5.1-3.4-19.5-1.6-19.5-0.6
	c-5.5-2.5-11.6-5.9-16.7-9.7c-4.9-3.7-10.2-6.4-15.1-9.9c-4.4-3.1-8.2-6.8-13-8.9c-2-0.8-6.9-2-6.1-4.7c0.1-0.6,7.5-6.2,1.4-6.4
	c2-1.6,4.1-4.2,2.5-5.9c-0.7-0.8-5.6-3.1-7.1-3.4c0.6-1,2.1-1.8,2.5-2.7c0.4-0.8,0.1-2.4,0.4-3.2c0.7-2,1.7-3.7,2.3-5.6
	c-2.5-0.8-4.7-3.1-7.5-3.5c-0.6-2.4,1.4-6.9,2.5-9c-4-1.8-10.9-1.3-13.4-5.1c-2.3-3.4-2.4-9.5-3.4-13.4c-1.3-5.1-3.2-9.2-3.2-14.7
	c0-4.2,3.1-12.7-3.7-8.8c-0.1-5.4,1.6-11.4-0.7-16.7c-0.6,0.1-1.4-0.3-2-0.1c-0.3-4-0.7-7.8-0.6-11.7c-0.1,1-0.7,1.4-1.1,2.1
	c-2.5-2.1-2.8-7.9-3.8-11c-1.3-3.7-2.8-7.3-4.5-10.9c-3.1-6.4-6.2-13.1-8.6-20c-4-11.3-12-19.9-17.2-30.4c-2-3.8-4.4-7.5-7.2-10.7
	c-2.4-2.8-5.5-6.2-8-8.8c-1.7-1.6-1.1-0.6-2.5-1.1c-0.8-0.3-2.5-0.6-3.2-1.1c-2.1-1.4-1-3.7-2.5-5.5c-2-2.3-3.8,0-6.1-0.4
	c-2.3-0.6-2.4-2.3-3.4-3.8c-1.7-2.8-3.8-9.5-6.5-11.3c-2.8-1.8-3.2,1.4-5.4,1c-1.6-0.3-2.3-4.2-2.8-5.4c-1.3,0.6-2.7,1.7-3.2,3.1
	c-1.3-1.8-0.8-5.1-1.4-7.5c-1-4.4-2.4,7.1-5.4,4.9c-1.4-1.1-2.4-4.5-4.4-4.9c-1.8-0.4-5.2,2.1-7.5,2.1c-0.3-3.8-0.4-6.8-2.4-10.2
	c-3.1-5.5-3.7,0-7.3,0.4c-0.6-4.2-3.1-9.3-6.6-11.9c-1.4,0.6-2.7,2.7-4.2,2.1c-1-0.3-1.7-3.2-1.8-4.1c-3.5-0.6-4.9,4.1-7.5,2.1
	c-2.3-1.8-1.7-6.8-2.7-9.3c-2.1-5.2-3-1.6-5.9,0c-2.4,1.3-7.2,1-7.2-2.7c-4-1-8,2.3-11.7,2.5c0.3-5.9-9.6-2-11.9-1.7
	c-0.3-2.1-1.7-3-2.4-4.8c-1.4,0.3-2.4,1.4-3.2,2.5c-2.8-1.1-8.5,2-12.3,1.7c0.1-1.1-0.3-1.7-0.7-2.5c-0.4,0.6-1.6,1.1-2,1.8
	c-3.2-3-4.8-2.5-8.8-0.1c-2.1,1.3-7.1,7.6-8.6,7.5c-2-0.1-1.7-3.5-2.8-3.8c-1.7-0.4-3,2.5-3.8,3.7c-1,1.4-1.8,3.7-3.2,2.7
	c-0.8-0.6-1.1-3.5-1-4.4c-3.5,1.3-6.4,3.8-8.6,7.1c-2.7,3.7-2.1,4-6.5,3.7c0-0.4-0.1-1-0.1-1.4c-1.8,1.8-3.4,4.4-5.2,5.8
	c-0.1-1.3-0.6-1.3-1.1-2.1c-1.1,3.2-3.4,6.5-5.4,9.3c-1.7,2.3-6.9,5.2-6.6,8L286.8,41.2z"/>
</svg>
