<?xml version="1.0" encoding="utf-8"?>
<!-- Generator: Adobe Illustrator 18.0.0, SVG Export Plug-In . SVG Version: 6.00 Build 0)  -->
<!DOCTYPE svg PUBLIC "-//W3C//DTD SVG 1.1//EN" "http://www.w3.org/Graphics/SVG/1.1/DTD/svg11.dtd">
<svg version="1.1" id="Слой_1" xmlns="http://www.w3.org/2000/svg" xmlns:xlink="http://www.w3.org/1999/xlink" x="0px" y="0px"
	 viewBox="132.5 0 802.7 768" enable-background="new 132.5 0 802.7 768" xml:space="preserve">
<path fill="#000000"      d="
	M282.2,16c0,0-25.3-12.4-34.2,8c0,0-31.3,23.2-42.2,36.8c0,0-36.8,28-25.9,59.3c0,0-4.1,17,4.8,32.7c0,0,1.4,7.5-6.8,10.9L157.3,174
	c0,0-19.1-4.1-15.7,15c0,0-2.4,12.3,2.8,14.3c0,0,2.6,15,11.5,19.8c0,0,20.5,4.8,28.7,3.4l11.6,0.2l-17.7,18.9c0,0-7.5,0.7-10.9,6.8
	c0,0-17.1,14.3-10.2,24.6c0,0,10.2,4.8,17.1,0c0,0,6.8,3.2-4.1,14.1c0,0-23.2,14.1-13,34.6h4.5c0,0-5.2,16.4,0.3,32.8l4.1-5.2
	c0,0-3.4,26.1,8.9,41.2h1.8c0,0,8.4,37,36.4,54.7c0,0,19.8,51.7,43.7,53.8c0,0,9.7,26.5,21.2,27.2c0,0,6.1,4.7,4.7,10.9l6.1-4.1
	c0,0,4.1,7.5,0,10.9c0,0,15,8.9,18.4,0c0,0,2.7,10.2,10.2,9.5c0,0,8.9,26.6,24.6,46.4c0,0,13.6,53.2,24.6,63.4c0,0,8.9,39-4.1,43.8
	c0,0-15-6.9-27.3,11.5c0,0-13.9,25.9,14.1,25.9c0,0,10.4,8.9,32.3,4.8c0,0,21.1-1.4,25.9-17.7c0,0,13.6-19.1,14.3-28
	c0,0,10.9-25.2,10.9-34.1c0,0,6.1-25.2,5.5-32.1c0,0,9.5,28,17.7,44.3c0,0,8.2,30-4.8,36.8c0,0-16.4-3-29.3,15.4c0,0-8.9,22.1,10,23
	c0,0,10.5,10,28.8,2.2c0,0,11.7,11.4,34.2,1.9l2.1-3c0,0,17-9.6,18.3-23.9c0,0,13.6-24.6,11.6-34.8c0,0,8.9-4.1,10.2-10.2
	c0,0-8.2,0.7-2-4.8c0,0,38.9-28,38.9-61.4c0,0,13.6-36.8,0-55.3c0,0,4.8-8.2-11.6-21.8c0,0,45-2.7,58.7-16.4
	c0,0,36.8,66.8,92.1,92.1c0,0,6.1,34.1,13.6,35.5c0,0,8.9,38.2-4.1,44.3c0,0-27.3,8.9-21.8,25.9c0,0,7.5,10.9,25.2,7.5
	c0,0,10.2,6.1,32.1,2c0,0,5.5,13,28,10.2c0,0,15,5.5,31.4,1.4c0,0,25.2-8.9,32.1-28c0,0,9.6-15.7,6.8-39.6c0,0-2.6-20.9-1-32.9
	c0.3-2.4,0.8-4.5,1.5-5.9l2.4,7.5c0,0,1-25.2,4.2-32.7v9c0,0,12.4-28.1,13.8-37l3.5,7.5c0,0,35.5-40.2,28-86l4.8,15.7
	c0,0,21.2-38.9,12.3-81.2l5.5,15.7c0,0,20.5-59.3-35.5-129.6l9.6,4.8c0,0-35.5-86.6-107.8-122.1c0,0,6.1-28.7-8.2-40.2
	c0,0,14.3,10.2,16.4,22.5c0,0-6.1-29.3-14.3-38.2c0,0,17.7,10.2,21.1,24.6c0,0,21.1-75-38.9-111.2c0,0,27.3,8.2,37.5,36.8
	c0,0,2.7-36.8-21.1-60.7l17.1,13.6c0,0-10.2-43-69.6-42.3c0,0-62.1-10.9-95.5,22.5c0,0,9.3-14.3,15.4-17.7c0,0-65,2-74.6,47.1V60.2
	c0,0-31.1,20.4-23.6,42.9l-6-8.9c0,0-6.1,25.9,15.1,39.6c0,0-25.9-10.9-37.5-9.5c0,0-19.1-17.7-36.1-19.8c0,0-16.4-28-40.9-31.4
	c0,0-27.3-30-55.3-36.2c0,0-49.1-49.1-109.8-23.9L282.2,16z"/>
</svg>
