<?xml version="1.0" encoding="utf-8"?>
<!-- Generator: Adobe Illustrator 18.0.0, SVG Export Plug-In . SVG Version: 6.00 Build 0)  -->
<!DOCTYPE svg PUBLIC "-//W3C//DTD SVG 1.1//EN" "http://www.w3.org/Graphics/SVG/1.1/DTD/svg11.dtd">
<svg version="1.1" id="Слой_1" xmlns="http://www.w3.org/2000/svg" xmlns:xlink="http://www.w3.org/1999/xlink" x="0px" y="0px"
	 viewBox="192.5 0 680 768" enable-background="new 192.5 0 680 768" xml:space="preserve">
<path fill="#000000"      d="
	M276.8,28.6c0,0,21.4-25.7,44.4-17c0,0-5.7,3.4-3.9,7.6c0,0,22.2-18.9,32.6-14.5c0,0-10.9,9.1-5.7,14.8c0,0,6.5-1.7,7.8-8.7
	c0,0,16.5,3.5,12.2,23.9c0,0,7.8-13.5,4.4-20.5c0,0,13.5,3.5,9.1,23.1c0,0,11.3-15.2,31.3-11.3c0,0-8.7,4.4-9.6,8.3
	c0,0,10.4-11.3,19.6-3c0,0-4.4,5.7-3.5,10c0,0,13.5-10,23.9,0c0,0-13.9,12.6-6.5,22.6c0,0,3.5-1.3,3.9-4.8c0.4-3.5,2.6-0.4,2.6-0.4
	s7.4,11.7,0,26.1c0,0,5.7-0.4,7.4-3.5c0,0,4.8,9.1,3,12.2c0,0,6.5,0.4,13.1,11.8c6.5,11.3-2.2-0.4-5.7,3.9c0,0,24.4,9.1,30,22.6
	c0,0-5.2-1.3-8.7,2.6c0,0,25.4,0.9,32.3,38.7c0,0-4.9-4.4-8.4,2.2c0,0,6.5-3,10.9,13.1c0,0-5.7-2.2-8.7,0c0,0,5.2,12.6,18.3,10.4
	c0,0,7.4,7-3,15.2c0,0,6.1,1.3,10-4.8c0,0,7.7,4.4,3.4,13.5c0,0,8.8-4.8,7.5,6.1l5.2,1.3c3,10.4-1.7,14.4-1.7,14.4
	c8.7,10.9,2.2,23.1,2.2,23.1c4.4,4.4,0,13.9,0,13.9c6.1,2.6,7.4,9.1,7.4,9.1c7.8,2.2,9.1,9.6,9.1,9.6c9.6,13.1,48.7,7.8,48.7,7.8
	c44.8-9.1,94,9.1,94,9.1c14.8-7.4,16.1-32.2,16.1-32.2c-21.8,6.5-33.5-20-33.5-20c-14.8-2.2-17.4-17.4-17.4-17.4
	c-11.3-3.5-4.8-12.2-4.8-12.2c-10.4,0-13.1-20-13.1-20c2.2,1.7,6.1,1.3,6.1,1.3c-8.3-7.8-1.3-10.9-1.3-10.9
	c-6.1-7-0.9-15.2-0.9-15.2c1.3,3.9,10,5.2,10,5.2c-3.5-6.5,7.4-3.9,7.4-3.9c10.4,1.7,5.7-6.1,5.7-6.1c-11.8-4.4-2.6-17.8-2.6-17.8
	c-13.9,12.2-26.5-0.9-26.5-0.9c-15.7-6.5-9.6-25.2-9.6-25.2c-8.7-2.6,0.9-28.7,0.9-28.7c8.3-35.3,35.7-29.6,35.7-29.6
	c9.1-6.5,16.5-1.3,16.5-1.3c13.5-7.8,21.8-1.7,21.8-1.7c15.2,0.9,12.2,13.5,12.2,13.5c6.1,0,0,6.5,8.7,9.6c8.7,3-4.4,15.7-4.4,15.7
	c5.2,2.2,0,8.7,0,8.7c5.2,2.6-6.1,10-6.1,10c-14.8,9.6-8.3,20.9-8.3,20.9c4.8-0.4,15.2-20.9,15.2-20.9c6.5,3.5,5.7,14.8,5.7,14.8
	l3-4.8c10,8.7,7,25.2,7,25.2c3.9-1.3,5.7-8.3,5.7-8.3c4.8,4.4,2.2,13.1,2.2,13.1l3.9-9.1c3.5,7.4-0.4,17-0.4,17
	c5.2-0.4,7.8-9.1,7.8-9.1c9.1,7,2.8,18.2,2.8,18.2c-3,6.1-1.5,9.6-1.5,9.6c10.4,0.9,7.8,7.4,7.8,7.4c-6.1,1.3-9.1,12.2-9.1,12.2
	c-0.4,7,6.1,0,6.1,0c3,6.5-0.9,16.5-0.9,16.5c6.1,9.1-3.9,20-3.9,20c2.6,21.8-25.7,23.9-25.7,23.9c-0.9,14.4-11.3,43.5-11.3,43.5
	c13.9,0.9,29.6,13.9,29.6,13.9c15.2,7.4,15.2,28.3,15.2,28.3c9.6,34.4-10.9,96.6-10.9,96.6c2.6,7-2.6,34.8-2.6,34.8
	c3.5,3.5,4.4,12.2,4.4,12.2c10,3.9,11.8,13.9,11.8,13.9c9.1,1.3,10,7.8,10,7.8c17.8,3.9,20.9,12.6,20.9,12.6c10.9,3,10,8.3,10,8.3
	c10.9,8.3,8.3,26.5,8.3,26.5c16.5,8.3,7,11.8,7,11.8c6.1,1.3,17.8,12.6,17.8,12.6c10,10.9,2.2,16.5,2.2,16.5l5.7,7.8
	c10.9,12.2,4.8,30,4.8,30c3.5,9.6-2.2,17.8-2.2,17.8c-4.8,10.9-10,12.2-10,12.2l3,1.3c-2.6,11.3-9.1,12.6-9.1,12.6
	c-6.1,17-21.3,13.9-21.3,13.9c-0.4,1.3,2.2,3.9,2.2,3.9c-6.1,7-26.5,5.7-26.5,5.7c-0.9,6.1-9.6,14.8-9.6,14.8
	c-5.7,11.3-17,13.1-17,13.1c-16.5,7.4-35.7-3.1-35.7-3.1c-8.3,3.9-5.7-1.7-5.7-1.7c-7.4,2.2,5.7-12.2,5.7-12.2
	c3.5-7.4,14.4-6.5,14.4-6.5c4.8,0,3.5-4.8,3.5-4.8c-8.3,1.3-13.1-14.4-13.1-14.4c-8.3,3-11.3-10.4-11.3-10.4
	c-9.6,3.9-4.8-17.4-4.8-17.4c-7,10-7.8-2.2-7.8-2.2c-12.6,1.7-31.3-47-31.3-47c-7.4-2.2-11.3-17.8-11.3-17.8c-7.8-3-9.6-17-9.6-17
	c-8.3-0.4-10.4-17-10.4-17c-8.3-3.5-9.6-23.5-9.6-23.5c-5.7-4.4-8.3-31.3-8.3-31.3c-15.7-37.9-16.1-52.7-16.1-52.7
	c-6.5,1.3-17.4-11.8-17.4-11.8c-9.6,4.4-20-5.7-20-5.7c-8.3,3-16.1-3.5-16.1-3.5c-2.2,3.5-9.1,0-9.1,0
	c-51.8,64.4-149.3,53.1-149.3,53.1c-4.8,2.2-0.9,20.9-0.9,20.9c11.3,19.1-5.2,64-5.2,64c3.9,12.6-2.6,35.7-2.6,35.7
	c1.7,4.8-3.5,23.1-3.5,23.1c-0.9,23.1-15.7,34.4-15.7,34.4c0,16.1-20.5,28.7-20.5,28.7c-1.7,9.1-22.2,19.6-22.2,19.6
	c-4.8,3.5-8.3,17.8-8.3,17.8c-5.7,11.8-25.2,11.3-25.2,11.3c-9.1,3.9-29.2-3-29.2-3c-6.1,0.4-3.7-4.1-3.7-4.1c-6.2,1.3,1-7.2,1-7.2
	c1.7-11.3,18.4-13.1,18.4-13.1c-5.7,0.4-4.4-9.1-4.4-9.1c-6.1,0-3-20.5-3-20.5c-9.1,3.9-8.7-23.1-8.7-23.1
	c-9.1-8.3,1.2-22.2,1.2-22.2c-10,1.7-3-13.1-3-13.1c-8.3-4.8-1.9-15.7-1.9-15.7c2.9-4.8,4-29.2,4-29.2c-7,1.3-4-5.7-4-5.7l2.2-3.5
	c-7.8-0.4,4.1-19.3,4.1-19.3c-8.5-2.6-2.9-16.4-2.9-16.4c2.6-3.9,2.1-16.5,2.1-16.5c-4.4,0.4,2.2-18.3,2.2-18.3
	c-6.1-0.9-0.4-22.6-0.4-22.6c5.7-11.3,0.4-33.9-2.6-31.8s-9.6-13.1-9.6-13.1c-7.8,4.8-12.2-13.1-12.2-13.1c-3,5.2-8.3-22.9-8.3-22.9
	c-3.5-21.2,1.3-30.6,1.3-30.6l-4.8,3.9c2.6-31.3,20.5-54.4,20.5-54.4l-6.1,3c11.8-17.8,12.5-48.7,12.5-48.7
	c-3.6,0.9-2.5,5.7-2.5,5.7c-13.1-16.1-2.6-31.8-2.6-31.8c-4.8,3.9-13.1,0-13.1,0c9.6-4.8,8.7-20,8.7-20c-3,0.9-6.5,4.8-6.5,4.8
	c-3-14.4,13.1-31.3,13.1-31.3c-5.2,0-9.6,7-9.6,7c2.2-15.7,12.5-15.7,12.5-15.7c17.4-4.4,17.6-11.7,17.6-11.7
	c-4.4-6.2-17.6-8.7-17.6-8.7c-8.8-1.2-20.3-5.7-20.3-5.7c-3.9,1.7-13.1,1.7-13.1,1.7c-20.9,0-33.9-20.5-33.9-20.5
	c-7.9-7.4-7.8-15.7-7.8-15.7c-1.7-8.3,24.4-13.9,24.4-13.9c10.9-5.2,37-8.7,37-8.7c6.5-0.4,8.7-7.4,8.7-7.4l-9.1-5.2
	c-12.2,7-20.9-1.9-20.9-1.9c0.4-8.7,2.3-8.1,2.3-8.1h-4.5c2.2-7.3,9.1-13.3,9.1-13.3c-7.4,0-12.2-7.5-12.2-7.5
	c-12.6-12.2-3-21.4-3-21.4c9.1,10,9.6,2.6,9.6,2.6c-8.3-23.1,0-26.1,0-26.1c4.8-26.1,21.8-28.2,21.8-28.2l-2.2,7.9
	c7.8-10.2,11.3-7.6,11.3-7.6l-3.1,9.8c2.6-4.6,9.5-5.5,9.5-5.5C274.9,23.1,276.1,26.3,276.8,28.6c0.2,0.7,0.3,1.2,0.3,1.7"/>
</svg>
