<?xml version="1.0" encoding="utf-8"?>
<!-- Generator: Adobe Illustrator 18.0.0, SVG Export Plug-In . SVG Version: 6.00 Build 0)  -->
<!DOCTYPE svg PUBLIC "-//W3C//DTD SVG 1.1//EN" "http://www.w3.org/Graphics/SVG/1.1/DTD/svg11.dtd">
<svg version="1.1" id="Слой_1" xmlns="http://www.w3.org/2000/svg" xmlns:xlink="http://www.w3.org/1999/xlink" x="0px" y="0px"
	 viewBox="98.5 0 860.5 768" enable-background="new 98.5 0 860.5 768" xml:space="preserve">
<path fill="#000000"      d="
	M956.5,710c0,0-23.2-69.1-33.2-82.8c0,0-2.1-4.2-5.8-22.2c0,0-0.6-15.8-21.1-28c-16.9-10-22.2-31.7-22.2-31.7
	c-6.9-15.8-3.2-42.7-3.2-42.7l4.7,0.6c-5.4-3.7-5.4-10.7-5.4-10.7l8.5,3.2c-10.6-13.7-13.7-29-13.7-29l7.9,1.6
	c-7.9-1.6-13.7-14.8-13.7-14.8l7.4,3.7c-7.4-3.7-10-26.9-10-26.9c1.6-22.2-5.8-54.9-5.8-54.9c-2.1-30.1-25.8-50.6-25.8-50.6l8.4,1.3
	c-8.4-1.1-25.1-23.4-25.1-23.4h3.3c-8.2-10.9,0-31.1,0-31.1l-3.5,2.3l3.5-12.8l-4.3,6.2c10.5-22.2-3.4-55.2-3.4-55.2v16.1
	c-1.1-11.6-14.2-39.1-14.2-39.1v7.9c-27.3-46.9-69.9-38-69.9-38c6.3-0.7,17.5,10.1,17.5,10.1c-23.7-9.4-44.2,0.9-44.2,0.9
	c15.8-2.7,16.9,1.7,16.9,1.7c-23.2-4.7-52.2,21.1-52.2,21.1l11.8-4.7c-10.2,6-18.2,24.9-21.4,33.3c3.4-5.1,11.7-7.5,11.7-7.5
	c-4.7,1.6-13.7,19.6-13.7,19.6c4.7-7.3,30.6-7.5,30.6-7.5l-5.3,7.5l13.7-6.9l-4.7,6.9l4.7-3.2c-2.1,2.6,0,10.5,0,10.5
	c-20.6-9.5-77.5-4.2-77.5-4.2l6.3-3.1c-2.5-0.4-5.8-0.6-9.5-0.5c-30.4,0.2-94.1,12.6-94.1,12.6l3.4-4.7c-6.9,6.3-35.3,9-35.3,9
	l6.3-4.2c-26.4,5.3-27.4-6.3-27.4-6.3c3.7-1.6,7.9,0,7.9,0c-1.7-2-4.4-3.8-7.4-5.3c-7.3-3.7-16.3-5.8-16.3-5.8
	c4.2-3.7,9.5-2.6,9.5-2.6c-8.4-7.9-17.9-2.8-17.9-2.8c3.2-4.9,8.4-5.1,8.4-5.1c-5.3-2.1-25.9,5.2-25.9,5.2
	c-7.8,1.3-13.2,5.1-13.2,5.1c-7.4-5.8-20.6-5.6-20.6-5.6c3.1-1.6-0.4-8.4-0.4-8.4l4.7,3.2c0.4-1.4-0.1-3.7-1.1-6.3
	c-2.7-7.6-9-18-9-18l3.7,3.2c-2.1-16.9-27.9-59.7-27.9-59.7s-4.5-78.5-39.3-91.7c0,0-8.9-4.7-17.8-17.9c0,0-9.4-10.5-20-11.1
	c0,0-7.4-8.4-25.8-6.3c0,0-7.4-1.1-12.1-4.2c0,0-6.9-2.8-16.9,0c0,0-17.4,0.5-23.2,9.5c0,0-14.2-1.6-19.5,4.2c0,0-11.1-2.2-16.4,2.1
	c0,0-20.6,3.2-29.5,20.6c0,0-2.6,2.6-5.3,7.9c0,0-17.9-16.9-15.3,2.1c0,0-1.1,17.4,3.7,22.2c0,0-14.2,2.1-15.3,14.2
	c0,0-6.8,20,19.6,51.2c0,0,12.6,19,17.9,23.7c0,0,4.7,21.1,13.7,28c0,0,11.1,13.2,10.5,33.8c0,0-2.6,39,16.9,68c0,0-5.3,59.1,0,71.2
	c0,0,2.1,10.4-9,14.7l5.5,1.1c0,0-4.4,3.2-9.7,2.6c0,0,6.3,5.3,9,3.7c0,0-1.6,4.9-9,1.5c0,0,1.1,11.2,11.7,17.8h-7.4
	c0,0,31.1,24.7,30.6,40.6c0,0,14.8,31,30.6,38.9c0,0,2.6,61.1,11.1,75.4c0,0,5.3,27.9,0.5,48c0,0-5.8,17.4,4.7,33.2
	c0,0,0,16.9-2.6,20.6c0,0-5.8,10.5-5.8,16.9c0,0-12.1-2.6-23.2,7.4c0,0-12.7,10.5-12.7,19c0,0-7.9,12.7,0,6.9c0,0,5.8,4.7,8.4,4.7
	c0,0-2.6,9,5.8,2.1c0,0,16.9,4.6,24.8,2.6c0,0-10.2,3.2-15.9,11.7c0,0-13.6,4.7-11.5,16.9c0,0-7.9,12.7,2.6,6.3
	c0,0-2.6,15.3,11.1,4.7c0,0,11.1,6.9,17.4,0c0,0-2.1,10.1,7.9,3.7c0,0,29.5,2.6,40.1-11.1c0,0,9-3.7,13.2-24.3c0,0,4.2-16.9,5.3-19
	l1.6,6.3c0,0,3.7-14.8,3.7-17.9c0-3.2,2.6,5.3,2.6,5.3s9.5-27.4,9.5-45.9l4.2,2.6l-1.6-10.6l4.2,4.7c0,0,1.1-24.8,0-30.1l4.2,4.2
	l4.7-45.4l2.6,5.3c0,0-1.4-25.3,4.8-45.4c0,0,84.3,22.1,156.3,7.3l-5.5-5.2c0,0,7.9,5.3,23.7,4.8l-2.6-5.8c0,0,10.3,7.5,14,7.5
	l4.2-5.1v4.5l9.6-5.3l-4.2,5.3c10-2.1,20.2-8.8,20.2-8.8l-3.2,6.7c12.8-12.3,12.8-12.3,12.8-12.3l-6.2,10.2
	c23.2-14.8,42-28.6,42-28.6v5.4c25.1-29,82-28.2,82-28.2s21.8,48.8,86.1,84.6c0,0,33.8,25.8,39.6,58c0,0-7.9,29-7.9,30.6
	c0,0-36.4-5.3-36.9,19c0,0-4.7,16.9,1.6,11.6l6.9,3.7c0,0,1.6,14.2,8.4,3.2c0,0,9.5,5.3,16.9,1.6c0,0,19.5,5.3,28.5-2.1
	c0,0,14.8-1.6,19.5-16.4l3.2-9l3.7-29c0,0,11.1,4.2,20,14.2c0,0,29.5,32.2,21.6,49.6c0,0-17.4-2.1-23.7,20c0,0-2.6,9.5,2.6,11.1
	c0,0,0,13.7,8.4,3.7c0,0,4.2,2.6,9.5,1.6c0,0-1.1,13.2,7.4,3.2c0,0,16.4,11.1,33.2-5.3l9-8.4C952.8,741.7,963.8,738,956.5,710z
	 M752.3,243.9h-13.7c0,0,4.5-5,5.8-9.9c0,0-10.5,7.2-20.6,5.1c0,0,7.5-1,9.8-5.3c0,0-11.4,6.4-15.1-2.4c0,0,7.4-17.5,29,0.2
	C747.5,231.6,754.9,240.6,752.3,243.9z"/>
</svg>
