<?xml version="1.0" encoding="utf-8"?>
<!-- Generator: Adobe Illustrator 18.0.0, SVG Export Plug-In . SVG Version: 6.00 Build 0)  -->
<!DOCTYPE svg PUBLIC "-//W3C//DTD SVG 1.1//EN" "http://www.w3.org/Graphics/SVG/1.1/DTD/svg11.dtd">
<svg version="1.1" id="Слой_1" xmlns="http://www.w3.org/2000/svg" xmlns:xlink="http://www.w3.org/1999/xlink" x="0px" y="0px"
	 viewBox="255.5 -33.3 768 801.3" enable-background="new 255.5 -33.3 768 801.3" xml:space="preserve">
<path fill="#000000"      d="
	M1007.3,118.1l2.4-1.9l-8.7-1.3v-4.2l-3.6,2.3c2.3-1.9,1.8-6,1.8-6l-4.9,2.4v-3.8c-1.1,1.4-6.7,2.7-6.7,2.7v-2.9
	c-15.6,2.8-18.2-11.5-21.5-14.8c-3.2-3.2,0.4-11.6,0.4-11.6c-2.3-0.5-4.5,7.9-4.5,7.9c-2.3-6,1.6-14.4,1.6-14.4
	c-3.6,1.9-7.3,10.1-7.3,10.1v-4.5c-2.2-11.1,3.3-15.3,3.3-15.3l-5.3,4.2c0.5-8.8,10-11.6,10-11.6c-6.5-2.8-13.3,2.4-13.3,2.4
	s0.8-12.2,4.1-15.9c0,0-7.8,3.1-7,7.8l-4.1-11.5v6.6c0,0-17.1-19.6-29.2-20.9c0,0,9.2,4.6,9.2,11.1c0,0-23-24.6-30.4-26
	c0,0,6.7,6.4,4.4,7.4c0,0-10.2-8.7-15.8-8.7c0,0-12-26.5-24.1-25.5c0,0,10.7,4.2,10.2,18.6c0,0-4.2-11.6-10.2-11.6
	c0,0,2.8,5.6,2.8,8.8c0,0-8.4-7.4-16.2-4.2c0,0,8.8,3.7,8.8,6c0,0-7.4-1.4-12.1-0.5c0,0,14.9,4.2,9.7,11.1c0,0-16.2-3.7-16.7-15.3
	c0,0-1.4,11.1,1.9,13.9c0,0-16.8-14.4-26.1-11.6c0,0,7.9,2.9,8.4,8.9c0,0-7-4.2-12.1-4.2l5.1,6.5c0,0-7.9-0.8-11.1,2.7
	c0,0,7.7,0.3,12.6,5.6c0,0-17.2,3.2-27.9,17.6c0,0,8.4-7.9,13.9-5.1c0,0-32,22.3-38.1,38.1c0,0-4,7-20.6,14.4
	c-2.1,0.9-4.3,1.9-6.8,2.8l9.3,0.5c0,0-32,16.7-44.1,33.4c0,0,10.2-8.4,13.9-7c0,0-32.5,21.4-36.2,32l12.5-8.4
	c0,0-20.4,18.1-23.2,22.7l10.2-3.7c0,0-13.4,10.7-14.8,13.9c0,0-36.4-2.9-45.6,5.9c-0.5,0.5-0.9,1-1.3,1.5
	c-6.5,10.7-64.6-11.9-81.8-14.7c0,0-58.9-27.6-96-16.9c0,0-66.4,9.7-78.5,30.2l8.8-4.2c0,0-35.7,31.1-35.7,46.9
	c0,0-13.9,15.8-14.9,24.1l5.7-5.6c0,0-11.5,22.6-16.3,39.3c-6.3,10.8-11.5,23.5-9.6,34.1c0,0,2.7-2.6,2,3.8c0,0-17.7,21.6-17.7,32.9
	c0,0-4.7,9.8-11.8,25.2c0,0-17.7,31.3,0,60.2l2.1-7.1c0,0,0.7,13.4,7.1,16.9l0.7-7.8l2.8,3.5c0,0,26.8-24,30.4-38.1l-3.5,14.1
	c0,0,3.3-4.2,8.2-11.1c0.8,8.1,1.2,13.5,1,14.6l3.2-5.6c0,0,2.8,12.5-2.3,24.6l6-5.6c0,0-0.9,16.2-4.6,19.5l6-4.6
	c0,0-6.7,20.4-3.6,29.2l2.6-7.9c0,0-0.9,28.3,1.4,35.3c0,0,3.2,14.9-0.9,20l4.6-2.3c0,0-3.7,30.2-5.6,34.4l4.2-5.6
	c0,0-5.7,33.4-6.3,34.8c-0.6,1.4,3.6-4.6,3.6-4.6s-3.4,27.9-3.6,37.6l2.6-5.6c0,0-4.3,32.5-2.6,38.1l3.1-6c0,0-2,24.1-3.1,27.9
	c0,0-16.4,33,11.9,29.2c0,0,11.6,9.7,22.3,0.3c0,0,16.2,6.7,22.3-4.9c0,0,9.7-7.4,0.9-17.2c0,0-12.1-20-13-53.8l2.8,2.8
	c0,0-4.2-28.3-1.9-39.9l2.3,3.7l8.4-63.1c0,0,13.9-66.9,14.4-85.7l1.4,14.7c0,0,9.7-50.6,11.1-67.8c0,0,20.8,20.5,22.7,34.6L428,412
	c0,0,10.2,33.9-6,55.7c0,0-21.4,27.9-28.8,33c0,0-23.7,14.9-10.4,36.7c0,0,19.6,52.9,24.1,55.7v-4.1c0,0,7.8,7.8,10.6,16.6
	c0,0,13.4,41.3,19.9,41.8l-0.7-5.1c0,0,25.6,32,53,15.3c0,0,9.8,0,11.7-6c0,0,3.7-10.7-8.3-19c0,0,0.9-8.4-20.9-12
	c0,0-31.1-26.5-30.6-57.2l0.5-10.7l1.9,5.1l3.3-24.6l2.8,7c0,0,2.8-19,13-30.6l-0.9,7.9c0,0,13.9-24.1,28.3-35.7l-1.4,5.1
	c0,0,17.6-16.7,19-24.1l-1.9,10.7c0,0,20-20,18.1-38.1l4.2,5.8l0.9-10.4c0,0,8.4,9.7,13.5,13l-1.9-8.9c0,0,14.9,9.4,16.2,9.8
	l6.5,5.6l-7.4-2.3c0,0,10.2,13.5,13.9,14.4l-7.9-1.9l5.1,14.9c0,0,4.2,6.5,6.5,20.9l-4.6-4.6c0,0-0.9,11.1,1.9,14.4l-7.9-7l5.6,14.9
	l-4.2-3.2c0,0,1.4,10.2,3.2,12.1c-0.7-0.7-1.9-1.9-1.9-1.9s0.5,12.3,6.5,18.4l-5.6-4c0,0,4.6,20.4,7.9,23.2l-5.6-3.3l7,16.7l3.5,32
	c0.5,3.2-4.9,16.7-4.9,16.7l4.2-3.7c0,9.3-10.7,27.9-10.7,27.9c5.1-1.4,8.8-8.4,8.8-8.4c-0.5,10.2-7,26.9-7,26.9l3.7-1.9
	c-0.5,3.3-3.2,16.7-3.2,16.7l4.6-5.1c-0.9,4.6-4.6,14.4-4.6,14.4l4.2-2.3c-0.9,9.3-7,31.6-7,31.6l6-9.8c-0.9,8.4-7.8,24.7-7.8,24.7
	h3.2c-14.9,21.1,4.6,26.9,4.6,26.9c13.9,13.9,28.4,7.1,28.4,7.1c27.8,1.4,24.3-11,24.3-11c5.6,2.3,8.6-2,8.6-2
	c6.5-13.5-3.7-24.7-3.7-24.7c-2.3-7.9-2.3-36.2-2.3-36.2c0.9-13-2.6-35.8-2.6-35.8l3.1,4.2c0.9-9.7-3.1-40.9-3.1-40.9l4,6.5
	l-3.2-26.9c-4.2-16.7,10.8-87.7,10.8-87.7c1.9-14.9,9.3-27.4,9.3-27.4c10.7-6.5,43.3-37.1,43.3-37.1s0.1,6-1.4,9.2
	c3.5-3.2,10.2-9.6,10.5-12.6l-0.8,8.4c0,0,6.2-7.4,8.5-10.7v6.9l10-10.1c0,0,6.9,19,0.4,30.6l6.2-4.6c0,0-8.3,31.1-3.6,45.5
	c0,0,1-16.2,3.8-15.8c0,0,1.8,42.6-2.7,50.8l5.1-7.6c0,0-3,29.1-6.2,34.4l6.2-8.8c0,0,3.6,21.8-3.3,36.7l6.4-2.3
	c0,0-1.2,23.2-7.3,30.2l7.3-7.9c0,0,2.5,20.4-4.5,29.2c0,0,5.6-1.4,7-8.8c0,0,1.9,27.9-5.6,34.4c0,0,8.4-7.4,9.7-10.7
	c0,0-0.5,38.1,7,41.8c0,0,5.1,1.4,7,9.7c0,0-5.1,33,39.9,26.9c0,0,10.7,6,9.3-1.4c0,0,7.4,1.4,13-2.3c0,0,9.4,4.6,8-0.9l5.5-2.3
	c0,0,7,3.3,3.2-9.7c0,0-4.2-19.4-29.7-23.6c0,0-1.4-4.7-9.7-11.7c0,0-9.3-24.6-7.4-35.7l3.7,3.7c0,0-5.6-20-3.7-26.5l2.8,3.7
	c0,0-2.8-52.5-3.7-62.2l3.2,10.2l-1.9-41.8c0,0,7.4-67.3,3.3-84.5c0,0,4.2,9.3,7.4,8.8c0,0-6-8.8-2.3-26.9l3.7,16.1
	c0,0-0.5-35.1,1.9-38.8c0,0,17.2-65.9,7-84.9c0,0,5.6,10.7,6.5,12.1c0.9,1.4,0.9,1.4,0.9,1.4s-5.6-22.2-6.1-25.5l4.6,7.1
	c0,0-1-23.4,1.3-32.7l4.8,3.2l-1.4-12.1l4.6,10.2c-6-13.9,7.9-30.2,7.9-30.2l5.1,9.3c-5.1-13,6-25.5,6-25.5l0.8,7.9
	c2.8-15.8,12.2-21.8,12.2-21.8c-0.9,5.6,0.9,12.1,0.9,12.1c4.2-24.1,17.6-26.5,17.6-26.5l-4.2,13c4.2-13,18.1-20.9,18.1-20.9
	l-3.5,9.1c2.6-6,16.9-13.8,16.9-13.8l-7,7.4c3.7-3.2,20-10.7,20-10.7l-0.9,8.4c1.9-5.1,10.7-8.8,10.7-8.8l-4.2,7
	c0.9-2.3,10.7-6,10.7-6l-0.9,3.2c6.6,0.7,8.5,0.7,9.1,0.3l-2.2,4.2h6.6l-4.6,5.9c5.1-0.5,24.1-12.3,24.1-12.3
	c-0.9,4.6-8.4,10-8.4,10c6.5,0.5,20.9-10.8,20.9-10.8c0.5,3.7-3.7,7.4-3.7,7.4c10.2-1.9,17.6-15.8,17.6-15.8
	c0.9,1.4-3.7,10.7-3.7,10.7c7-2.3,13.9-20,13.9-20c2.8,1.4-1.4,10.7-1.4,10.7c4.2-4.2,7.9-17.6,7.9-17.6c5.1-2.8,6-12.5,6-12.5
	c12.5-6,11.1-16.2,11.1-16.2c2.3-3.2,5.1-17.2,5.1-17.2C1027.3,121.8,1007.3,118.1,1007.3,118.1z"/>
</svg>
