<?xml version="1.0" encoding="utf-8"?>
<!-- Generator: Adobe Illustrator 18.0.0, SVG Export Plug-In . SVG Version: 6.00 Build 0)  -->
<!DOCTYPE svg PUBLIC "-//W3C//DTD SVG 1.1//EN" "http://www.w3.org/Graphics/SVG/1.1/DTD/svg11.dtd">
<svg version="1.1" id="Слой_1" xmlns="http://www.w3.org/2000/svg" xmlns:xlink="http://www.w3.org/1999/xlink" x="0px" y="0px"
	 viewBox="168.8 0 855.3 768" enable-background="new 168.8 0 855.3 768" xml:space="preserve">
<path fill="#000000"      d="
	M848.9,85.5c0,0,0.7-10.5,14.6-32.1c0,0,0-10.8,14.3-21.6c0,0,2.1,1.4,2.4-9.4c0,0-0.3-4.9,2.8-5.2c0,0,3.1-3.1,2.1-10.8
	c0,0,2.4-8.7,10.8,0c0,0,11.5,13.2,8.7,25.4c0,0,1,21.6,10.8,27.2c0,0,5.6-16,19.2-18.8c0,0,2.8-2.1,2.8-5.6c0,0,7.3-18,7.7-6.2
	c0,0-0.3,6.2,0,9.3c0,0,0.7,5.2-7.3,13.2c0,0-3.8,11.8,2.1,20.6c0,0,5.2,9.1,26.1,21.9c0,0,8.4,7.3,13.2,16.4c0,0,5.2,8.8,8,10.2
	c0,0,7.3,3.8,0,24c0,0,5.6,9.4,16.4,11.5c0,0,19.2-0.7,11.5,17.1l-2.1,8.4c0,0,5.4,6.3,3.9,15.3c0,0-0.1,6.3,1.7,8.7
	c0,0,4.2,6.3-1.7,17.1c0,0-2.1,3.5-12.5,8.7c0,0-8.4,3.5-10.5,7.3c0,0-10.5,7.3-12.2,2.4c0,0-8.7,14.3-15.3,7c0,0-9.8-2.8-9.1-5.6
	c0,0-4.2-2.1-12.2,2.1c0,0-13.6,8.4-22.3-20.6c0,0-1.7-5.2-18.5-4.5c0,0-10.1,2.8-18.1,4.2c0,0-11.1,0.3-13.6,18.1
	c0,0,1.7,8-11.8,22.3c0,0-6.3,10.8-7.3,21.9c0,0-0.3,5.6-4.5,19.2c0,0,4.9,34.1-3.5,42.9c0,0-1,27.2,2.1,51.9c0,0,2.4,9.1-5.6,23.7
	c0,0-7,11.5-6.3,20.6c0,0-0.7,10.8-13.6,18.1c0,0-12.3,9.8-16.1,41.1c0,0-6.6,27.2-13.5,41.5c0,0-4.9,10.1-5.6,31
	c0,0-5.9,42.2-11.5,53.6c0,0-4.2,24.4,0,34.8c0,0,12.9,22.3,12.5,33.8c0,0,1.7,2.4,4.5,3.8c0,0,13.6-2.1,16.4,0
	c0,0,11.5,14.3,11.1,18.8c0,0-0.7,9.1-6.6,11.8c0,0-13.6,3.5-16.7,0c0,0-19.5,6.6-26.5,1.5c0,0-12.2-6.8-16.7-14.4
	c0,0-2.8-9.8,0-19.5c0,0-3.1-12.5-5.6-18.8c0,0-6.6-9.4-7.3-17.1c0,0-10.8-0.7-9.1-8.4c0,0-10.1,33.4-5.6,49.1
	c0,0,2.4,10.1,2.8,15.7c0,0,2.8,7.3,16,11.8c0,0,12.5,5.2,11.1,21.3c0,0-3.1,5.9-6.3,5.6c0,0-8.4,12.5-28.9,3.1
	c0,0-20.2,4.2-28.2-9.4c0,0-2.4-8.7,0-21.6c0,0-7-24.4-3.8-38.3c0,0,2.4-10.8-6.3-10.8c0,0-7-5.2,2.1-26.1c0,0,8-32.7,8.4-51.6
	c0,0,3.8-52.3,5.6-62.7c0,0,1-30.7-0.7-35.2c0,0-1-10.8,2.4-18.5c0,0-7-9.1-7.7-12.2c0,0-40.1,2.1-83.6-17.4c0,0-64.1-23.7-90.9-5.6
	c0,0,9.8,19.9-18.8,15.3l-9.1-2.8c0,0,8.7,25.4-26.8,53.3c0,0-59.2,51.2-56.1,73.5c0,0-0.3,66.5,25.4,70.4c0,0,18.5-6.6,26.8,15
	c0,0,4.2,10.5-5.6,12.5c0,0-4.9,6.3-17.8,3.1c0,0-24.4,7-38.3-4.5c0,0-6.3-12.2-6.3-19.5c0,0-4.9-23.7-13.6-39.4
	c0,0-24-43.9-11.8-51.9c0,0,27.5-30,30-46c0,0,0-36.9,1.4-39c0,0-4.9-10.5-4.5-13.2c0,0-8.7,8-10.5,9.4c0,0-7.9,20.1-24.3,35.9
	c0,0-25.8,34.8-46.4,37.6c0,0-61.3,43.2-70.7,66.5c0,0-27.5,61.3-11.8,77.7c0,0,15.7,8.7,4.5,23.3c0,0-3.8,1-6.6,0
	c0,0-2.8,13.9-20.3,7c0,0-12.4,8.7-19.7-3.8c0,0-12.2,3.1-11.8-7c0,0-2.4-12.5,10.5-22.6c0,0,6.6-22.6,10.1-33.1
	c0,0,3.8-20.6,11.8-30.7c0,0,0.7-10.8,1.4-19.5c0,0,3.5-10.4,6.3-13.9c0,0,1-7,1.7-15c0,0,1.7-6.6,12.9-9.1c0,0,43.2-40.1,54-61.7
	c0,0,9.4-54,15.7-71.1c0,0-3.1-98.2,33.4-120.5c0,0-16.4,3.1-24.4-3.8c0,0-6.6-17.1,11.5-19.2c0,0,36.6-7.7,51.2-24.4
	c0,0,17.4-16.7,70.7-19.9c0,0,62-5.2,75.2-6.3c0,0,117.4-23.7,129.2-24.4c0,0,13.2-12.2,37.6-11.5c0,0,33.4-8,46.3-18.8
	c0,0,61-73.5,67.9-79.4C798.4,121.3,815.8,100.4,848.9,85.5z"/>
</svg>
