<?xml version="1.0" encoding="utf-8"?>
<!-- Generator: Adobe Illustrator 18.0.0, SVG Export Plug-In . SVG Version: 6.00 Build 0)  -->
<!DOCTYPE svg PUBLIC "-//W3C//DTD SVG 1.1//EN" "http://www.w3.org/Graphics/SVG/1.1/DTD/svg11.dtd">
<svg version="1.1" id="Слой_2" xmlns="http://www.w3.org/2000/svg" xmlns:xlink="http://www.w3.org/1999/xlink" x="0px" y="0px"
	 viewBox="317 0 1273 1200" enable-background="new 317 0 1273 1200" xml:space="preserve">
<path fill="#000000"    d="M1566.1,1038.9c5.2,4.2,9.7,8.5,15.4,11.9
	c-4.5-7.6-10.4-12.6-12.8-20.9c-1.7-6.5-7.3-10.7-10.7-16.8c6.5,5.6,10.4,13.4,19.2,17.6c0.8-3.8-5.1-5.4-6.6-10
	c1.8,2.5,7.5,5.4,10.2,6.6c-4.7-0.1-7.6-5.9-9.5-11c5.8,5.1,12.8,4.8,19.1,8.5c-4.1,0-14.7-9.9-16.9-13.6c2.8,1.1,4.7,4.9,7.6,5.5
	c3.4,0.6,7.6-0.3,11.2,0c-3.8-2.3-13.6-6.2-17.5-8.3c3.7,1,13.4,4.5,16.8,2.7c-2.8-1.6-6.4-1.3-8.9-2.5c-3-1.6-5.2-4.4-7.6-6.4
	c-4.8-4.1-6.8-8.8-7.9-14.8c-1.7-8.9-5.4-23.9-13.8-28.7c4.4,1.3,9.6,6.2,13.7,6.6c-3-4.4-9-6.8-11.3-11.7
	c7.9,3.5,13.1,11.9,22.6,13.7c-5.9-4.5-11.7-12.6-15.5-19.1c8.2,6.4,17.9,13.4,25.3,20.6c-6.2-10.3-18.8-17.1-24.8-28
	c5.5,6.4,14.1,9.5,20.3,15.1c-1.4-4.4-7.6-7.6-10-11.3c5.6,4.5,11.9,10.4,18.8,13.1c-2.7-4.9-6.6-9-10.4-13.1
	c-2.7-3.1-10-9.2-10.2-13c3.8,0.7,7.8,1.8,8.6,4.8c-4.4-3.4-10.9-4.1-15.4-7.6c8.3,3,21,6.4,28.4,0.3c-7.9,4-21.2-2.1-28.5-5.5
	c8,0.6,13.4,5.4,21.3,2.7c-7.3-0.4-13.3-7.3-18.9-11.4c-5.4-3.8-11.9-5.4-17.2-8.8c5.2,0.6,10.4,4.2,15.4,6.1
	c0.1-7.3-15.1-8.6-19.6-11.3c2-1.7,8.2-2,8.9-1.7c-3-2-7.5-2.7-9.9-5.2c3-0.3,6.2,0,9.3-0.3c-4.2-2.4-10.7-2.3-15.7-5.6
	c-5.4-3.7-9-9.9-11.3-15.7c5.6,2.7,11,5.1,16.4,8c-1.1-6.1-11.7-9.6-12-14.4c4.7,2.1,10.2,5.4,13.8,9.2
	c-0.3-9.6-15.2-10.2-18.9-17.9c2.4,2.3,15.2,8.9,18.6,8.6c-4.1-3.7-8.8-4-12.6-8.2c-4.1-4.4-7.1-9.9-7.9-14.5
	c3.7,5.2,7.8,11,12.1,16.2c-2.7-9.5-12.3-19.6-12.1-29.4c3.8,3.1,8.9,7.9,11.7,12.1c-0.7-5.6-4.8-9.2-7.5-14c-1.7-3-5.4-5.8-5.4-9.3
	c4.4,6.1,12.4,10.7,19.1,13.6c-6.2-5.8-11.9-6.2-15.7-14.5c-2.5-5.4-6.8-13.4-7.8-19.2c1.7,3.5,4.7,7.6,7.2,10.9
	c-2.8-6.8-4.9-14-7.9-20.6c2.3,1.4,4.2,6.6,6.8,8.3c-1.4-6.8-4.8-12.4-6.1-18.6c3.1,6.4,7.1,12.8,11.4,16.9c-3-7.9-5.5-16.1-10.6-23
	c4,3.5,6.6,9.3,11.2,12c-2.8-6.2-6.1-10.9-8.2-15.8c-2.3-5.2-7.6-11.6-7.9-17.2c2.3,2.7,2.8,8,6.1,9.9c-1.7-7.9-4.8-15.1-8.6-22.2
	c4.2,3.7,5.8,10.3,10.3,13.6c-1.6-6.6-3.7-13.3-5.9-19.8c0.6,0.7-3-7.5-3.4-13.1c3.7,4.2,8.8,7.3,12.1,11.7
	c-3.2-10.2-10.9-19.2-13.1-30.2c2,1.8,2.7,5.2,5.2,7.5c-1.3-4.9-8.9-17.8-5.2-22.2c0.4,1.7,1.4,2.8,2.5,3.8
	c-2.3-5.2-0.4-12.4-4.1-17.2c2.8,0,5.2,3.4,6.9,5.6c-0.7-9.5-9.7-16.1-8.6-26.7c4.7,3,7.9,8.5,12.8,11.9c-3.4-4.1-13.1-14-10.6-18.8
	c1.1,2.5,2.7,6.2,5.6,7.2c-1-3.2-3.7-7.2-4.5-10.6c2.1,1.7,3.5,8,6.9,8.5c-1.8-2.7-4.9-12.7-3.8-14.5c1.1,2,2.3,4,3.8,5.8
	c-1.4-4.8-2-9.6-3.8-14.5c-1.8-5.2-4.9-10-4.9-15.5c2.5-0.6,12.8,11,18.8,14c-3.8-5.4-18.4-15.4-19.1-23.4c3.7,4.1,7.9,9.3,13,11.7
	c-4-6.8-13-16.9-12-24.8c3.4,5.2,9.5,11.7,12.3,16c-1.8-8-7.9-12.4-11.2-18.8c7.1,2.4,12.7,11.7,18.1,17.1
	c-3.7-6.8-7.3-14.1-14.8-17.4c1.3-0.7,3.8-0.1,5.8-0.7c-3-2.4-6.9-4.1-9.3-6.8c7.8-1,15.1,4.7,19.2,10.9c0-3.4-2.5-5.2-4.5-7.6
	c-1-1.3-8.9-7.1-11.9-8.9c2.4,2,7.9,1.1,11,0.7c-4-1.4-8-2.7-11.9-5.9c1.8,1.4,3.1-0.1,4.7,0.1c-7.6-4.4-13.8-14.3-19.6-21.9
	c-4.8-6.4-16.7-21.5-23.9-22.7c0,0-1-5.6-1.4-6.2c1.6,0.4,3.5,0.4,4.8,0.7c-2.3-1.7-5.8-2.4-8.3-4.2c2.3,0,4.4,0.1,6.6-0.1
	c-1.6-2.4-6.5-4.5-9.2-5.6c2.5,2.4,19.3,7.3,19.6,2.5c-6.8,0-21-8-25.7-12.6c3.1-0.1,9.9,1,12.6,2.7c-3.7-4.7-15.4-6.2-18.1-11.3
	c6.1,1.8,11,6.6,17.4,7.6c-5.8-2.7-18.5-9-21-16.1c5.4,2.3,16.4,7.8,22.4,9.3c-1.7-4.1-30.5-18.1-27.2-23.6
	c2.1,3.5,12.8,8.5,17.1,8.5c-3.7-3.4-10.4-3.4-13.8-9.3c8.3,2.3,18.6,8.6,26.7,11.3c-5.2-10-15-10-23-16c7.5-0.3,13.7,4.9,21.3,4.2
	c-2.5-3.1-11.2-7.1-16.9-9.5c3.8-1.6,6.8-0.8,10-1.1c-0.3-3.1-11.6-3.8-15-4c1.4-2.8,16-0.7,19.2,0.7c-4.5-8.8-14.1-5.6-22.3-6.4
	c0-8,13.3-9,19.1-9.6c0.3-0.4-7.5,0.8-11.2,0c2.1-3.5,9-2.8,9.5-6.6c-4.7-0.4-8.5,1.1-12.7,1.6c3.5-5.4,14.5-6.8,19.8-5.2
	c-4.1-7.2-11.3,1.7-16.2-1.4c6.6-4,11.7-7.1,19.6-7.3c-5.6-5.1-12.3,2.5-17.9,2.7c0.3-8,16.9-13,18.2-14.5
	c-5.1-0.6-8.3,1.1-12.7,2.4c1.6-2.5,4-4.2,7.3-5.1c-3.2-0.4-5.9,1-9,0.7c2.7-3.5,6.9-5.9,9.3-9.3c-3.5,1-9.2,5.2-12.1,3.7
	c8-3,8.8-13.4,14.4-18.6c-2.7,4.7-7.8,6.8-12,10.3c1.6-4,3.7-7.8,5.2-11.9c-3.4,2-5.5,6.6-8.6,8.5c0.1-7.6,3.8-13.6,8.9-19.5
	c-4.4,2.4-9.3,12.1-12.8,15.2c1.4-8.2,7.1-12.8,7.3-20c-2,3.1-5.6,5.6-8.6,8.5c3-5.9,6.5-10.7,7.8-16.9c-3,1.1-7.1,2.8-9.5,4.7
	c3.7-5.8,8.9-12.1,10.6-18.6c-3.2,4.1-13,12.8-15.1,14.5c0.4-7.9,4.5-11.7,8-18.9c-1.1,1.3-6.4,3.8-7.8,4.5
	c-0.1-4.4,8.9-10.6,11-14.3c-2.7,1.3-5.4,3.2-8,4.4c3.4-6.5,9.6-9.9,11-14.8c-4.5,3.1-8.9,10.6-14.4,12.1c1.4-2.7,5.1-4.5,4.8-7.6
	c-0.8,1-1.8,1.8-2.5,3c2.1-2.4,4.9-6.9,4.2-10c-1.1,1-2.8,2.4-4.1,3.2c1.6-3.8,7.1-7.2,7.6-11.2c-3.7,1.1-7.9,7.3-11,6.8
	c4-5.9,15.1-11.7,16.2-18.9c-4.4-0.8-7.5,4.4-11.2,5.8c3-4.5,10.2-10.4,10.4-16.1c-4,2.5-7.1,7.5-11.6,9.7
	c4.5-5.8,9.2-11.6,13.1-17.8c-2.3,0.3-3.5,2.1-5.2,4c1.4-9.7,7.2-18.2,14.7-25.1c-6.1-1.1-9.9,6.9-13.6,10.3
	c0.6-2.5,2.3-5.4,2.5-8.2c-1.7,1.4-3.5,4.9-6.2,4.9c2.4-7.6,10.7-17.9,17.4-21.2c-5.1-3.7-11.6,4.9-14,8.6
	c0.6-7.6,8.6-14.1,11.3-20.6c-5.9,0.7-10.2,11.4-12.8,15.5c-1.3-7.6,5.1-18.1,8.6-24.8c-2.4-0.3-3.7,1.6-4.4,2.8
	c1.1-7.2,4-15.8,8.8-21.5c-2.5,0.6-3.8,2.7-5.2,4.8c0.6-4.8,16.5-32,19.1-36.3c3.4-5.6,11.4-13.7,12.7-19.9
	c-2.3,1.3-9.2,7.2-11.4,8.3c1.8-5.9,11-14.4,14.5-19.1c-2.7,1.6-5.9,3.7-8.5,5.1c1.4-5.9,9.7-9.7,10.6-15.4
	c-3.2,1.7-7.8,3.8-11.4,4.9c2.1-4.1,5.6-7.5,9.2-10.4c-5.1,2.5-9.2,8-14.4,6.9c0.1-2,1.6-3.7,3-5.2c-4.4,2.5-9.3,8-14.4,8.8
	c0.7-2.5,5.1-10.4,5.1-10.4c-4.4,2.7-7.6,6.9-12.1,9.3c-0.1-4,4-7.1,6.5-11.2c-3.7,2.1-7.8,4-11,6.9c-3.1,2.8-5.4,7.3-8.6,9.7
	c0.1-4.2,4.1-9.6,5.9-13.7c-4.9,0.6-7.9,12.3-12.1,12.8c0.4-2.3,1.1-4.9,0.8-7.5c-3.5,4.5-6.9,11.7-12.1,14.3c1-3.2,2.7-9,2.5-13.3
	c-1.6,2.7-4.4,13.4-8.6,11.2c-3.1,2.7-6.6,11.9-10.6,12c-0.6-2.1,0-4.8,0.6-6.6c-5.6,4.9-6.8,14.7-12.8,18.9
	c-0.3-1.8,0.6-3.5-0.6-6.6c-1.7,4-4.2,14-8.2,16.4c0-0.7-0.1-1.6-0.1-2.3c-1.7,4.8-6.5,22.4-10.7,24.7c-2.4-1.7-3.5,1.3-3.2-2.7
	c-1.4,3.2-1.6,13.3-2.7,16.4c-2.1-1.4,0.7-14.7-2.1-17.2c-1.3,4.1-0.4,15.1-1.6,20.3c-0.6,2.8-0.1,14.5-2.3,16
	c-5.1-5.2-1.4-11.7-2-17.2c-2.7,3.2-0.7,13.1-2.7,16.5c-1.1-2.3-4-7.1-5.1-10.6c-2.3,8.6,6.4,24.6-0.3,33c-2.1-1.4-3.8-4.9-6.5-3.7
	c1.7,3.1,3,6.4,4,9.7c-2.1,0.1-4.1-1.8-5.9-2.4c-0.6,3,3.4,13.8,3.2,16.4c-0.6-0.3-1.7-0.4-2.3-0.7c-2.4,2.8,1.1,5.2,0.6,8.5
	c-0.8-0.6-3.2-1-4.1-1.6c0.1,5.4,3.1,12.1,4.1,17.5c1,5.5,1.6,11.3,0.8,17.2c-1.8-0.3-2.8-2.3-4.2-4c-0.6,6.1,4,11.3,2.4,18.1
	c-0.7,3.4-2.7,14-2.8,18.2c-2-2.4-2-6.4-4-8.3c-2.7,7.2-2.1,16.5-3.7,24.1c-2.3-1.4-2.5-2.3-3.8-6.1c-2.1,6.9-1.1,13.4-3.2,20
	c-2.3-1.6-1.1-3.1-2.7-6.6c-2.5,4.8,2.5,11.6-0.7,16.4c-3.7,5.5-11.2,6.6-17.2,8.5c-8.3,2.7-16.2,3.8-24.7,4.7
	c-5.4,0.4-17.2,2-21.5-0.8c-1.8-0.1-22.6,3.2-15.7-3.2c-4.1,0.8-17.8,4.7-25.6,4.1c2.3-2.5,4.4-5.6,5.8-8.5
	c-4.8,0.8-10.3,4.5-15.4,6.2c-2.3,0.7-15.2,3.5-10.2-2.1c-4.2,2.1-12.7,3.5-16.8,1c0.3-0.1,0.4-0.3,0.4-0.7
	c-4.5,0.3-8.8,1.8-13.6,1.4c1.7-2.4,3.4-2.1,4.1-7.5c-6.4,4.7-43.8,9.2-50.4,9.5c4.8-1.8,8.3-5.4,10.7-10.2
	c-15.7,5.4-27.5,14-43.9,12.8c1.8-1.7,2.5-4.7,3.1-6.8c-5.4,2.4-10.9,7.9-17.1,6.5c1.8-2.3,0.1-3,3.2-7.3c-7.8,3.5-9.7,11.2-17.5,10
	c0.7-0.8,0.8-2.4,1.6-3.1c-8.6,1.6-19.2,1.3-28.1,0.6c-7.2-0.6-17.6,0.3-24.1-2.7c0.4-0.4,1.1-2,1.6-2.3c-4.2,0.4-9,4.7-13.8,3.1
	c0.8-2,2.1-3.8,2.4-5.8c-4.8,0.3-11.6,5.5-16.4,6.8c-2.1-1.4-1.4-5.5,0.3-6.2c-4.1-0.1-15.1,1.6-18.8,1.3
	c-8.2-0.7-15.7-0.6-23.4-2.1c0.1-0.6,0.1-1.1,0.4-1.6c-3.7-2.3-12.3-1.7-16.9-2.8c0.6-1.7,1-2.7,3.1-3.4c-5.1,0.1-13.4,0.3-17.1-3.2
	c2.8-0.1,5.2-2.4,6.9-4.4c-5.4-2.4-12.8-3.8-18.5-5.2c-5.8-1.6-8.5-3.2-14-5.1c0.1-3.2,8.2-4.9,11.2-7.3c-7.1-0.3-12.8,3.8-19.8,4.4
	c-7.6,0.7-11-3.1-17.2-5.9c2.3-0.1,4.7,0.3,6.4-1.1c-5.9,0.4-13.8-4.5-17.8-8.6c2,0.1,4.1-0.4,5.5-1.8c-4.8-2.3-32.2-4.1-32.2-4.1
	c3.7-2,14.8-2.5,17.9-3.2c-3.8-2.4-16-4-19.5-4.8c-4.5-1.1-11.3-3.8-15.5-6.8c7.3-2,13.6,0.4,9.6-0.8c-6.4-4.1-15.5-1.4-21.7-6.9
	c1.7,2.5,11.4,2.1,13.6,0.7c-2.7-0.3-23.3-8.9-29.6-14c4.4-0.6,8-0.1,11.9-1.7c-3.5-2.3-20.2-2.4-19.8-8.9c2.5,0,5.4,0.7,7.6,1.6
	c-2.1-2.7-7.6-3-9.3-5.9c3.5,2,8.5,1.8,12-0.4c-3.2-1.7-21.2-3.5-19.9-10.2c2.5,0,5.1,0.7,7.5,1.7c-3.5-1.7-7.9-5.2-7.6-9.5
	c0.3,4.1,8.3,6.5,12,5.9c-4.5-1.6-14.7-8.9-15.2-13.8c4,2,7.2,5.2,11.7,6.1c-4-4.2-13.1-10.2-12.7-16.5c3.5,0.7,7.5,2.4,10.9,3.4
	c-1.7-1-4.4-1.3-5.8-2.5c3.7-0.7,7.8,1.7,11.9,1.6c-7.5-3.2-14.5-9-19.8-15.4c4.4,4,13.8,7.8,19.8,6.6c-4.5-3.2-8.2-1.1-12.6-5.5
	c-3.4-3.4-7.1-4.4-11.3-6.8c6.4-3.1,16.8,1.3,22.2-4.4c-5.8,0.1-16,0.7-20.3-2.7c4.2,0.1,16.1,0.8,17.1-4c-5.1,1-15.4,2.1-19.1-1.8
	c3.1-0.7,5.9-1.3,9.3-1c-3.4-1.3-7.8-3.1-10.7-5.2c4-3.1,7.2-0.3,11.6-0.8c-4,0.1-11.7-4.7-13-8.5c2.3,2,6.2,1.7,8.8,2.3
	c3.4,0.8,6.1,2.7,9.6,2.4c-6.8-4.1-16-8.6-20.8-16.1c5.5,0.4,11.9,8.6,16.1,12c-2.7-6.1-8.8-11-11-17.2c4,3,6.9,6.9,11.3,9.2
	c-3-4.4-10.4-12.1-11.2-17.2c4.1,0.6,7.6,5.5,12,5.8c-3.7-5.9-13-8.5-16.4-14.5c3.5,2.4,11.7,2.7,15.5,0.6c-1.8-2.3-7.3-2-10.4-3.2
	c-3.1-1.4-7.2-3.2-9.6-5.1c4.1,0.7,8.6,1,13,0.6c-3-2.3-7.1-3.7-10.2-6.6c5.5-0.6,10.9,0.6,16.9-0.1c-6.4-2-12.8-3-19.8-4.5
	c1.7-2.5,8.9-2.7,12.1-2.4c4.4,0.3,8,2.4,12.1,2.5c0.3-0.4-8.6-3.5-13-4.2c-4.1-0.7-8.9-1.1-12.8-2.5c4.2-2.7,9.6-1.8,14.3-5.4
	c-5.4,0.1-10.9,0.4-15.1-3.5c5.1,0.1,16.2,0.8,19.8-2.4c-7.3-0.1-17.5-1.8-24.1-4.7c5.4,0.4,11-0.1,16.1-1.7c-3.2-1-6.4-1.3-8.3-4.2
	c5.9,0.4,12.3,1.4,18.8,1.6c-4.7-3.7-9-3.2-14.3-6.2c4.2-3,13-0.4,16.7,2.1c-0.3-6.1-16.5-7.8-21.3-9.3c4.1-6.9,13.7-0.1,18.2,1.3
	c-4.5-4.8-15.4-10.3-21.7-3.8c0.8-4.8,5.8-6.2,10.6-6.6c-5.6-1.7-10.7-4.7-15.7-4.5c7.3-4.8,13.6,0.8,20.5,1.6
	c-3-1.8-5.9-5.8-9.3-6.9c-3.4-1-10.4-1.1-14-1c1.8-3,8.8-4.1,12.1-4c-2.8-2.8-4.9-3.1-7.6-3.7c1.8,0.1,2.3-0.8,4.8-1.6
	c-5.2-2.5-9.5-1.3-14.4-1.8c-3.7-0.3-4,3-3.7-1.8c0.1-3.1,3.2-5.1,3.4-7.8c-2.3,1.3-4.4,3.8-6.8,4.1c1.1-2.4,2.8-5.2,4.1-7.6
	c-2,1.7-4.1,4.4-6.1,6.6c-0.3-5.6,4.2-10.2,6.2-15.1c-3.8,2.7-6.2,7.1-8.9,10.7c0.8-4.2,0.8-8.5,1.8-12.6c-1.6,2-2.5,4.2-3.5,6.4
	c0.1-3.4,0-6.6,0.1-10c-2.1,4.7-3.8,10.9-6.6,13.7c2.1-7.2,3.8-14.4,4.1-22.3c-2,3.7-4.7,7.9-6.2,11.6c-0.3-5.9,2-11.2,1.8-16.9
	c-2.8,6.6-1.8,16.9-9.7,18.6c4.2-6.4,5.2-12.3,5.4-19.5c-2.1,4.4-0.8,8.2-3.5,12c-2,2.8-5.5,5.6-5.2,3.5c0.3-2.3-0.6-4.2-0.7-6.2
	c-0.3-4-0.3-7.6-1-11.4c-1-5.1-3.2-15-9.9-16.4c-4.5-1-16,3.8-20,5.9c-5.5,2.8-11.3,5.5-14.8,11c0.8-2.3,1.3-4.8,1-7.3
	c-1.3,4.7-4.8,8.8-6.2,13.4c1.7-5.4,4-13.3,2.8-17.9c-0.3,5.4-5.2,13.4-8.2,18.1c2.8-7.1,3.5-13.6,3.7-21.3c-3.1,5.4-3,15-6.2,20.3
	c3.2-5.2-1.6-16.8-3.4-22.2c-1.6,3.7-0.8,7.9-0.8,12c0,4-6.1-1.7-6.1-1.7c0.6-3.5-1.3-6.2-1.1-9.6c-1.1,1.6-2.3,3.5-2.4,5.8
	c-1.4-2.3-2.3-4-2.7-7.3c-1.7,4-4.1,8.6-4.4,12.6c1-4.9-2.1-15.5-7.5-17.4c2.4,6.2-0.7,14.5-4,19.9c-0.6-5.4-2-8.6-3.5-12.6
	c-0.7,3.8-0.6,9.3-1.7,12.6c-1.1-4.2-3.8-8.3-5.2-12.6c-1,3.5-2,7.8-3.5,10.7c0.4-5.2-1.7-20.2-10.3-17.9c-0.7,3.4,1.3,6.2,0.6,9.5
	c-4.4-3.4-7.3-8.3-12.8-11.2c1.1,3.5,4.4,8.2,4.1,11.9c-2.5-3.7-5.9-6.9-9-10.2c2.3,5.8,0.7,11.4,1.4,17.4c0.4,4.7,3.5,8.3,4.4,13.7
	c-4-5.4-6.9-10.4-9.5-16.4c-2.4-5.6-0.1-13.1-3.1-18.2c-8.5,5.5-2.5,20.2,0.7,27.1c-4.7-4.4-7.1-11-11-15.5
	c2.1,5.5,6.5,11.7,3.5,17.8c-1.1-4.1-2.7-8.5-5.2-12c-1.8-2.7-4.7-4.7-6.2-7.5c0.3,4.1,2.8,7.3,3.8,11c1,4.1-0.7,7.1-0.3,11.2
	c-0.3-7.2-7.3-17.9-13.8-21.2c1.3,3.5,4.8,16.1,2.7,18.8c-3.8-5.6-5.2-12.8-8.2-18.9c2,2.4,1,7.9,1,11c0,3.5,1.7,8,0.7,11.3
	c-2-2.4-3.1-7.9-4.8-11.3c-1.8-3.7-4.4-6.9-6.2-10.3c3.7,2.1,2.4,9.3,3.1,13c0.8,3.7,4.9,7.8,4.4,11.2c-4.2-5.5-24.8-20.8-30.9-13
	c1.8,4,5.4,6.8,7.2,10.6c-6.4-2.8-12.6-9.9-20.5-7.6c3.1,3.5,8.8,6.8,12,10.2c-5.4-6.1-15.8-4.7-23.2-3.4c3.1,1.8,6.9,2.3,10.2,4.4
	c2.7,1.8,5.6,1.6,7.8,5.9c-4.2-3.5-16.4-5.8-19.9-0.8c7.2,1.3,22.9,7.5,19.9,17.5c-3.8-6.2-8-12-16.2-12c0,1.3-0.4,2.7-0.1,4
	c-0.4-1.7-1.3-3.4-2.5-4.7c0.1,4.9,2.7,9.7,0.7,15.2c-1.3-6.8-1.6-13.1-5.5-18.9c-3.7-5.5-11.2-10.3-17.9-8.8
	c6.4,1.1,12.4,7.6,15.2,13.1c4,7.5,2.1,12.6,0.1,19.8c-2.5-5.9-7.3-13.7-8.8-19.5c4.7,9.6,4.2,20,4.5,30.9
	c-2.1-4.1-2.3-9.2-4.2-13.7c-2-4.5-4-10.3-7.9-13c0.7,1.7,2.7,6.9,3.8,12c-5.5-7.1-16.7-18.5-15.4-28.5c-4.7,9.2,2.1,16.1,8,23.9
	c-7.2-7.2-12.6-8.9-21-6.5c5.9,1,13.4-0.1,19.3,5.6c7.2,7.2,4.5,12,5.1,20.9c-2-5.9-7.3-11.6-13.3-13.3c7.6,7.5,12,16,12.4,26.4
	c-7.2-9.2-16.4-17.8-27.4-22.2c-8-3.2-34.4-13.8-40.8-4.8c9.9,1,18.5,2.4,28,4.8c10.4,2.7,19.5,7.2,26,13.4
	c-4.7-1.6-22.9-9.6-29.5-9.2c-10.9,0.7-20.6-0.8-30.4,6.1c10-0.6,20.9-5.8,30.1-0.1c-8.2-0.7-24.7,2.4-31.3,7.6
	c4.7-1.7,8.2-2.4,12.3-3.7c6.4-2.1,9.5-0.8,15.7-1c0.3,0.4,0.3,1,0,1.4c-10.3,1-22.7,1.1-28.8,11.2c4-2.8,8.9-4.2,13.1-5.8
	c5.6-2,43.8-2.4,48,8.6c-3.8,0.3-8.9-2.7-13-3.4c-5.2-0.8-10-1.7-15.5-1.7c7.3,1.7,19.6,0.7,25,7.6c-5.1,0.3-9.6-1.8-14.8-0.8
	c-4.8,0.8-8.2,0.6-13.1,0.1c-4.5-0.4-8.9,0.3-13.1-0.8c-4-1.1-8-4.9-12.1-4.2c2,3.7,6.9,4.2,10.2,6.6c-4.5,0.6-9.5-0.1-12.8,2.7
	c7.6-1.3,18.1-1.1,25,2.8c-11.2-0.1-29.8,5.9-37.1-6.1c-1.1,5.1,6.1,9.7,10.3,10.4c4.9,0.8,10.7-1.4,15.5,0.8
	c-5.9,2.5-12,1.4-18.1,4.7c2.8,1.6,7.6-0.1,11,1.6c-2.8,2.8-7.6,2.8-11.7,4.4c7.8,1.7,14.1-4.2,21.3-3.5
	c-10.7,1.7-23.3,9.9-26.7,20.9c7.3-5.5,25.8-17.9,35.4-14.1c-4.4,3.1-11.3,3.7-16.4,7.5c-3.1,2.4-5.9,6.1-7.1,12.6
	c7.2-3.1,10-11.7,18.4-14.5c7.2-2.4,21.5-3.5,26.1,4c-7.2-2.8-31.6-4.2-31.6,6.6c7.5-8.9,25.6-9.6,34-2.8
	c-10.3-2.1-22.9-4.4-28.8,5.1c8.6-4.2,24.8-10.9,31.6,1.8h-4.9c-3.4-3.1-9-4-13.1-2.1c2.3-0.1,3,3.4,4.2,4.7
	c-2.8,0.4-4.8-1.4-7.8-0.6c0.7,0.6,1.3,1.8,2.3,2.5c-6.2-0.1-12.1-0.7-17.8,1.7c4.5,0,12.4-1.7,15.1,2.5c-6.4-3.1-12.4,7.6-19.3,6.6
	c3.1,0.1,4.5-4.2,7.2-4.8c-7.8-1.7-30.2,15.1-35.7,16.4c-6.5,1.6-11-1-16.4,4c-9.3,8.3-1.3,31.5-1.3,31.5s-5.2,12.6-5.6,18.1
	c-0.6,6.4,0,12.8,0,19.2c0,6.2-5.4,9.7-3.1,15.1c2.3,5.2,0.6,9.5,5.6,12.7c-2.7-9.5,0.3-20.6,5.9-30.1c-3.1,9.5,2.5,16.8,4.5,25
	c1.4,5.5-10.4,10.3-16.2,17.8c5.1-1.7,9.7-6.5,14.3-9.7c2.7,8-16.1,16.1-22.3,17.4c10,2.1,26.4-8.3,32.6-14.8
	c-1.1,5.4-6.1,9.6-9.5,13.8c-3.8,4.9-9.3,9.6-8.6,16.4c4.4-7.5,10.6-14.1,15.8-21.3c-1.3,5.1-5.4,10.4-7.8,15.4
	c-2.5,5.5-5.9,11.9-7.3,18.1c5.8-8.3,13.6-18.5,16.8-28.2c-4.2,9.3-5.4,21.5-12.1,30.1c9.5-5.5,10.9-19.9,13-29.4
	c-2.5,4.5,0,15.4,0,20.8c0,7.2-2.7,15.7-1.7,22.4c1.1-5.4,2-8.6,3.4-13c1.6-4.9,2.1-11,2.8-16.1c0,8.3,0.3,18.4,1.7,25.7
	c1.1-5.5,0-10.6,2.7-16.1c-0.1,8,1.4,16.8,4.9,24c1.3-4.8-1.6-11.6-2.7-16.4c-1.1-5.2-1.6-9.9-1.6-15.5c0.1,12.6,8.3,23.3,10.4,35.3
	c1.3-6.1-2.4-13.8-3.4-20c-1-5.9-3-12.4-5.5-17.9c3.2,5.8,5.9,12,8.6,18.1c2.7,6.1,2.8,13.3,5.2,18.9c0.8-6.8-1.6-14.3-4.1-20.5
	c2.4,5.6,7.2,14.3,7.9,20.5c5.5-5.2-3-21.9-3.7-28.4c-0.4,8.8,8,32.8,17.1,37.6c-4.2-8.5-2.8-21.5-7.5-28.8c1,9.7,10.6,16.7,13,25.7
	c0.7-3.5-3-13.1-5.1-16.1c1.1,5.5,7.6,12.4,10.7,16.2c1.4-11.4-8-19.9-9-30.4c4.7,6.8,10.6,28.9,20.8,30.9
	c-4.4-6.2-5.9-14.8-8.6-22.3c0.7,5.1,9,14.5,13,17.2c1.3-5.9-4.2-18.9-6.6-24.3c3.8,4.7,8.6,16.9,10.3,23.3c1.1-7.8-1.3-11.3-4-17.4
	c3.8,3,5.8,8,8.2,11.4c0.3-2.1,0-4.5,0.8-5.9c2.5,5.2,6.9,9.5,9.6,13.8c0.7-6.6-2.4-11.2-4.2-17.1c3.4,3.7,5.1,9.7,9.7,12.6
	c-0.1-2-0.4-4-0.7-5.8c4.8,7.1,6.9,17.4,12.7,24.1c2.7-3.1-1.8-7.1-2.4-10.3c-0.7-4-0.8-7.2-0.8-11c-1.6,8.3,4.4,20,11.3,25.8
	c-1.3-3.5-5.8-12.6-3.5-15.5c-0.3,5.4,3.2,9.7,5.5,14.5c-0.1-5.6-0.4-11.7,1.7-16.1c1.3,7.3-2,18.9,2.7,25.7
	c-0.1-8.2-1.3-22,6.2-27.4c-5.4,6.8-4.1,19.3-1,26.4c-0.6-3.2,0.1-10.9,2-13.7c2,3.1-3.2,14,1.4,15.5c0.4-4.2,0.6-8,1.7-11.9
	c0.1,1.4,0.4,3.1,0.1,4.7c0.8-1.8,1.8-3.7,2.7-5.6c-0.3,8.2-2.3,15.7-0.8,24.8c2.4-6.9,2.1-18.8,6.9-24.8c-3.4,10,0.4,24.1-5.2,32.6
	c2.3-5.8,4.1-12.3,6.6-18.2c0,5.6-1.6,9.5-2.3,14.1c-0.7,4.7-2,9.3-2.7,13.7c-0.7-6.1,7.1-12.6,8.3-18.9c-3.7,7.8-1.8,17.6-4.9,25.8
	c0.1-3.5,2.1-8.6,4.2-11c-1,4.9-1.7,11-1.7,16.2c3.2-4.5,4.7-11.7,7.1-16.9c-1.8,9-4.4,19.3-6.6,28.5c4.7-4.8,10-15.1,11.9-20.6
	c-1.4,13-7.9,25-17.2,33.9c6.9-3.1,12.8-9,17.1-14c-3.5,7.2-7.3,9.9-11.9,16.7c4.8-2,8.3-7.9,13-11.3c-1.4,6.1-5.6,12.3-9,17.8
	c-4.4,7.2-10,9-15.4,14.1c6.6-1,26.1-19.5,30.1-26.3c0.4,5.6-11.2,25.3-15.1,28.9c3.4-1.4,10.3-7.5,12.6-11
	c-1.7,4.9-11.4,16.2-14.4,21.6c4-3,15.2-13.7,17.5-17.9c-2.1,7.5-5.5,15.5-12.8,19.9c3-3,7.6-4.2,11.2-6.8c-2.8,3.1-5.4,6.5-7.6,10
	c2.3-1.4,5.8-2.5,8.2-3.2c-3.4,4.4-8.6,6.8-13.4,9.2c7.2-1,12.1-4,17.8-8.5c-0.3,2.7-3,4.2-4.9,6.2c-2.5,2.5-5.5,4.1-8.5,6.2
	c4.1-0.3,8.5-6.2,12.8-7.6c-4.7,5.4-11.3,9.3-15.7,14.4c8.3,1.3,11.2-4.4,17.1-8.6c-5.8,6.9-10.2,12.7-19.5,17.6
	c8.3-0.3,13.6-5.6,19.5-9.7c-2.7,4.5-10,7.8-12.7,11.3c4.9,1.4,12-6.6,16.4-8.2c-3,2.8-4,7.2-6.9,10.2c-4.1,4.2-10.3,6.1-14.8,9.2
	c4.8,0.3,8.9-3.1,12.8-5.5c4.2-2.5,11.6-7.5,13.3-12.4c-3.7,1.6-5.1,6.9-6.6,10.3c-2.7,5.9-6.4,10.7-11.7,14.5
	c6.5-1.8,10.4-9.2,16.4-11.9c-1.4,1.7-2.3,4.5-4,5.8c1.4-1,3-2.1,4.1-3.1c-2.4,8.6-15.4,16.9-21.6,24.3c8.6-2.4,18.6-9.7,24.3-17.4
	c-2.1,1.7-4,6.1-5.9,8.6c-4.2,5.2-9.9,9.3-14.7,14c6.1-0.6,21.3-10.9,23.9-16.7c-7.5,7.1-12,16.5-21.2,21.7
	c5.6-0.3,13.6-8.8,18.2-11.9c-3.4,6.6-10.6,11.7-14.7,17.9c5.1-2,10.3-4.9,15.1-7.6c-3.5,6.9-11.9,9.5-17.8,14
	c7.3-2.1,16.8-5.1,20.6-12.1c-3.5,1.8-6.6,8-9.5,11.2c-4.5,5.2-10.2,8.8-15.4,13.1c7.2-0.7,16.2-7.8,20.8-12.8
	c-2.1,6.9-10.2,11.4-14.7,17.2c6.5-1.4,14-5.4,19.5-8.8c-5.5,5.2-11.9,12.1-16.9,18.2c3.8-2.3,20.8-11,20.8-11
	c-4.2,7.5-9,11.6-16.8,16c6.2-1,17.2-4.8,21.6-11.7c-6.8,4.4-14.1,13.3-19.5,19.3c6.6-2.3,12.6-6.6,18.2-11.2
	c-3.7,5.9-9.6,9.5-13.8,14.4c4-1.1,5.9-3.8,9.9-4.1c-1,1.8-2.4,3.2-3.8,5.1c3.1-2.5,6.2-6.5,10.7-7.5c-4.9,3.8-7.9,9.7-12.6,13.7
	c5.2-2.3,13.7-3.7,17.1-7.8c-5.2,3-8.9,9.7-13.8,12.8c4.4,0,10-4.4,13.6-6.6c-2.4,4.8-8.3,9.2-12.1,12.8c-5.5,5.4-6.5,9.9-10.2,15.8
	c6.1-3.8,10.7-10.6,17.2-14.5c-3.8,6.8-13.1,10.6-12,20.6c3.5-4.1,8.2-11.3,13.6-12.8c-5.9,6.1-11.3,13.8-14.8,20.9
	c4.5-1.8,7.3-6.5,10.7-9.7c4-3.7,8.5-10.9,14-11.9c-3.7,4.2-8.8,7.1-12,12.1c-3.4,5.1-6.6,9.6-8.3,15.4c3.8-6.4,12.1-8.5,15.8-14.3
	c-7.5,4.4-10.6,16-15.1,23.4c8.6-6.4,19.5-11.3,24.1-22.4c-0.6,8.2-7.1,12.4-11.6,17.9c-4.7,5.6-6.4,12.4-10.3,18.1
	c6.4-3.7,22-14.7,27.2-22.2c-2,5.4-5.4,10.7-7.9,16.1c3.1-2.8,6.5-5.6,10-7.8c-2.8,2.7-3.4,7.3-5.1,10.7c-2,4-6.5,5.8-9.5,10.7
	c4.1-2.1,7.3-4.9,11.2-7.3c-0.6,5.4-9,10.9-9.7,19.1c1.4-2.8,3.8-4.9,5.5-7.5c-0.6,8.8-4.8,22-16.4,23.3c3.7,0.8,7.2,3.1,11,3.7
	c-3.1,4.2-11.2,1.8-15.5,0.8c0,4.1,9.5,4.4,12.7,4.2c-5.8,0-11,1.8-16.9,1.7c5.4,2.4,10,2.7,16.1,2.7c-6.1,1.7-10.2,4.4-16.9,4.4
	c5.9,3,20.8,3.2,25.4-2.5c-1.7,2.4-6.9,5.9-9.7,8.6c-2.4,2.3-10.6,7.5-10.6,10.4c7.1-2.7,13.7-12.4,20-17.1
	c-3,8.2-12.4,17.2-11.3,26.7c4.9-6.6,6.1-17.9,14.5-22.6c-1.8,4-4.9,7.6-6.6,11.9c-1.8,4.5-0.7,9.9-3,14c1.6-6.4,7.5-11.3,10.6-16.9
	c-1.8,6.8-4,16.4-8,22c5.1-2.1,5.9-9.3,10.4-11.7c-3.1,6.5-9,12.7-10.2,19.6c2.5-3.8,5.4-14,10.2-14.4c1.4,5.4-6.2,13.4-7.6,18.9
	c2.8-3,7.1-9.5,7.8-13.4c-1.4,3.2-3.2,8.2-2.5,11.9c4.1-0.1,5.8-8,8.3-11c-2.1,4.1-3.8,10.7-3,15.2c1-3,3.5-5.9,5.8-8.2
	c-0.6,3.5-2.4,7.9-2.4,11.9c4.1,0.1,7.1-15.2,10.4-18.9c-1,6.4-6.6,20.5-3.7,25.8c4.8-1.6,5.1-14.5,7.9-18.9
	c-1.1,3.4-1.3,11.6-2.7,13c0.8-2.7,1.1-5.6,3-7.9c1.6,3.8-3.2,10.6,0,15.4c2.8-5.1,1-12,4-16.9c-0.1,5.1-3.7,26.4,1.8,28.5
	c0.1-9.5,1-22.3,4.5-31.3c-0.1,6.1,0.4,12.3,0,18.4c-0.3,4.4-2.4,11.9-0.3,15.5c2.8-6.2,3.1-15.2,4.7-21.9c1,5.4-1.8,12.8-0.8,18.2
	c1.8-5.4,1.8-13.6,6.6-17.2c1.4,7.3-3.4,15-2.3,22.4c3.2-5.2,2.8-15.1,7.5-18.9c-0.4,8.9-3.4,18.4-4.9,26.8
	c3.1-4.5,5.1-10.7,8.5-14.5c-0.1,4.2-7.8,16.9-4.2,19.2c3.7-4.1,5.2-12.6,11.2-14c-2.7,4.5-4.5,9.6-7.6,13.8
	c-3.2,4.5-7.5,6.6-12,9.5c6.4-1,17.4-12.3,20.5-13.8c-6.8,6.2-6.6,12.1-18.6,18.4c9.7-1.1,30.4-7.9,33.7-17.4
	c2.8,5.4-14.5,17.1-27.8,25.7c11.6-4,26.8-8.5,35.7-17.8c0,3.2-12.3,13.3-14.7,17.2c4.8-0.6,9.9-6.2,13.7-9.3
	c5.6-4.7,11.3-9.3,16.9-13.8c-1.8,4.4-4.5,9.7-7.1,13.7c-3,4.5-8.9,8.9-10.4,13.8c5.2-3.8,10-9,16.2-12.1
	c-5.4,5.9-7.9,16.2-16.2,19.1c5.6,1.4,12.6-3.2,14.8-9.9c0.4,3.5-1.4,7.8-4,11c6.5-3.8,11.6-13.6,15.1-20c0.7,4.7-5.9,9-4.8,12.8
	c3.8-3.5,7.1-8.6,11.3-11.9c-1.8,4.5-2.8,9.2-4.7,13.8c-3,7.3-7.2,10.6-11.7,16.5c7.8-4.5,17.1-11.2,19.3-21
	c-4.5,9.3-7.8,19.3-11.4,28.9c5.4-6.1,8.8-14.7,13.7-21.7c-0.4,4.4-1.8,7.9-1.8,12.8c0,4.4-0.8,7.5,0.3,13.7
	c2.7-4.2,4.4-15.4,5.9-20.5c0,6.9,0.6,13,1.7,19.6c0.3-4.9,0.6-8.9,2.7-12.6c1.8,10.9,4.7,21.6,9.3,31.3c5.2,10.7,6.1,19.8,7.3,31.9
	c1.7-2.7,3.5-8,5.1-10.9c0.1,9.5-0.3,19.3,3.7,28.4c4,9,7.6,16.9,7.6,27.2c0,4.9-1.4,9.9-1.7,14.8c-0.4,5.2,0.4,9.9,0.8,14.8
	c0.7,9.5,1.3,16.1-4.4,24.1c2.4-2.1,4.2-4.8,6.2-7.2c-2,3.7-2,8.5-4.4,12.4c1-0.7,2.1-1.3,3.1-2.1c-2.7,2.8-8,14.4-8.2,18.1
	c1.7-0.6,3.4-1.3,5.2-2.1c-3,9.5-9.5,11.7-19.3,11.9c-9.3,0.1-19.8,0.8-27.7,5.9c2.4,0.3,5.8-0.1,7.5,0.8c-3.2,0.1-9.6,2.3-11.2,5.2
	c1-0.1,1.7,0,2.7-0.3c-2.7,2.5-9.2,4.7-8.9,8.9c1.3-1,2.7-1.7,4.1-2.4c-2.1,1.7-4,4.2-4,6.9c0.4,0.1,0.8,0.3,1.3,0.1
	c-1.6,1.3-1.8,2.7-2.1,4.2c1.7-0.1,3.1-1,3,0c-3.1,1.8-4.8,8.8-3.8,12.3c5.9-1,11.6-8,17.2-8.5c0.6,3.2,0,7.9,3.1,5.6
	c0.3,2.5,0.3,2.5,3.1,3.8c2.8,1.3,5.4-3.1,7.8-3.4c-1.3,1.3-1.8,3.1-1.4,4.9c1-0.8,3.1-1,3.8-1.6c-0.4,1.1-0.1,2.3-0.4,3.2
	c2.8-0.1,5.1-3.4,8.3-3.5c-1.7,1.3-1.3,1.3-2.3,4.4c3,0.3,5.4-1.6,8.3-1.7c-2,0.7-3.4,2.3-3.1,4.2c4,0.4,6.9-2.8,11-2.5
	c-1.8,1.1-1.4,2.1-2.3,3.4c2.8,0.6,5.6-1.7,8.3-2.5c-2,1.3-3.8,3.1-4.8,5.1c3.2,0.1,5.6-1.7,9.2-1.6c-2,1.4-5.9,1.1-6.6,3.4
	c3.4-0.1,9.6-2.7,13.1-2.4c0,0-21.9,6.1-21.7,12.1c1.6-0.1,2.7,0.1,4.8,0.1c-8,2-13.8,6.9-13.4,13c3.7-1.1,7.2-4.9,10.9-5.1
	c-3.1,2.1-3.5,2.4-4.5,5.5c2.5,0.1,3.8,0.3,6.1-1.3c-1.3,2.1-2.7,4.8-3,6.2c0.8-0.4,1.6-0.4,2.3-0.7c-0.1,2.1-0.8,3.7-0.6,5.9
	c0.7-0.4,2.4-0.7,3.1-1.6c0.3,2.1,0.1,4.5,0.3,6.6c0.6-1.4,1.3-2.3,1.6-3.8c0,2.5-0.1,5.1,0.1,7.5c1.6-1.3,3-3,4.9-3.2
	c0,1,0.3,2,0.1,3.1c2.5-3,2.5-6.8,5.9-9.2c-3.4,6.2-8.2,14.8-1.8,22.4c3.5-6.2,12-13.4,13.6-13.6c3.7-0.6,1.6,0.1,4.8,2.4
	c3.8,2.8,9.2,4.4,14.3,4.4c5.2,0,11-3.7,16-1c6.2-3.7,17.9,0.6,25,1.3c4.4,0.4,7.2-2.8,11.6-3c1.6,0,9.5,2.1,10.4,3.2
	c1.1-2.1,2.1-4.4,3.5-6.4c-0.1,0.4-0.1,0.8,0.1,1.3c2.8-0.1,2.7-3.4,2.7-5.9c1.3,1.6,1.7,4.5,2.5,6.6c1.7-2.4,0-5.5-0.1-8.2
	c1.8,2.1,2.8,4,3.5,7.3c2-4.4,0-8-0.7-11.9c3.4,0.3,3.1,5.1,5.2,7.5c-0.1-4.4-1.8-10.4-0.7-14.4c3.4,2,4.8,8.3,5.9,11.9
	c1.7-4.8-1.6-9.7-1-14.3c1.3,1.4,2.4,3.7,3.4,4.8c-1-2.8-3.7-5.4-3.1-8.5c3.4,1.8,5.1,9.5,9.3,10.3c-3.4-6.9-5.8-20.6-7.6-27.5
	c3.4,1.7,5.2,9.9,8.5,11.9c0.7-3.4-1.4-7.6-3.2-10.3c3.4,1,4.2,6.9,7.9,7.5c-3.1-7.3-7.2-10-7.8-17.9c3.4,0.4,8.2,12.6,12,13
	c-4.7-10.9-6.9-24.3-9.5-34.6c3.8,3.7,7.8,10.7,10.7,15.4c4.7,7.2,10.6,14.1,14.7,21.6c0.6-4.5-4.2-7.5-5.4-11.6
	c3.4,4.4,7.1,9.7,12.3,11.9c-1.1-5.4-5.5-7.6-8.5-11.7c2.5,1.7,5.9,4.7,8.6,4.5c-1.1-3.1-8.5-4.4-8-7.5c0.7-4.7,5.1-0.6,8.5-0.8
	c-2.3-3.4-8-0.7-7.5-5.8c5.1,1.6,9,5.6,13.6,5.8c-4.2-5.2-12.7-8-13.3-15.1c2,2.8,9.6,7.8,13.4,7.9c-3.4-2.4-5.8-4.8-7.6-8.8
	c-2-4.7-2.7-9.3-4.8-13.6c3.2,3.2,6.5,5.5,9.6,9.2c-2.7-5.8-7.3-12.4-10.3-16.5c4.8,2.5,8.2,5.5,14.5,4.4
	c-5.9-2.4-14.7-6.8-14.8-13.4c1.7,1,3.1,3.1,7.1,4.7c-1.7-2.7-3.5-9.5-3.1-12c5.9,7.1,10.6,13.3,20.5,15.7
	c-4.4-4.1-12.7-11.2-14.4-16.5c5.9,3.5,9.7,8.2,17.2,7.5c-3.5-2.8-9.2-5.2-12-9.6c-2.5-4-3.2-14.5-2.1-18.1
	c1.6,3.4,5.4,6.4,5.5,10.2c-2.1-4.7-1.3-12.7-0.7-18.1c2.3,1.1,3.2,4.4,4.1,6.8c-2.3-2.1-1.8-7.6-2.5-11c2.5,2.8,4.9,7.3,6.1,11
	c-1.7-2.5-1.6-9.3-3.2-13c2.7,1.4,4,6.9,6.1,10c-0.3-4.7-1.7-12.1-2-16.2c-0.4-5.5-0.6-11.4-0.7-17.2c3.1,3.1,4.9,7.9,8.6,10
	c-0.3-5.9-10.7-24.6-11.2-28.8c-0.3-3.5-2.7-7.1-2.5-10.2c4.2,4.9,7.8,12.8,12,18.8c-0.3-5.6-3.5-10.3-5.9-15.2
	c-1.6-3.2-4.5-6.8-4.4-10.4c2.4,4.4,4.7,8.8,7.9,12.8c2.7,3.4,4.9,9.7,7.6,12.4c-2.4-5.4-4.5-16.7-8.6-21.7
	c2.7,3.1,4.2,7.3,6.4,10.9c2.5,4,5.1,10,8.3,12.8c-0.6-4.5-4.1-10-5.9-13.8c-1.7-3.7-4.9-8-5.1-11.9c3.5,2.3,5.4,9.7,8.8,11.7
	c-0.3-3.8-7.3-9.5-7.2-13.3c4.7,5.4,10.4,11.7,13.8,17.8c-2-8.6-8.5-17.8-14.4-24.1c6.5,3,11.6,10.4,15.7,16.2
	c-1.8-2.8-4-5.6-5.9-8.5c5.8,5.4,8.8,13.4,14.5,18.8c-1.3-3.5-2.3-7.3-3.8-11c-1.7-4.1-5.6-7.2-6.9-11c4.7,4.7,9.2,8.8,13,14.3
	c-0.7-3.5-1-7.1-3.4-10.3c-2-2.8-5.8-4.5-7.1-7.5c5.8,5.5,12,11,17.6,16.8c-0.3-4-3.5-4.9-5.9-8.6c-2.1-3.1-4.9-5.4-6.9-8.5
	c3.1,2.8,5.9,7.2,10,8.3c-4.2-6.1-8.6-10.9-13.6-16.4c3.7,2.8,13.7,13,18.6,11.4c-5.1-4.4-16.8-14.3-20.5-17.4
	c3.8-0.3,7.1,2.1,10,4.1c-3.1-6.1-11.9-9.5-15.5-15.4c4.8-1.3,8.6,3,12.8,4.2c-4-4.7-12.1-9.5-12.7-14.7c6.8,7.3,19.5,11.2,29.5,10
	c-4.9-3-20.5-6.1-22.6-12c4,0.6,8.6,3.5,12.7,3.4c-3.7-2.1-13.1-5.8-13.6-10.4c3.1-0.6,6.5,2,9.5,3c-1.4-2.8-4.5-2.8-6.9-4.2
	c4.8-2.8,18.9,2.8,26.1,7.2c0,0-9.9-14.1-17.4-14.1c6.5-4.1,15.5,6.2,22.7,4.5c-0.1-2.5-2.3-6.4-3.4-8.6c2.8,0.3,5.8,5.4,8.5,6.8
	c-0.7-2.5-2.7-7.6-1.7-9.6c1.3,2.3,2.5,4.5,4.4,5.9c0.6-5.2-1.6-13.4,1-17.9c2.5,5.1,0.3,11.7,2.7,16.9c-0.6-7.5,2.5-14.4,3.4-21.3
	c1.7,6.9,1.8,18.9,6.8,25.8c-0.4-10.7-2-26.4,1.1-32.9c-0.8,5.6,1.8,11.9,2.7,17.2c1,6.1,1.1,12,2,18.1c2-4.7,0.7-12,1.6-17.2
	c0.8-5.8-1.7-10.7,0.8-17.2c1.6,5.8,2.1,14.4,2.7,20.8c0.6,6.5-2.1,15.8,0.8,21.6c-0.4-14,0.1-27.8,7.9-39.7
	c-0.3,10.2-0.1,23.4,6.8,31.1c-2.5-7.8-3.1-18.1-1.6-25c0.3,6.4,1.7,14.4,4.4,20.5c-0.1-7.9-0.4-15.7,1.7-23
	c-0.1,11.6,0.7,27.4,9.6,36.1c-0.4-5.1-3.4-10.3-4.5-15.7c-0.8-4.4-2.8-15.7,0.1-19.6c1.6,6.1,4.2,10.2,4.4,16.9
	c1.1-4.1-0.1-7.5,1.8-10.7c1.4,6.1,2.5,11.9,2.5,18.6c0.6-2.8,0.7-5.6,1.8-8.2c0,4.9,0.8,10,0.8,15.2c0.6-9.3,5.2-19.9,7.9-28.4
	c0,10.7-1.3,21-4.4,30.9c2.4-4.8,6.8-9,7.1-14.3c0.7,4.8-1.4,10-2.7,14.3c5.9-7.3,10.4-18.4,11.4-27.4c1.1,10.9,1.6,24.6-3.5,33.5
	c6.9-8.5,8.2-24.6,7.9-35.2c1.8,2.4,2.3,12,1.8,15.1c1-2.8,0.3-7.2,1.6-9.3c0.4,3.2-0.6,7.3,1.7,9.5c0.4-4.1,0-8.2,0.8-12.1
	c0.8-3.8,3.2-7.2,3.7-11c1.3,5.2,0.4,10.4,0.8,15.5c0.4,6.1-3.1,11.2-1.8,17.2c0.8-6.5,4.4-12.7,5.5-18.9c1.1-6.5,1.6-13,1.6-19.9
	c2.7,8.8,4.8,19.8,6.1,29.2c1.8-4.7,0-7.8,0-11.7c-0.3,3.7,2.5,8.3,4.2,11c1.3-5.1-1.1-12.6-0.4-18.2c2.5,7.2,5.6,18.5,12.6,24.6
	c-3.5-8.9-7.5-16.8-9.2-26.1c-0.3,6.9,9,18.4,14.1,23c-4.4-8.2-5.6-15.4-7.8-23.9c0,3.8,3.2,6.5,4.2,10.2c0,0,6.5,5.5,7.1,8.5
	c0-5.9,3.4-11.9,2.5-17.8c3.5,4.4-0.4,10.9,0.1,16.1c4.8-8.2,3.2-19.9,3.2-29.2c1.6,8,5.4,19.3,3,27.4c4-7.6,4.9-17.2,4.8-25.7
	c1.1,3.7,2.3,8,2.8,11.9c2.1-3.8-0.7-9.2-0.3-13.7c5.1,7.9,12.8,12.3,20.9,17.1c-3.8-4.5-9.3-7.2-12.1-13c-2.7-5.4-4.8-9.9-2.5-17.2
	c2.8,5.2,4.7,12.8,7.6,16.9c1-8.6,1.1-17.4,2.1-25.8c2,3.1,1,10.3,2.5,14.5c0.6-5.6,1.1-14.3,5.2-18.6c-0.4,5.5,1.6,10.9,2.5,16.1
	c-0.7-5.4,2-12.1,3.5-16.9c-1.6,9.9,9.5,19.9,4.4,30.1c6.6-5.6,0.3-12.6,3-16.2c3.5,8.3,0.8,22-1.6,30.6c4-6.1,8-14.5,9.5-21.7
	c1.7-9,4.1-20.8,2.4-29.6c2.7,3.4,1.4,10.6,1.8,15.5c0.4,5.2-0.3,10.7-0.7,15.5c4.7-7.1,3.1-16.8,4.1-24.8
	c0.8-7.3,2.7-13.4,2.7-20.9c2,7.8,1.3,17.8,2.7,26c1.1,6.4,4,14.8,8.8,19.8c-9-14.3-7.1-32.3-5.4-47.6c1.3,8.2,4.8,18.1,7.1,25.7
	c0-6.2-0.4-12.7,0-18.9c0.3-4.4-4-19.2-0.8-22.4c-0.4,4.7,4.4,17.5,7.1,21.3c0-1.8,9.5,13,9.6,23.7c0-12.7-4.1-22.9-7.9-34.4
	c3.7,4.9,8.8,11.7,11.3,17.2c2.4,5.1,0.8,11,2.8,16.4c0-5.1-0.7-9.6-0.8-14.5c-0.1-5.1-2.8-9.7-2.7-14.7c1,5.2,2.7,12.4,5.4,16.9
	c-0.1-6.2,0-12,1.7-17.8c1.3,4.5,1,8.9,1.6,12.8c0.7,4.8,0.1,8.3,0.1,12.8c2.7-7.8,5.2-12.4,5.2-21.3c2.1,3.7,0.6,11.2,2.4,14.5
	c0-2.5,1-5.2,1.7-7.5c2.1,8,1.7,11.4-2.3,18.8c4.5-3.1,9.3-6.5,12-11.9c-1.3,4.7-2,11.2-6.5,14.7c5.6-2.1,8.8-4.8,12.7-9.5
	c-1.1,6.2-2.4,14.3-7.3,19.1c4.9-3.7,8.6-7.3,12.8-12c0.1,4-1.3,10.2-3.4,13.6c4.4,0.6,6.8-3.5,9.6-6.5c-1.1,4.7-3.8,7.5-6.5,11
	c-2.4,3.2-10.9,6.9-10.2,11.3c7.1,0.1,13-9.7,18.4-13.6c-5.6,6.6-9,13.6-17.5,17.4c5.5,2.8,15.8-5.8,19.6-10c-2,3.4-4.9,5.8-6.5,9.5
	c3.1-2.3,5.4-5.9,8.6-8.2c-1.3,3.7-4.2,7.3-5.1,10.9c2.4-2.3,3.8-4.9,6.1-7.3c-1.3,3.8-4,7.9-6.8,11c5.5-3.1,9-7.1,13.3-11.9
	c-1.3,5.4-5.5,9.3-6.5,15.2c3-4.1,6.5-7.5,9.3-11.7c-0.3,7.9-7.5,13.3-10,22.3c4.1-7.8,12.8-11,14.5-20.6c0.3,5.5-4.1,11.9-5.8,17.2
	c4.7-3.2,6.6-10.6,9.3-16.2c-0.1,4.5,0,8.6-1,12.8c-1.1,4.8-3.7,7.6-5.8,12c1.3-2.7,3.2-6.9,5.6-8.3c0.6,4.9-2.5,9-4.2,13.6
	c3.4-4.5,9.2-11.7,10.6-16.9c2.7,5.2-2.7,12.6-5.4,17.8c3.8-4,7.1-7.9,9.7-12.6c0.6,6.4-5.1,18.4-8.9,23
	c6.4-6.4,11.9-12.7,16.5-19.6c0.8,5.6-2.7,10.2-4.2,15.4c2.7-4.7,6.2-11.2,9.9-15.1c-1.1,3.8-0.6,6.2-1.1,9.3
	c-0.6,3.1-2.5,5.8-3.1,8.6c2.8-4.8,6.8-10.6,8.6-16.2c1.4,6.9-0.8,17.8-7.6,22.3c5.1-0.6,7.8-6.5,11.9-9.2
	c-3.8,7.1-8.3,11.4-15.4,15.4c12.6,0.4,25.3-10.6,28.5-22.7c0,4,3.2,9.7-4,22.6c4.7-4.8,10.7-16.2,12.8-20.6
	c-1.3,5.6-1.7,12-3.4,17.8c3.7-6.4,7.6-11.3,11.3-16.8c-1.7,4.4-2.7,9.5-3.7,14.3c1.8-2.3,3.1-5.1,4.7-7.5c2,3.7,0.7,15.8-3.7,18.2
	c1.7-3.4,4.9-6.8,7.6-9.5c0.7,5.5-4.2,14.8-9.2,17.5c6.6-1.6,8.5-5.5,12.7-10.3c-1,4-3.5,8.5-5.6,12.6c3.2-2.1,6.8-7.2,9.5-10
	c-0.8,4.8-5.1,11.2-6.4,15.2c5.1-5.5,9.5-11.4,13.3-17.8c-2.1,9.5-7.3,19.6-13.3,28.2c5.9-4.9,11.3-12.1,15.1-16.8
	c-1.8,6.8-9.2,23.6-11.2,28.2c3.2-3.5,7.6-7.9,10-12.1c1.8-3.2,2-7.2,4.7-9.9c-4.1,8.8-3,22.2-4.5,32c-0.8,5.9-1.3,11.4-3.2,16.8
	c-2.7,7.2-6.9,7.1-11.7,11.7c2.7-0.6,5.9-2.5,8.8-2.1c-2,2.7-4.9,5.4-7.5,7.8c1.6-0.3,3.2,0.3,4.8,0.1c-1.4,1.8-2.8,4.5-4.5,5.9
	c-2.5,2.3-5.5,2.1-8.5,3.4c-5.5,2.4-10.7,4.9-16.4,7.2c-8.9,3.5-19.9,13.8-20.2,24.1c1.1-0.4,3-0.6,4.1-1.6
	c-4,6.5-7.9,11.7-6.8,19.9c6.6,0.7,11.9-11.3,18.1-10.2c-0.1,1.6,0.4,3.5,0.3,4.9c1.1-0.3,3,0.6,4.1,0.3c0,0.7,0.3,1.7,0.3,2.4
	c14,0.4,24.6,5.4,37.3-4.1c0.7,3.1-1,5.9-2.4,8.5c3.2-1,6.6-0.7,9.3-3.2c-0.3,1-0.3,3.1-0.6,4.2c2.1-0.8,4.2-2.3,5.8-4
	c1.7,6.4,9.3-2.5,12.1-3.7c1.1,1.3,1.6,3,1.3,4.8c4.4-2,5.8-6.1,9.3-8.3c-0.1,1,0.4,2.4,0.3,3.2c1.7-0.3,2.8-1.4,3.5-3.1
	c0.7,1.4,2.4,2.3,3.1,3.1c0.8-2.1,1.3-4.5,1.1-6.8c0.7,0.4,1.3,0.3,2.3,1.3c2-2.5,1.6-6.9,3.5-9.2c0,2.4,1,2.1,2,3.4
	c0.7-1.6,1.3-3,0.8-4.9c0.3,2.1,1.3,4.1,2.8,5.8c0.4-0.1,2.4-7.2,4.4-9.2c0.8,2.1,2,4.1,4,4.8c-0.1-1.6,0.4-3.5,0.3-5.1
	c3.4,2.7,4.2,5.2,6.8,9.3c-0.6-3.1,1.3-5.4,1.1-8.5c0.3,0.7,1.8,1.8,2.3,2.4c-0.3-1,0-2.1-0.6-3.2c1.3,0.3,3,0.1,4.1,0.6
	c-0.3-1.6,0.3-2.7-0.6-4.1c2.8,0.4,7.3,3.8,10,1.6c-3-1.3-4.4-4.8-4-7.8c4.1,2.8,8.8,3,13.7,2.4c-1.7-1-4.7-0.6-6.8-1.7
	c-0.1-1-0.1-1.4,0-2.4c3.8-1,9.2,3.2,11.2-1.7c-9.7-0.4-11.4-9.5-14-16.5c2.7,3.7,6.4,3.4,10.4,3.1c-1.8-6.4-8.9-9-8.8-17.1
	c2,4.5,6.8,8.5,10.4,11.7c-0.6-6.4-6.5-11.9-6.9-18.6c2.5,4.8,5.4,8.3,8.9,12.6c-0.4-6.8-7.6-14.7-3.2-21.5
	c2.8,5.8,3.1,16.5,10.2,20.8c-1.8-4.8-0.7-11.4,0.1-16.2c0.6,2.8,0.7,5.6,1.8,8.2c-0.4-3.4,0.7-8.8,2.4-11.7
	c-0.1,2.5,0.4,5.4,2.7,6.6c0.4-3.4-1.1-6.9,1.1-10.2c-1.4,6.9,1.3,14.8-1,22.2c8.3-9.3,7.2-12.6,7.1-19.6c3.1,5.9,0.8,16-2.7,21.3
	c2.7-1,3-6.6,5.1-5.8c0.3,5.2-2,10.2-5.1,14.4c2.7-1,3.5-4,6.1-4.8c1.3,4.8-7.6,12.4-11.7,13c4.8,1.1,5.4-2.7,6.6-2.5
	c-1.7,5.1-6.9,8.9-8.5,13.8c0.6-0.4,1.7-0.8,2.4-1.3c-0.8,4-6.8,8-5.8,12.7c2.4-1.3,4.4-4.4,6.6-5.9c0.8,4.4-4.4,11.9-9.2,16.2
	c2.4-0.8,4.8-2.3,6.6-4c-3.4,8-13.7,12.8-19.3,19.8c-7.3,8.9-9.5,17.5-9.5,28.8c1.7-3.2,0.8-6.2,3.4-7.5c0.1,2.3,0,4.7,0.8,6.6
	c0.7-2.3,1.3-4.2,2-6.5c0.4,2.4,1.3,5.2,2.7,7.3c0.1-1.1,0.7-1.8,0.8-2.8c1.3,2.7,2.4,6.1,5.1,7.5c2-2.4,0.6-5.5,3.7-6.9
	c0,0-3.5,22,2,18.1c5.8-4.2,9-13.6,14.5-14.5c0,2.4,1,4.5,2.1,6.8c4.8,0.6,17.4,4.2,23.9-1.8c-3.1,4.1-2,10.7,2.1,15.1
	c3.8,0.7,6.6-7.9,7.9-10.4c1.3-2.8,2.8-5.4,4.2-8.5c1.3,2.4,4.1,4,6.1,5.8c0.1-1.8,0-3.5-0.6-5.1c2,1.6,4.1,4.1,6.6,4.1
	c0.3-1.7,0.1-3.5-0.6-5.1c3.1,2.5,7.3,4.4,10.9,5.1c-3-2-5.4-4.8-4.8-8.5c2.1,1.6,3.5,2.8,5.8,4.1c2.7,1.6,5.2,3.1,7.9,4.5
	c-0.4-2.4-0.7-4.9-2.1-6.9c3.2,1.6,8,6.5,7.6,10.4c5.9-4-0.3-10.3,0-14.7c1.1,1,2.8,2.4,4,3.4c1.3-4.5-5.8-10.4-5.8-15.5
	c3.4,2.7,9.3,4.2,12.8,2.3c-1.4-1.3-4-2.5-5.8-4.1c5.1,1.4,8.9,2.3,11.7-3.5c-5.4,0.1-11-2.5-12.7-7.9c5.1,2.1,9-0.4,13.8-1.1
	c0.3-0.4,0.3-1,0-1.4c-2-0.4-1-4-2.1-6.4c2.3,0.7,4.1,2.7,6.5,2.5c0.6-2.3-0.7-4.2-1.6-5.9c1.4,0.7,5.4,3.1,7.1,1
	c1.3-1.4-2.8-5.5-4-7.1c-3.2-4.5-10.7-6.1-10.3-13c4,2.7,9.2,9.9,14,9.2c-2.8-4.2-7.9-7.5-9.6-12.7c2.8,2.4,4.8,6.2,7.9,6.6
	c2-2.8-2.4-6.9-4.1-9.6c1.8,2.5,4.7,4,7.3,4.4c0.3-2.4-2.1-4.1-4.2-5.1C1578.3,1056.1,1567.8,1042.2,1566.1,1038.9z"/>
</svg>
