<?xml version="1.0" encoding="utf-8"?>
<!-- Generator: Adobe Illustrator 18.0.0, SVG Export Plug-In . SVG Version: 6.00 Build 0)  -->
<!DOCTYPE svg PUBLIC "-//W3C//DTD SVG 1.1//EN" "http://www.w3.org/Graphics/SVG/1.1/DTD/svg11.dtd">
<svg version="1.1" id="Слой_2" xmlns="http://www.w3.org/2000/svg" xmlns:xlink="http://www.w3.org/1999/xlink" x="0px" y="0px"
	 viewBox="256 113 1079 1198" enable-background="new 256 113 1079 1198" xml:space="preserve">
<path fill="#000000"    d="M439.2,885.2c-3.5,20.2-4,40.5-6.2,60.9
	c-1.9,18.1,1.1,40.9-6.2,57.1c-8,17.3-20.5,26-36.9,33.9c-5.4,2.5-14,7.8-16.2,13.6c-3.4,9,1.3,16.8,10.7,16
	c-0.3,7.5,13.4,8.8,18.8,8.5c4.5-0.3,5.9-1.9,10-3.8c5.1-2.4,5.6-1.3,11.2-1.3c10.4,0,15-6.1,18.7-14.9c1.4-3.4,2.4-8.2,4.9-11.1
	c2.8-3.3,10.2-12.3,13.9-15.4c6.8-5.9,9.1-7.5,11.6-14.9c2.5-7.2,5.8-31.8,9-39.3c3.3-7.7,4.5-16.7,8.7-23.4
	c1.1,9.5,0,19.5,1.5,28.4c1.5,9.1,3.3,18.8,4.7,27.5c2.9,18.6-1.8,40.8-5.9,58.1c-1.6,6.8-5.2,16.5-8.7,22.4
	c-2.4,3.9-5.9,6.7-9.6,10.1c-4.9,4.5-5.4,6.7-7.7,12.4c-3.4,8.3-9,14.5-4,23.9c2.9,5.4,3.3,11,13.4,10.6c3.8,4.5,18.7,9.2,23.7,1.3
	c2-3.2,5.9,4.2,20.1,4.3c18.2,0.3,8.8-31.8,30.3-50.9c6.3-5.7,7.5-14.3,12.4-21.1c7.2-9.9,6.6-15,5.9-26.4
	c-1.4-21.7,2.9-40.5,6.2-60.9c3.5-21.3,1.6-43.6,0-64.5c-1.8-22.1-5.9-43.3-3.5-65.7c6.4,5.7,34.7,22.5,45.7,23.5
	c19.8,1.8,39.5,0,59.6,0c21.1,0,40.9-2.4,62.1-2.5c9.9,0,160-9.2,165.2-11.1c6.3-2.4,19.8-2.1,25.6,1c5.4-3.4,18.6-11.9,20.5,0
	c9.2-1.8,19.7-7.7,29.1-9.6c-0.5,1.3-0.4,2.4-0.6,3.4c6.8,0.9,13.1-1.3,19.2-3.7c-1.5,1.4-1.1,2.3-1.9,3.5
	c10.4,0.9,14.4-3.2,22.4-9.2c-2.4,2.4-3.4,5.9-2.4,9.2c4.8,0.1,7.2-3.5,10.7-6.8c1.5,3.5,2,8.2,4.9,10.6c1.1-2.9,2.4-5.6,4-8.1
	c-1.4,5.6,3.9,12.9,8.3,15.5c1.1-3.3,2.1-6.4,5.1-8.5c-0.3,8.8,6.2,19.6,12.8,25.5c-0.1-5.9-1.1-14.7,3.7-18.2c0,0,8,26.5,10,32.2
	c3.3,9.5,6.8,18.6,11.1,27.4c8.8,17.9,20.5,31.7,33.9,47c23.4,26.5,64.3,41.8,78.8,74.5c6.3,14.3,9.2,33.7,7.7,49.9
	c-1.5,16.5-11.9,35.9-18.6,50.9c-2.8,6.3-6.7,11.2-10.2,17.1c-5.6,9-6.8,8.6-17.1,10.2c-6.3,1-15.2,4.8-18.6,10
	c-5.1,7.5-2.3,16.3,7.3,16.4c-4.4,5.8,7.5,10.2,11.4,10.9c7.2,1.3,12.1-3.4,20-1.3c8.1,2.3,46.5-11,57.1-53.3
	c3.8-15,11.7-27.4,18.6-40.4c7.7,18.3,8.6,35.5,8.7,56.6c0,10.7-2.5,20.3-2.5,31.1c0,8.8-0.3,20.1-2.5,28.5
	c-2.4,9-8.3,12.4-15.8,17.7c-5.2,3.7-20.2,8.5-22.7,13.3c-4.4,8.7,0.8,18.8,7.5,20.3c8,1.9,13,0.5,13,0.5s2.9,4.2,6.9,6.4
	c17.2,9.7,42.9-4.8,51-18.3c13.4-16.3,22.9-39.3,25.4-52.4c3.5-18.7-3.5-26.8-1.9-45.9c1.6-20.2-0.1-40.3-0.1-60.9
	c0-10.4-0.3-20.7,0-31.1c0.3-10.1,2.8-20.2-0.9-29.8c-1.5-4-6.4-8.2-9.1-11.1c-3.5-3.9-23.4-27.2-29.8-34.9
	c-15.7-18.6-22.9-38.1-28.5-60.4c1.1,1.8,3.5,3,4.8,4.4c1-3.5-0.5-7.7-0.1-9.7c2.1,3.5,4.2,7.6,7.6,9.7c0.9-4.8-2.5-8.2-2.3-13.1
	c1.5,1.8,3.3,2,4.9,3.2c-2.3-4.7-4.4-11.5-3.7-16.8c1.4,3.2,4,5.9,7.3,6.8c-1.1-2.1-2.7-4.8-3.4-7.1c1.6,1.4,4.2,1.6,5.9,2.1
	c-0.6-3.7-3.7-11-5.9-14.1c1,1,2.5,1.6,3.7,2.8c-0.1-4.7-0.3-9.6,0.1-14.3c0.9,0.5,3.7,0.5,4.5,0.9c0.5-5.6-0.8-11.9,1.4-16.8
	c0.5,0.4,0.8,1.1,1.3,1.6c1.8-3.2,1.9-6.7-0.1-9.5c3.8-2.9,2.4-8.6,3.5-12.6c1-3.8,3.7-7.3,5.3-10.9c3.3-7.1,7.2-13.3,11.5-19.8
	c5.6-8.6,8.7-17.3,12.9-26.1c10.6-22.5-12-73.5-18.4-89.2c-7.1-17.3-17.9-32.7-25.8-50c-4-9.1-3.7-17.1-5.3-27
	c-1.4-8.7-3.9-18.6-6.2-27.3c-2.1-8.3-4-17.4-6.2-26c-1.3-4.9-2.1-7.6-1.3-13c0.8-4.4,1.5-6.3-0.8-10.6c0.6-0.1,1.4-0.4,2.1-0.5
	c0.9-3.9-1.4-7.2-1.3-10.6c0.1-3.9,4.2-7.8,2.5-12.5c-1,0-2.4-0.5-3.4-0.4c2-2.1,4-5.1,3.4-8.2c-1.3,0.3-3.3-0.6-4.7-0.4
	c-0.1-3.9,3-6.4,4.7-9.6c-1.4,0.1-3.4-0.6-4.8-0.4c0.6-0.8,1.5-2.5,2.1-3.2c-0.8-0.1-1.5-0.4-2.1-0.5c1.6-2.8,5.1-4.2,8.3-4.9
	c1.8-6.2-3.8-6.6-8.3-6.2c1-4.3,6.9-7.5,7.2-12c-2.1,0.8-3.8-0.3-5.8,1.8c-0.3-3.4,1-6.1,0.8-9.3c-0.8,0.4-1.3,0.6-2,0.9
	c1.3-2.3,3.4-4.8,4.5-7.1c-2.8,0.6-5.2,2.1-6.9,4.4c-1-4.5,3.2-13.8,4.5-18.1c-1.8,1.3-3.3,1.3-4.9,3.2c0.1-4.2,1.1-9.5,2.4-13.1
	c-1.1,0.8-3.5,1.3-4.7,2.1c1.9-4.3,4.7-8.1,3.4-13.3c-3-0.6-5.8,0.5-7.3,3.2c0-5.4,3.2-9.7,2.7-15.3c-2.1,2.4-3.4,5.3-5.2,7.8
	c1.4-6.4,1.3-11,1.4-16.5c-0.6,1-1.6,1.9-2.3,2.9c-0.4-4.3-0.6-8.7,1.1-12.8c-1.1,4.5-2.4,4-4.9,4c2-4.3,5.7-10.7,5.8-14.3
	c-2.5,1.4-4.4,4.2-5.7,6.9c-1.1-3.7-0.4-11.4-0.1-15.3c-1.6,1.9-2.9,4.2-3.8,6.6c-4.5-3.5-2.3-11-1.5-15.5c-2.8,1.1-3.9,4.3-4.8,6.9
	c-1.9-6.2-2-13-2.7-19.3c-2.9,1.3-3.4,3.8-3.8,7.2c-1.5-4.2-4.2-12-4.9-17.2c-2.9,1.6-4.9,4.9-6.1,8.2c-0.8-4.9-0.9-12.8-4.7-13.1
	c0.1,2.1-0.6,4.8-0.5,6.8c-3.2-3.8-4.8-8.5-9.3-10.6c-1,1.9-2.3,2-2.8,4.3c-2.4-3.2-4.7-6.7-5.3-10.6c-0.9,1.5-1.4,4.5-1.3,6.9
	c-2.8-3.9-3.8-12.3-6.9-14.4c-1.1,2.7-1.6,6.6-2.4,8.5c-3.4-5.6-2.3-14.3-7.6-18.4c-1.1,4,1.6,8,0.1,11c-2-4.3-6.1-6.7-8.1-11
	c-1,1.5-1.3,4.4-0.8,6.9c-4.4-3.5-6.1-7.7-8.5-11.9c-0.1,2.3-0.6,4.7-0.1,6.9c-3.3-4.2-5.6-5.8-7.8-10.7c0,0.1-0.5,2.4-0.1,3.8
	c-5.2-2.7-10-2.8-12.9-8.5c0.3,1.6-0.6,4-0.5,5.7c-2.7-1.6-5.1-4.3-6.9-6.9c0.1,1.1-0.4,2.8-0.1,4c-2.3-1.5-4-3.7-6.1-5.6
	c-0.6,2.5-0.4,5.1,0.8,7.1c-5.2-2.5-8.7-6.3-13.3-9.6c1,1.5,1,3.2,3.2,4.9c-5.3,0-9.5-3.2-14.4-3.7c0.9,1.9,1.4,2.9,3.2,4.9
	c-5.6-1.3-10.1-3.3-13.5-4c-3.9-1-8.8-3.3-13.3-3.3c0.6,0.8,1.5,2.5,2.3,3.3c-3.9,0-7.3-3.4-11-1c0.4,0.9,0.6,1.4,1,2.3
	c-4-0.3-6.7-3.8-10.9-3.3c-0.1,0.6-0.3,1.4-0.4,2c-2.7,0.1-5.6,0.3-8.3,0.4c0.4,1.1-0.1,2.3,0.6,3.7c-5.3,0.6-9.9-1.4-14.3-3.7
	c0.5,2.9,3,6.4,5.6,8.6c-3.7,0.4-6.2-3.2-9.3-3.5c1,0.9,2.4,3.5,3.4,4.5c-6.3,1-11.7-1.3-18.3-0.8c-0.6,5.6-7.8,3.7-12.1,3.4
	c0.9,1,1.1,2.7,1.9,3.5c-4.3,0.5-8.7,0.3-13.1,0.1c3.9,1.4,6.6,4,10.4,6.3c-10.5-0.3-20.2,0.4-30.4,1.4c1.4,0.9,3.4,3.5,4.7,4.4
	c-3.9,0.4-8.2,0.1-12.1,0.5c-0.5,0.6,3.8,3.2,5.9,3.9c-4,2.4-11.4-3-15.5,0.6c1.1,0.8,1.3,3.4,2.9,4c-3.5,0-7.2-0.1-10.6,0.1
	c1,1.9,1.1,3.5,3.4,4.4c-5.4,1.3-27.8,7.1-28.3,10c2.1,0.1,4.7,0.4,3.7,0.4c-0.5,0.6-0.4,1.4,0,2c1.4-0.1,3.3,0.5,4.7,0.5
	c-2,4.4-13.5,6.9-18.1,7.2c1.1,0.8,1.9,2.1,2.9,2.9c-1.1,0.1-2.9,1.1-4.4,1.1c0.5,0.4,1.3,1.9,2.1,2.5c-6.1,8.7-15.5,13.6-23.5,3.9
	c1.1,2.9,3.5,4.8,5.8,7.1c-4.5-0.1-9.5-1.5-12.6-5.2c0.1,5.1,4.3,7.6,8.2,8.6c8.7,2.3,16.7,2.5,25.8,5.6c7.7,2.7,15.2,7.6,23.7,8.5
	c19.2,1.9,94.5-16,114.1-17.7c11.1-0.9,20.2-0.1,30.1,1.5c9.2,1.5,19.6,3.2,28.4,6.4c15.9,5.9,33.2,16.8,45.1,29.2
	c12.8,13.4,14.7,32.2,14.7,50c0,17.3,0.8,41.8-21.1,43.5c-20.7,1.6-41.8-0.9-62.1-2.4c-20.6-1.5-106.4-3.9-128.7-2.5
	c-22.2,1.4-44.2,0.5-66.2-1.1c-20.1-1.5-42.7,1-62.1-3.8c-17.2-4.2-35.9-11.6-53.3-17.4c-21-6.9-42.2-11.7-62.1-18.6
	c-9.2-3.2-17.9-4.5-27.3-7.2c-9.3-2.7-12.8-7.8-19.6-15.2c-13-14-20.1-31.7-28.5-48.4c-4.5-8.8-9.6-15.4-15.5-23.2
	c-5.7-7.6-6.9-13.4-8.7-22.4c-3.9-19.7-7.8-39.5-12.4-59.6c-4.4-18.9-14.3-33-7.5-53.4c3-9,6.8-17.1,9.1-26.4c2-8.6-2-17.3-1-27
	c5.6-1.6,12.6-6.8,15-12.4c2.1-5.2,2.4-20.1-5.2-21.7c6.3-9.9,7.3-24,14.4-33.6c3.4-4.7,10.4-8,12.5-13.6c3.5-9.2-5.6-7.5-12.1-5.8
	c-13.5,3.3-24.9,11.4-35.7,20.2c-4.8,3.9-11.4,9.2-16.8,11.9c-4.9,2.4-14,0.6-17.1,5.9c-5.6-2.1-10-6.3-15.3-9.1
	c-15-8-30.4-17.3-46.6-21.7c-8.3-2.3-33.2-11.4-56.5-7.5c-31.6,5.3-59.1,31.3-80.5,54.4c-13.4-14-29.7-38.3-51.9-30.3
	c-11.9,4.3-14.5,15.8-14.5,15.8s-9.7,8-14.5,22.1c-4.8,14.1-3.4,28.8-3.4,28.8s-4.2,12.8-2.1,28.3c2,16.2,14.9,32.6,26.8,44.1
	c5.9,5.7,10.2,11.1,14.3,18.1c3.5,6.2,9.2,20.5,8,27.9l2.7,2.9c7.5-0.5,15.8,12.1,18.6,18.2c4.4,9.7,5.1,18.1-0.5,27.2
	c1.1-0.1,2.1,0.1,3,0.1c1.4,6.4-4.4,10.6-2.5,16.9c-3,0.9-3.7,1.8-3.3,4.9c0.6,0.1,1.4,0.3,2,0.4c0.6,3.3-1.3,5.6-4.5,6.2
	c3.2,6.3,3.4,14.4-1,21c0.9,0.1,2.7,1.5,4.3,1.4c1.1,13.8,5.8,40.9-6.8,50.8c2.1,0.8,3.9,1.4,6.8,1.5c-0.6,0.3-2.4,1.9-3.4,2.5
	c0.5,0.4,1.1,1.8,2.1,2.5c-1.3,3.2-3.2,3.2-8.1,3.4c3.3,2.4,6.4,3.9,10.5,3.9c0.9,5.1-4.8,6.4-7.2,9.5c1.3,0.4,2.3,1.4,3.5,1.8
	c-1.5,2.4-1.5,2-5.7,3.4c1.6,0.4,3.7,2,5.3,2.5c-3.8,4.2-8.6,9-11.5,13.8c2.1-0.4,4.4,0.3,6.6-0.1c-2.8,2.9-6.4,5.1-8.1,8.5
	c3,0.8,5.9-0.4,8.3-2.1c0.5,4.7-6.1,10.6-8.3,14.5c3,0.8,5.9-0.4,8.3-2.1c-1.4,3.2-4.5,6.3-4.5,9.6c3.7-0.5,6.4-4.8,9.9-6.8
	c0.8,3.3-1.5,3.5-3.4,8.1c2.1-1.8,4.4-3.5,6.7-4.7c1.4,4.4-2.3,6.7-4.5,9.6c3.2,0.8,6.1-0.9,8.3-2c-0.9,4.7-6.9,13.3-10.6,17.3
	c1.9-0.4,3.9,0.4,5.7,0.1c-1.4,1.6-3.4,2.9-5.9,3.8c1.3,1.3,3,3.7,4.7,4.4c-2.4,1.1-4.7,2.4-6.9,4c2.1,1.6,4.3,2.4,6.9,2.8
	c-2,2.5-5.2,5.6-7.2,8.1c2.1,2,4.7,2.1,6.9,0.4c0.9,3.3,0,7.2-1.8,9.9c1,0,2.1,0.1,3,0.1c0.1,3.5-1.6,6.2-3.2,9.6
	c0.9,0,2.1,0.4,3.2,0.4c1,3.5,0.6,11,0.3,14.8c-0.4,4-3.5,8-6.1,10.9c3,0.4,6.2,0.3,9.3,0.1c-2.1,3.4-3.5,7.6-5.6,11
	c1,0,2.4,0.5,3.4,0.5c-1,3.7-2.9,8.6-4.3,12.3c1.4-0.4,3.2,0.4,4.3,0.1c1.3,4.5-2.3,8.3-4.3,12c9.9-4.9,1,7.6,2.3,11.2
	c1.3-1.1,3.5-1.8,4.8-3.2c-0.6,4.2-0.4,10.6-2.4,14.1c0.8,0.1,1.5,0.4,2.1,0.5c-0.9,1.4-0.8,3.5-1.9,4.8c3.2,0,6.6,0.5,9-1.5
	c-1.9,0.8-3.7,2.5-5.2,3.8c1.8,0.3,3.4,1.6,5.6,1.5c-0.5,0.5-1.6,2.7-2.3,3.3c3.7,0.4,7.5,0.8,10.6-0.8c-0.5,3-2,4.4-3.7,5.1
	c0.3,4.3,9.9,2.8,13.9,2.3c-0.1,11.7,27.3,42.7,34.6,49.8c14.3,13.6,32.8,30.1,43.8,43.2C440.3,813.2,440.8,875.1,439.2,885.2z"/>
</svg>
