<?xml version="1.0" encoding="utf-8"?>
<!-- Generator: Adobe Illustrator 18.0.0, SVG Export Plug-In . SVG Version: 6.00 Build 0)  -->
<!DOCTYPE svg PUBLIC "-//W3C//DTD SVG 1.1//EN" "http://www.w3.org/Graphics/SVG/1.1/DTD/svg11.dtd">
<svg version="1.1" id="Слой_2" xmlns="http://www.w3.org/2000/svg" xmlns:xlink="http://www.w3.org/1999/xlink" x="0px" y="0px"
	 viewBox="0 32 1590 1133" enable-background="new 0 32 1590 1133" xml:space="preserve">
<path fill="#000000"    d="M143,597.6c-0.7,1.6-1.7,3.4-2.5,4.5
	c-3-6-0.4-13.5-2.9-19.2c-2.9-6.5-3.7,1.5-6.2,0.5c-1.2-0.4-2.5-7.3-2.8-8.7c-1.1-6.8-0.7-15.4,0.5-22c0.9-5.2,3.4-16.2,0.3-20.9
	c-2.6,1.1-4.5,4.1-4.8,7c-6.5-4-5.3-17.8-5.3-21.7c0-6.9,2.1-18.7-1.1-24.6c-4.9-0.3-12.9,1.5-15.4-4.8c5.6-2.5,7.9-3.2,10.7-9.1
	c1.9-4.2,4-11.5,2.8-16.2c-2.1,2.9-11.8-1.2-11.8-1.2s4.1-4.2,4.9-5.3c1.5-1.9,2.3-4.6,3-6.8c-2.8,1.1-5.8,1.3-8.7,0.9
	c-1.1-3.3,4.8-9.7,5.4-13.6c0.7-4.2,5.4-11.7,4.5-15.2c-5.4,5.2-11.8,6.2-14.3,1.5c5.8-0.1,14.8-7.2,17.8-11.9
	c4.1-6.4,8.2-14.4,9.4-22c1.5-9.3-1.7-17.2,4.4-25c3.4-4.5,10.6-11.9,10.2-17.9c-10.9,1.6-26.5-10.3-35.9-16.4
	c-6.1-4-58.2-37.1-68.5-48.9c-8.5-9.5-19.5-17.4-23.9-29.3c-1.7-4.8-4.1-12.2-2.5-17.2c1.6-4.9,10.7-9.4,10.7-9.4s-5-24.2-5.6-30.2
	c-0.8-11.1-3.7-55.8,6.4-60.6l2.8,0.9c-1.1-5.8,2.6-14.4,3.8-17.2c2.3-5.8,8.7-8.7,14.4-10.3c12.2-3.3,28.1,3.6,39.5,8.3
	c5.4,2.3,11.5,4.9,17.2,7.6c4,1.9,21.3,8.3,21.3,8.3s0.8-8.5,1.7-11.3c1.2-3.3,8.6-17.1,23.7-17.6c2-7.8,21.5-49.6,52.7-57.4
	c-1.2,1.2,0.7,3.8-0.1,5c6.4-2.7,32.1-10.2,38.2-7.4c-3.3,1.5-6.5,2.5-9.7,3.8c0.3,0.5,0.5,0.8,0.7,1.3c-2.1,1.2-7.8,3.8-9.1,5.7
	c7.7-0.4,18.8-0.1,26.2,3.7c-1.6,0.7-13,2.8-14,3.3c12.9,0.7,34.3,6.5,44.4,14.3c9.1,7,21.7,14.2,27.7,24.4c-2,0.4-3.4,0.5-5-0.8
	c14.8,10.6,24.5,24.2,35.1,38.8c5.7,7.7,9.5,15.5,14,23.6c4.5,8.2,6.5,17.5,10.2,25.6c8.5,3.3,13.9,8.5,17,13.8
	c-4.4,0.7-9.3-2.8-9.1,2.3c0,1.5,4.9,9.1,5.7,10.7c2.5,4.8,4.5,5.7,9.1,7.2c2.3,0.7,3,0,5.7,1.9c1.9,1.2,3.6,3.2,4.9,4.9
	c-1.7,0.3-3,0.9-5,1.1c0.9,7.8,17.4,14.7,23.1,19.7c7.6,6.8,14.8,14,20.7,22.3c13,18.4,26.8,37.5,32.3,58.7
	c-1.6-1.5-5.6-1.6-6.5-3.3c0.4,4.5,4.1,7.7,5.3,11.8c1.6,5,0.7,11.5,3.2,16.2c16.8,0.7,30.3,7.6,41.7,19.6
	c6.2,6.5,28.2,8.6,32.3,7.8c3.7-0.7,7-4.1,10.9-3.3c1.6,5.8-0.3,11.4-4.4,16.2c9.5,8.6,18.9,15,31.9,10.5c-0.7,0.8-1.1,2.4-1.6,3.3
	c13.1,3,25.4,8.9,38.7,12.9c97,28.9,206.3,40.9,211.6,42.4c7,1.9,15,2.5,22,3.6c15.5,2.5,198.5,15.8,211.6,17.5
	c12.6,1.6,25.3,2.1,38,3c9.1,0.7,18.4,3.2,27.3,3.4c7.4,0.1,15-2.9,22-5.6c10.9-4,22.4-7.8,33.8-10.1c15.4-3,32.6-4.1,48.8-2.8
	c34.2,2.9,68.6,10.6,102.7,16.7c13.1,2.4,67.8,22.9,83.5,25.6c9,1.5,18,1.7,27.6,1.7c8.5,0,19.9,1.5,27.6-1.5
	c-0.7,2.4-1.1,4.5-6.8,7c6.8,0.3,23.1,0.3,28.9,0.7c8.3,0.7,16,1.2,24.5,1.1c17.6-0.1,33.5,10.5,51,10.1c-3,6-7.2,5.8-12.2,9.3
	c2.7,2.1,5.3,3,8.7,2.9c-3.4,6.1-16.2,10.6-22.7,10.1c0.4,1.1,0,2.3,0.7,3.3c-5.8,0.3-11.8,1.2-17.2,2.1c-5.8,0.9-10.7,3-16.6,3.6
	c-6.1,0.7-52.6,7.4-92.6-0.3c-5.7-1.1-12.6-3-17.2-6.1c4.9,2.4,3.4,4.8,5.3,7c-6,1.7-27.8-7.2-38.4-10.2c2.1,1.9,4,5.6,6.1,7.7
	c-4.4,0.5-11.5-4-15.5-5.3c-5.2-1.9-9-4.5-13.6-7.2c1.6,3,4,5.6,5.6,8.6c-5.4-0.4-12.7-4.8-18.3-7.2c-6.1-2.7-10.9-7.8-17.4-10.3
	c-13.5-4.9-27.7-4.9-42.1-6.1c-16.7-1.5-32.1-1.2-47.7,3.7c-6.2,2-11.9,5.3-15.4,11.3c-3,5.3-5.4,6.8-6.5,17
	c4.5,1.3,20.7,24.9,22.5,31.1c27.8-10.7,59.1,2.7,65.5,6.5c6.4,3.8,13,8.9,19.9,11.1c-4,2-7.3,0.1-11.3,0
	c2.3,2.9,21.2,31.9,24.4,39.5c3.4,7.8,5.2,16.8,6.5,24.8c0.9,6,4.6,21.5,10.1,22.9v5.6c-0.1-0.8,0-1.7,0-2.5
	c0,8.7,12.7,15.6,19.1,19.2c8.3,4.8,21.2,17.2,19.5,27.8c-3.6-3.8-8.9-9-14.4-8.9c4.2,1.1,6,5.6,8.1,8.9
	c-3.7-5.7-17.2-13.2-23.6-8.7c6.8,2.9,13.2,5.3,18.9,9.8c2.5,2,4.5,5,7.3,6.9s6.6,2.3,9.1,3.2c-2.8,2-7.7,1.6-10.9,0.7
	c5.8,5.6,6.9,14,3.6,21.3c-0.1-6.8-6.8-17.6-13-20.7c-8.5-4.1-19.2,1.5-27.4-1.6c8.5,17-4.6,32.5-13.5,45.3
	c13.1,4.4,17.6,25.8,21.2,36.7c9.3,2.9,17.2,9.9,27.3,11c11.1,1.1,21.6,2,33,2c19.1,0,50.7-4.6,62,14.6c-3.7-1.1-7.9-1.3-11.3-2.8
	c6.5,3.3,9.9,5.2,14,11.3c3.8,5.6,6.5,11.3,9.5,17c3.6,6.5,7.4,12.9,10.6,19.7c2.7,5.7,7.8,14.2,7.6,20.5c-3.2-1.9-5.4-5-8.9-6.2
	c1.7,2.9,4.1,6.5,3.2,10.1c-2.1-2-5-2.9-7.7-3.6c5.6,5.4,7.2,10.7,7,18.4c-0.1,7.4-4.2,13.9-3.6,20.9c5.4,0.1,10.9,6,15.5,8.3
	c6.1,3.2,12.3,2.5,18.3,5.3c8.6,4,25.3,15.9,24.6,26.5c-1.7-1.5-4-2.1-6.1-1.3c0.9,3.4,3.6,9.7,2.5,13.5c-3.6,0.3-7.2,0-10.7,0.3
	c-1.5,6.6-7.8,12.3-11.4,17.9c-4,6.2-7.4,13.9-9.7,20.7c-2.4,7-2.8,16.3-6.6,22.7c-3,5.3-12.7,11.7-13.6,17.2
	c1.9,0.4,3.8,0.3,5.4-0.4c-15.8,15.2-34.3,23.5-56,25.3c-11.5,1.1-24.2,0.7-35.8,0c-5.6-0.4-10.7-0.4-16.6-0.9
	c-4-0.3-12.2-0.8-15.4-2.7c0.7,5.7,10.7,9.8,15.1,12.7c-7.8-0.3-15.6,0-23.6,0c-6.2,0-17.5,2-22.8-0.8c0.8,0.8,1.2,2.5,1.6,3.4
	c-5,0.5-10.6,0.3-15.4-0.5c1.6,2,4.6,4.5,7.2,5.6c-2.7,4.1-18.6,2.5-23.7,2.5c-8.9,0-15.6-1.1-23.7-4.5c-0.5,2.1,0.1,4.5,0.7,6.2
	c-3.2-0.3-4.8-4.6-7.9-5.2c-2.1,6.5-6.1,7.4-12.1,6.1c-6.2-1.5-12.3-8.2-18.4-7.2c-5.2,0.9-18.6,10.5-18.6,10.5s0.7-5.8-1.7-6.6
	c-1.5-0.4-6.9,0.5-9,0.7c-5.8,0.5-11.4,0.9-17.4,0c-6.1-0.9-13.4,0.3-19.2-2c-6.6-2.5-10.7-4.6-18.4-2.5c-5.8,1.6-10.2,2.7-17.1,2.8
	c5.7-2.3,6.8-11.1,6-16.4c-1.9,1.7-4.6,3.2-7,3.4c0.3-4.2,1.1-8.9,0.7-13.5c-3.3,0.8-8.1,2.5-11.7,1.6c-0.7-8,1.1-15.6,3.4-22.7
	c-2.3,1.2-4.9,2.3-7.2,3.2c-1.9-2.8,1.1-7.4,1.9-10.6c1.2-4.6,0.8-9.9,1.7-14.6c-5.6,0.3-9.8,14.7-16.2,16.3
	c0.8-12.6,13-25.4,7.4-39c-4.1,4.9-6.4,15.9-9.4,22.4c-1.9-6.6,0.5-19.1-2.5-24.4c-2.5,4-1.6,9.3-4,12.5c-4.2-13.4,3-25.3,1.7-39
	c-4.8,4-10.7,11.8-9.9,23.7c-4.1-8.3-1.9-6.6-2-7.2c-4.5-1.1-8.5,15.1-8.1,19.1c0.7,7.6,8.5,15.1,13.8,19.1
	c-8.9,1.1-15.1-4.6-20.8-11c-3-3.4-5.2-7.2-6.9-11.5c-1.7-4.5-1.2-9.7-3.4-13.9c-4.5,3-9.7-2.7-11.3-6.4c-6.9,7,0.7,15.6,4.8,21.7
	c-8.7-2.3-14.7-6.4-17.5-15.4c-1.9,1.1,0,0-1.1,4.4c-5.2-3.6-9.3-9.9-12.2-15.8c-3.4-6.9-6-12.2-6.8-19.9
	c-9.3,1.2-2.3,12.5,0.9,16.2c-12.1,2.9-18.5-16.8-19.2-25.4c-0.5-6.1-0.3-13.5,2.5-18.5c2.3-4.2,6.8-7.6,9.3-11.5
	c-3,0.9-5,3.4-7.2,6c-4-4.2-3.8-14.7-1.1-19.6c-11.5,6.5-24.2,23.2-18.3,37.4c-2.1-0.1-4.1-5.6-5.7-8c-2.8-4.4-4-6.5-4.4-12.1
	c-0.5-7.8,0.7-15,2.7-21.9c-5.7-0.9-7.4,6.1-7.2,10.5c-3.4-3.8-8.3-8.6-10.3-13.4c-2.1,3.7,0.3,8.1,2,11.7
	c-10.3-0.8-20.3-16.2-22.7-24.8c-3-11.4-0.4-28.1-6.6-38c0.1,8.5-1.3,17.1-5.7,24.2c-1.7,2.9-5,5.7-7.2,8.5
	c-2.9,3.8-4.9,6.1-4.8,11.7c-2-2.3-3.3-9.1-1.7-11.5c-3.7,0.7-8.5,6.6-12.5,8.1c2.9-5.3,8.2-11.8,11.4-17.6
	c4.1-7.6,6.4-13.8,5.6-22.7c-11.7,2.1-14.8,18.2-11.9,27.3c-6.6-0.8-5.8-7-9.3-10.7c-7.8,3.6-2,13-3.6,18.8c-3.2-2.4-8-5.6-9.8-9
	c-2.1-4.2,0.3-9.1-1.3-13.4c-2.4-6.2-12.5-13.5-18.9-11.9c8.5,12.1,20.4,18.9,7.4,33.4c-1.3-11.7-2-19.7-12.2-26.9
	c0.3,0.3,0.5,0.5,0.8,0.8c-2.9,4.6-8,15.8-7.2,21.5c-4.1-7.6-2.4-15.1,1.5-22.7c-3.4,0.3-8.2,4.1-10.9,6.2
	c-4.8,3.8-3.8,6.1-3.6,11.1c-2-1.5-3.8-4.1-6.1-4.4c-0.1,2-0.3,4.1-0.3,6.2c-3.2-0.5-7.6-2.7-10.9-2.7c-3.7,0-2.5-1.5-5.4,1.9
	c-1.2,1.5-1.3,4.4-2.3,6.2c-3.6,6.8-12.5,12.6-19.9,13.8c-0.1-2,0-4.2-0.3-6.2c-3.8,3.3-17.5,18.8-21.7,18.2
	c5.3-10.7,3-28.1-11.8-22.5c-5.4,2-9.3,5.2-11.5,10.6c-2.5,6.1-0.1,8.7,1.7,14.8c-4.2-3.7-6.5-8.7-10.7-12.5
	c-0.5,4.4,1.3,9.4,2.7,13.2c-2.4-2.4-6-1.2-9.1-2.7c-2.7-1.2-4.6-3.3-7.3-4.8c-25.4-14.7-26.8,14.2-25.7,17.6
	c1.9,5.7,2.7,9.7,9.9,12.7c-7-0.1-13-8.5-15.5-14.6c-3.2-7.6,0.4-12.6,0.8-20c-5.4,3-11.8,9.1-13.6,15.2c0.1-5.7-1.1-8.2,3.4-13.4
	c-7.4-1.2-21.5,11-20.8,19.7c-5.6-8.9,6.8-19.6,13.6-22.8c0.4-0.5-14.2-3.8-21.7-5.3c-0.3,3.4,2.9,7.3,5,10.1
	c-4.2-3.6-7-4.4-9.9-9.1c-5.6,3.6,1.6,15.4,2.8,20c-6.1-2.3-10.6-10.6-10.1-17.2c-9.5,3.7-6.2,21.1-2.9,27.3
	c-1.7-1.5-7.9-5.4-8.6-14.4c-0.3,2.9-1.1,5.2-2.3,7.8c-4.2-4-2.3-10.9-2.7-16c-5.2,1.1-7.4,12.3-8.7,16.3
	c-4.6-5.2-1.5-19.5-10.3-21.1c-3.7-0.7-7.2,2.6-9.4,5.3c-3.8,4.4-5.3,10.1-5.4,9.5c-3.6,2.3-2.9,9.1-1.7,12.3
	c-4.4-2.4-1.3-11.3-8-6.8c-4.1,2.8-4.4,8-3.8,11.7c1.3,11.3,13.4,15.2,16.6,25.4c-3.7-4.6-16.7-12.2-22.7-11.7
	c6.6,5.2,13.5,8.1,17.8,15.9c3.7,6.5,5.6,20.7-0.7,26.1c-6.8-6.8-11.7-17-22.8-15.1c2.6,2.8,5.7,5.6,8.1,8.9
	c-3.6-2.6-7.3-8.2-12.6-7c2.3,6.9,7.3,12.6,9.3,19.9c2.7,9.5,2.4,14.3-2.1,23.7c0.1-10.6-6.4-21.5-14.7-26.9
	c0.9,5.6,3.8,10.9,3.6,17.1c-0.4,6.6-5,9.3-9.7,13c-2,1.6-4.8,3.4-6.5,5.3c-1.2,1.2-1.9,3.4-3.2,4.5c-0.9,0.8-3,0.3-4.2,1.2
	c-2.9,2.5-8.5,7.4-10.2,10.6c3.3,1.3,6.6,3,10.1,1.6c-2,4.1-5.7,2.3-9,2.3c8.5,8,11.9,17.9,22.4,24c-8.1-2.7-15.5-4.8-22.5-9.1
	c1.2,5,2.1,9.7,6.9,12.9c-3.6,0.5-8.6-1.7-11.4-3.6c-0.1,4,4,7.8,6.1,10.7c-8.6,1.7-43.2-4.6-46.6-4.4c-5.2,0.3-4.9,1.7-6.4,4.6
	c-3,6-4.4,10.2-11.7,11.9c1.7-1.6,2.8-4.1,3.2-6.1c-3.8-3.6-14.3,3-14.7,7.9c-3-0.5-5.3-2.8-8.1-3.4c-3-0.7-34.2,4.1-39.5,3.4
	c-5-0.7-8.2-4-13.5-1.6c-5,2.3-6.9,4.8-13.1,4.4c-4.4-0.3-7.8-4.6-11.9-4.6c-4.8,0-6.2,5.6-11.7,5.3c-4.1-0.1-9.1,0.1-13.4-1.3
	c2.1-0.5-12.5-3.8-20.8-3c-4.4,0.4-21.9,4.5-23.1-0.8c-3.4-0.5-4.8,2.9-8.1,2.7c-2.9-0.3-6.1-3.6-6.4-6.1c-1.3,4.6-4.1,2.8-7.4,1.5
	c-1.3-0.5-2.3-2.7-3.7-2.7c-1.7,0.1-3,2.9-4.6,3.6c-6.9,3-17,1.9-24.8,1.9c-8.2,0-15.9,1.3-23.8,0c-4-0.7-7.8-0.4-11.3-2.5
	c-4.1-2.7-3-4.5-3.6-9.3c-1.5,1.2-3.3,2.8-5.2,3.4c-0.5-4.8-1.5-9.7-0.9-14.4c0.3-1.9,0.9-4.8,1.9-6.6c0.8-1.6,4.5-3.4,4.5-5.4
	c0-4.1-7.4-5.3-10.3-7.2c-3.7-2.4-6.8-5.6-8.1-9.4c-3.3-10.1,1.2-19.2,8.1-26c7.4-7.3,16.7-10.6,24.9-15.1
	c-6.5-2.1-14.3-1.1-17.9-8.5c4.1-2.5,8.5-3.4,13.2-3.8c1.2-4.4-5.8-9.4-9.1-11.5c-6.4-4.4-7.9-2.3-14.4-0.1
	c4.1-6.8,8.6-7.4,17.2-7.4c7,0,14.2,2.4,7.7-6.5c4.6-2.7,13.6,0.3,17.9,2.6c0.3-2.4,0-4.8,0.3-7.2c5.3-0.9,9.3,8.3,11.8,11.7
	c7.7-2.5,8.7-12.7,12.6-18.5c4.2-6.4,11.3-9.9,17.4-14.3c-3,0.8-9.9-1.2-12.9,0.8c0.7-7.8,17-7.7,18.4-14.7c0.5-2.5-2.3-3.8-2.6-6.5
	c-0.3-2.1,0.3-14.6,2.6-18.2c-6.1-2-9.8,15.5-7.4,18.8c-7.4-11.8-0.7-29.3-6.1-41.6c0.1,2.9-1.2,6.6-3.8,7.8
	c-1.5-2.3-1.3-7.3-1.9-9.9c-0.7-3.6-1.3-7-2.9-9.9c-2.1,1.1-3.3,3.4-3.4,6c0-4.9,2.8-19.5-4.6-18c-6.9,1.3-5,12.5-3.2,17.4
	c-5.7-6.1-6.5-10.2-6.9-18.3c-0.4-7-1.2-12.3-7.2-16.4c-4,3.6-4.4,8.6-5.7,13.4c-3-3-5.3-8.6-6.5-12.5c-1.7-6-0.4-11.1-1.1-17.4
	c-2.9,1.7-4.5,5-7,6.9c-1.3-4.8,3.8-7.2,3.3-11.5c-5.2-1.3-15.8,5.6-14.4,11.5c-8.9-9.8-2.4-19.1-2-23.3c-5.2-1.1-10.2-6.2-13.6,7.8
	c-7.4-6.4,3.8-28.5,2.5-33.5c-6,3-11.8,6.4-18.9,5.2c1.3-2.7,8.6-6,7-9.7c-1.9-4.4-7.2-5-13.5-0.3c-1.1-6.4,9.9-6.9,12.5-11.1
	c3-4.9,1.3-16.3,0.4-21.9c-0.7-3.7-1.3-7.4-2.3-11c-0.7-2.8-0.8-8.7-2.5-11c-5.7-7.7-11.1,3.4-12.7,7.3c-2.4-10.1-5.6-21.3,1.9-30.2
	c3.6-4.4,8.2-6.4,11-11.7c2.9-5.4,3.8-10.3,3.3-16.6c-2.4,0-5.4,4.1-7.4,6.1c-2.8,2.7-3.4,5.4-6.2,8.2c0.1-6.5-1.3-14.6,0.7-20.7
	c-4.4,0.1-7.8,4.8-10.7,7.8c4.6-13.9,14.3-26,19.2-39.9c-3.7,0.4-12.5,11.3-15.2,14.8c-4.4,5.6-11,12.5-11.4,19.9
	c-5.3-7.6,10.9-25.2,15.6-31.1c3-3.8,7-7,9.4-11c2.5-4.2,4.6-9.8,5.3-14.6c-8.1,4-13.5,10.9-20.1,17c7-13.6,16.8-26.5,23.2-40.7
	c1.7-3.8,3.4-6,3.4-10.3c0.1-4.9-0.5-6.5,2.6-11.3c2.5-3.6,11.9-17.4,4-20.7c-3.2,2.6-21.5,10.1-6.9,12.7
	c-5.7-0.9-13.1,2.8-17.9,0.9c-0.5,1.9-0.4,4,0.4,5.4c-5.3,0.8-12.5-2.9-15.9-6.4c-1.6,2.9-1.7,6.5,0.4,9.1
	c-9.7-2.9-12.5-6.9-12.5-15.6"/>
</svg>
