<?xml version="1.0" encoding="utf-8"?>
<!-- Generator: Adobe Illustrator 18.0.0, SVG Export Plug-In . SVG Version: 6.00 Build 0)  -->
<!DOCTYPE svg PUBLIC "-//W3C//DTD SVG 1.1//EN" "http://www.w3.org/Graphics/SVG/1.1/DTD/svg11.dtd">
<svg version="1.1" id="Слой_2" xmlns="http://www.w3.org/2000/svg" xmlns:xlink="http://www.w3.org/1999/xlink" x="0px" y="0px"
	 viewBox="0 82 1590 1035" enable-background="new 0 82 1590 1035" xml:space="preserve">
<path fill="#000000"    d="M737.4,337.3c-20.4,2.5-40.1,6.2-60.8,9.8
	c-44,7.6-84.4,24.9-125.1,43.2c-14.3,6.5-66.6,38.7-79.6,45.6c-11.5,6.2-24.2,14.3-36.6,17.9c-7.7,2.1-61.2,46.2-65.3,47.6
	c0.8,0.3-71.4,65.5-147.6,85.5c0.9,6.6-22.9,13.9-22.8,14.7c-2.3-1.6-39.5,2.7-48,1.6c-50.5-6.8-66.9-35.2-66.9-35.2
	s6.8,6.6-2.3,4.1c-10.3-3-18.4-24.5-27.7-30.5c-6.6-4.2-14.8-18.5-18.8-25.3c-2.1-3.6-8.2,0.7-8.2,0.7c-2.3-2.8-7.6-4.5-10.5-6.8
	C16.2,521.3,11.8,531,15,542c-10.2-2.6-5.4,18.2-4,22.5l-4,16.3c1.6,2.5,9.7,15.8,5,15.8c2.3,2.9,1.3,6.2,2.9,9.3
	c1.3,2.8,4.4,5.4,5.8,8.1c-0.9-0.1-2-0.1-3-0.3c2.4,7.4,15,29.3,23.6,29c-1.7,2.1-4.4,2.9-7.2,2.4c9,9.5,26.8,21.1,39.6,18.9
	c-1.1,3.3-6.1,3.3-9.7,4.6c7,7.6,21.9,8.3,30.3,13.5c-2.1,0.7-2.5,1.3-5.4,0.8c7.4,3.2,14.7,8.2,22.7,10.5
	c8.1,2.3,17.1,1.5,25.2,3.6c-1.5,0.7-1.7,2.1-2.5,2.8c6,1.3,12.1,2.1,18,1.3c5.2-0.7,10.6-4,15.9-2.8c-1.9,0.9-3.7,2.3-5.6,3
	c6.8-4.5,21.5-2.8,29.8-4.9c9.1-2.3,21.1-6.8,29.8-6.5c-0.9,0.9-1.7,3.2-2.8,4.1c5.7,0.8,10.7-4.1,17-2.4c-0.5,0.4-1.2,0.7-1.7,1.2
	c5.3-0.3,13.8-6.6,17-5.4c-1.7,1.1-2.9,3.2-4.6,4.4c6.1,1.7,20-4.1,26-6.4c7.2-2.8,17.6-11.4,23.8-12.1c-1.2,3.2-4.1,5.7-5.8,8.6
	c10.7,2.4,17-9.8,26.9-10.3c-1.6,1.6-1.6,1.9-3.4,2.8c13.6-8.2,28.8-15.5,43.2-22c17-7.6,31.1-20.8,43.2-33.4
	c0.3,2.6-0.8,4.9-2.9,6.4c9.1-4.8,15.2-23.5,26.2-23.9c-0.4,2.8-2.4,5.2-4.1,7.7c3.6,0.3,6.8-2.4,9-5.6c-2.8,4-1.5,7.2-5.2,12.1
	c-2.9,3.8-10.9,7.8-11.5,11.9c1.7-0.8,4.5-0.8,6-1.3c-0.9,0.8-2.1,2.3-3.4,3c2.9-0.3,5.6-1.6,8.3-2.4c-3.3,5.8-8.6,9.9-12.9,14.8
	c3.4,3.3,7.4,1.7,10.7,0.7c-1.6,1.9-3.4,4.2-4.1,6.4c2-1.1,4.9-2.3,7.3-2.4c-1.5,3.2-4.8,4.8-6.8,7.3c3.4-0.1,7-0.9,9.8-3.2
	c0.5,7-9.4,11.4-14.7,13.8c1.6-0.4,3.6-0.1,5.3-0.7c-0.1,0.4-0.8,2-0.9,2.3c3.2,0,6.8-2.3,9.9-3.3c-0.7,5.2-7.6,10.9-12.2,13
	c2.9,0.1,5.4-1.3,7.2-3.6c-0.5,4.6-7.4,7.6-11.7,9c7.3,1.2,11.1-1.3,17.9-2.7c-3.6,5.8-12.3,6.4-15.8,12.5c3.3,0,6.9-0.9,9.8-2
	c-1.9,2.1-4.9,4-6.6,6.1c4.8-1.2,8.7-4.5,13-6.8c-0.9,2.3-2.4,4.1-4.5,5.6l2.6,3.2c-5,0.1-15.6,9-22.5,6.8
	c6.6,1.2,11.4-0.5,17.8-1.3c-4.2,3-9,5.7-13.6,8.1c3.6,0.4,7-0.9,10.5,0.4c-3.3,4.8-18.3,6.6-24,7.3c4.8-5,8.3,1.5,13,2.9
	c5.4,1.6,10.6-0.4,15-3.3c-8.6,3-15,10.9-24.5,13c5.2-1.9,11.3-2.5,16.7-2.5c-3.3,2.1-8.7,3.3-10.2,7c5.2,0,11.5-3,16.2-6
	c-3.8,1.6-5.3,6-9.1,7.2l6.8,4.5c-2.1,2.1-4.2,4.4-6.6,6.2c4.5,0.3,8.2-5.2,11.3-8.2c-4.8,7.2-9.5,11.4-16.2,17.2
	c8.9,3.2,14.4-2.8,19.3-9c-3.2,3.8-8,7.3-10.1,11.5c5.4-3.4,12.5-6.2,17.8-9.5c-3.6,8.6-16.3,14.2-18.3,21.6
	c4.5,1.6,9.5-0.3,13.5-2.4c-1.3,1.3-2.1,3.8-2.8,5c2.5,0.5,5.4-0.9,7.3-2.4c-1.1,3.4-4.8,5.8-4.6,10.1c1.7-1.6,4.4-1.9,6.1-2.5
	c-3.7,6.1-5.8,13.6-9,20.3c-15,31.1-73.5,72.7-81,76.1c-6.8,3-17.4,7.6-21.5,13.8c-4.5,6.9-0.4,20-0.1,28
	c0.7,18.5,3.2,36.8,5.7,55.5c1.1,8.6,5.4,16.4,4.2,24.9c-0.7,4.6-3.6,7-0.1,11.8c2.6,3.7,6.4,4.9,10.2,1.9c2.4,9.1,3.6,16.7,4,26
	c0.3,4.8,2.4,9.7,0.3,14.3c-1.7,3.7-6.5,4.9-8.1,8.7c3.8,1.5,7.2-0.5,10.2-2.9c-2.3,3.3-4.1,7.4-5.2,10.9c6.2,1.5,9-7.4,12.5-11.1
	c1.6,12.2,2.6,27.6,12.3,37.4c7.7,7.8,10.2,2.3,18.9,1.6c6-0.5,14.7,5.4,19.9,7.6c6.1,2.4,13.5,5.2,20.1,6.1
	c3.4,0.5,7.6,1.5,10.7,0.5c3.8-1.1,11-9.5,11-9.5s26.9,5.4,27.4-10.7c5.2,1.9,9.7,4.9,15.2,1.7c4.8-2.8,6.2-9.4,10.3-11.9
	c5-3,9.4,3.2,13.6-5.4c2.3-4.6-4.9-11.1-7.4-15.2c-6-9.8-13.1-13.5-22.8-19.2c-10.2-6-22.5-3-33.3-5.8c-3.2-11.5-8.2-21.7-14.6-31.8
	c-21.9-34.8,14.3-93.7,21.3-102.3c11.3-13.6,26.8-14,42.8-17.4c15.1-3.2,74.3-18.3,99.8-56.8c4.8-7.2,7.4-14.2,11.5-21.2
	c-0.5,2.7-0.8,4.4-1.9,6.5c4.4-3.6,8.6-10.9,11.5-16.2c0.9,2.1,1.3,1.2,2.3,2.1c1.6-4.9,3.6-9.9,5.6-14.6c0.3,1.1,0.5,2,0.8,3
	c0.3-4,2.7-7.4,3.8-10.9c1.6,2.3,1.1,5.2,1.7,7.8c4-4.9,4.6-16.2,5.6-22.7c0.4,3.2,1.2,6.4,3.6,8.5c1.6-6.4,1.5-13.4,3.2-19.7
	c0.3,0.9,0.4,1.9,0.5,2.9c2.8-2.9,3-9.5,4.2-13.2c1.5,3.2,2.6,6.6,4,9.4c4.5-7-0.8-16.8,0.5-24.6c1.9,2.4,2.9,5.3,2.9,8.1
	c3.8-6.2,2-13.8,0.1-20.1c2.9,0.3,5.2,2.3,5.3,5c1.5-8.2-1.5-11.1-3.6-18.2c3.2-0.3,5.7,1.9,7.3,4.6c-0.4-3.4-2.4-6.4-1.6-9.9
	c0.9,0.9,3.3,1.7,4.1,2.6c-0.3-1.6,0.1-3.7-0.3-5.6c2.1,2.1,4.9,4.2,6.1,7.3c0.1-3.7-2.3-11.4,0.7-14c1.9,4.5,3.2,10.6,5.8,14
	l4.1,5.4c-0.4-0.5,2.8,4.6,3.8,6.2c0.7-2.4,1.1-5,1.2-7.6c1.1,3.4,3.4,6.8,3.4,10.6c1.1-8.6,4.1-21.6,1.2-27.6
	c1.2,7.2,9,11.8,8.7,19.5c1.6-2,1.7-5.7,2.1-9c1.3,5,5.2,11,7.4,16c-0.5-5,0.5-10.6,1.1-16c1.6,4.4,1.2,11.8,5.2,14.7
	c0.8-3.4,1.1-7,1.9-10.5c5.2,4,8,12.5,7.3,18.7c2.6-4.2,2.1-10.9,3.3-15.9c3,3.2,5.6,6.8,5.7,11c0-1.3,0.4-2.6,0.4-4
	c2.4,3.7,3,8.9,4.5,13.1c0.5-5.3,1.5-10.6,2.1-16c0.7,5,3.8,9.5,5.4,14.6c0.5-4.9,1.3-9.9,2-14.8c-0.1,6.4,5.3,11.5,5.2,18.4
	c5.3-4.4,4.4-16.6,2.7-22.1c4.1,6.8,8.9,12.3,8.3,20.7c0.4-3.3,0.9-6.5,1.2-9.8c2.4,5.8,5.3,12.2,6.2,18.3c0.7-5.2,2.5-9.7,3.2-14.6
	c2,9,2.8,15.4,1.6,24.9c0.5-7,4.1-12.3,5-19.2c1.7,4,4.4,7.7,5.6,11.1c0.8-3.3-1.2-6.4,1.5-8.9c2.1,4.5,4,9.1,4.2,14.3
	c-0.1-5.2,2.6-9.5,4.4-14.2c0.8,4.8,3.7,9.8,5.6,14.2c-3.3-4.5,3.4-11.5,3.3-16.8c2.3,3.8,5.4,7.8,5.7,12.1c1.5-3.2,2.1-6.8,3.7-9.7
	c1.2,5.7,4.8,9.8,4.2,15.6c1.9-3.6,3.4-9.1,4-13.2c0.4,1.5,1.6,2.9,2,4.2c-0.1-2.3,0.7-4.5,1.1-6.6c1.9,3.3,2.7,8.3,4.2,12.2
	c0.4-3.7,0.9-7.4,1.5-11.1c1.5,5.2,4.5,10.9,4.2,15.9c1.6-2,1.7-5.7,2.1-9c1.2,5.7,2.5,12.2,3.7,17.9c0.7-5.6,3.2-13.2,1.5-18.4
	c0.8,1.9,2,3.7,2.8,5.6c0.4-3.7,0.8-7.6,1.7-11.1c2.3,3.4,3.6,8.1,4.2,11.9c0.7-5.2,1.6-9.8,3.2-14.6c1.2,5.4,2.8,11.3,3.8,16.7
	c0-4.8,2.9-9.1,5-12.2c0.4,1.6,1.5,3.2,1.9,4.6c0.3-1.1,0.7-2,0.9-3c0.3,0.8,1.3,3,1.6,4.6c0.1-1.1,0.4-2.1,0.7-3.2
	c2.8,2.8,2.7,7.8,5.4,10.2c0.9-4.4-1.1-9.5,1.7-12.9c-0.4,5.6,2.4,14.3,4.8,18.7c0.4-2.5,1.5-4.2,2.4-6.5c0.8,4.2,1.6,12.2,0.3,16.3
	c0.9-4.5,4.5-8.6,6.8-13c-0.7,3.2-0.4,6.2,0.9,9.1c1.7-4.1,2.9-8.1,5.6-11.9c0,2,0.8,3.4,0.7,5.7c2.4-4.6,3.7-11.1,4.5-17.2
	c-1.3,7.6,2,17.9,3.8,24.4c0-8.9,3.8-10.5,7.6-18c0.4,2.8,0.5,5.4,1.5,8c0.1-1.2,0.3-2,0.7-3c3.6,4.9-0.7,12.9,2.3,18
	c0-5.6,3.7-9.4,5.6-14.2c0.3,2.6,0.8,5.3,1.3,7.8c2.7-4.6,4-9.3,5.6-14.3c-0.4,3.4,1.5,6,1.5,9.4c1.1-1.3,2-4.2,2.1-6.5
	c1.3,3.8,2.4,8.7,1.6,12.9c-0.1-4.8,3.7-8.5,6.5-11.7c-0.1,2.8,0.1,5.3,0.4,8.1c0.7-1.5,1.9-4.8,3.4-6.6c0.4,1.7,0.7,4.9,1.5,7.3
	c4.6-2,6.9-11,9.3-15.2c0.3,4.8,1.1,10.1,0.3,15.1c1.2-3.8,3.8-7,4-11.3l1.7,14.8c0-0.9-0.5-1.5-0.7-2.4c2.4,5.4,2.7,20.4,2.3,26.9
	c-0.7,10.2-3.3,20-5.3,29.7c-4,19.9-8,40-10.7,60.6c-2.6,19.5-6,39.9-7,58.8c-0.3,4.9-0.5,10.5-1.9,15.2c-1.2,4.5-3.8,7-5.3,11.4
	c-3.4,10.3-0.8,17.8,8,22c0.5,3.7-1.5,7-2.3,10.2c1.6-0.3,2.9,0.4,4.5-0.3c-0.9,1.7-1.2,3.7-2.8,5.3c2.3,0.4,4.8,0.4,7,0.1
	c-0.3,1.1,0.1,2.4,0,3.3c6.5-3,3.2,5.7,4.5,8.9c-1.6,2.4-2,5.3-2,8.5c7.2-1.5,12.1-4,18,3.4c4.1,5,2.9,10.3,6.4,15.5
	c6.8-0.3,34.1,9,39.9,6.1c5.4-2.7,0,11.3,0.9,17.6c1.2-0.8,3.4-0.8,4.6-1.6c0.7,6.8-5.6,13.9-2.7,20.9c2.3,0,5.4-0.8,7.4-2
	c0.7,4.1-2.1,6.5-2.1,10.5c2.8-0.8,5.3-1.5,8.2-1.1c-0.4,1.2,0.1,2.8-0.5,4.1c9.3-4.6,10.9-0.3,16,6.2c5.3,6.6,10.2,8.2,18.6,9.8
	c8.3,1.6,15.5,4.9,22.8,5.7c7.8,0.9,16.8,5.2,23.8,1.5c0.1-1.1,0.7-2.1,0.8-3.2c8.9,4.2,24.5,2.3,33.4-3.6
	c-1.9-5.3-10.2-15.4-10.2-15.4s6.8,0.4,12.7-3c6.9-4.1-2-9.5-5.6-13.9c-4.4-5.3-9-9.3-15.1-12.3c-7.7-3.7-14.8-7-23.6-8.9
	c-11.9-2.7-16.4,2-20.5-11.3c-4.9-16.3-15.1-31.9-14.2-49.3c0.7-10.9,2-18.4,6.1-28.4c3.6-8.6,17.4-99.2,37.1-136.1
	c9.3-17.4,9.3-39.5,22.5-55.1c12.1-14.2,26.5-32.7,42.3-42.9c7.6-4.9,15.9-6.4,23.3-12.1c6.2-4.8,40.9-59.2,55.4-72.5
	c17.2-15.8,30.2-33.1,40.8-54.2c17.2-34.1,26.9-67,62-88.6c8.9-5.4,17.1-10.3,24.6-17.4c8.1-7.7,7.8-12.5,10.2-23.2
	c2.1-9.3,5.3-18.4,7.6-28.2c1.9-8.7,13.1-20.5,23.8-18c7.7,1.7,18.4,13.1,26.2,15.6c10.1,3.3,24.1-7.6,24.1-7.6s16.4,2.6,26,2.3
	c6.9-0.3,29.2-11.3,34.8-15.6c7.4-5.8,15.4-9.4,22.9-15.2c5-4,17.5-12.9,15.2-19.6c-10.5-31.1-85.1-68.6-88.5-76.9
	c-7.2-16.7-4.8-32.5-14.2-48.6c-7.6-12.9-31.4-29.2-44.3-41.3c-0.1-8.7,13.6-48.5,15.8-57.5c1.9-7.8,5.3-14,5.8-22.5
	c0.5-7.9,0-14-1.2-21.6c-4.2,6-29,37.5-35.6,43.7c2.9-18.3,6.6-42,2.3-59.1c-7.4,7.6-9.8,13.9-15.1,20.9
	c-10.2,13.6-33.3,37.5-45.6,49.2c-11.8,11.1-13,9.8-28.8,15.2c-17.6,6.2-33.8,14.3-49.2,26c-7,5.3-66.5,60.8-82.7,70.8
	c-8.7,5.3-48.2,20.1-57.5,24.5c-17.5,8.1-39.6,15.1-58.6,18.3c-18.3,3.2-37.4,2.5-55.8,3.2c-20,0.7-38.6-3.7-57.9,2
	c-9,2.6-36.3,11-55.1,9.7c-20.3-1.3-39.6,1.5-60,0.4c-10.5-0.5-18.8,1.1-28.6,3.7C825.1,333.1,747.6,335.9,737.4,337.3z"/>
</svg>
