<?xml version="1.0" encoding="utf-8"?>
<!-- Generator: Adobe Illustrator 18.0.0, SVG Export Plug-In . SVG Version: 6.00 Build 0)  -->
<!DOCTYPE svg PUBLIC "-//W3C//DTD SVG 1.1//EN" "http://www.w3.org/Graphics/SVG/1.1/DTD/svg11.dtd">
<svg version="1.1" id="Слой_2" xmlns="http://www.w3.org/2000/svg" xmlns:xlink="http://www.w3.org/1999/xlink" x="0px" y="0px"
	 viewBox="125 0 1547 1200" enable-background="new 125 0 1547 1200" xml:space="preserve">
<path fill="#000000"    d="M304.2,573.7c-7.6,4.8-12.7,18.5-14.5,26.5
	c-4.1-5.6,1.7-16.2,4-21.7c-3.1,3.7-5.2,7.8-7.5,11.7c-2.7-14.3,5.9-27.4,3.5-40.8c-3.8,4.5-4.2,11.2-8,16.1c0.1-6.1,0-12.3,0-18.4
	c-0.7,5.8-2.5,11.9-4.5,17.4c-2-10.7,0-23.4-2.1-34.2c-2.8,6.4-15.7,19.2-23.6,17.4c7.8-9,20.2-15.8,15.4-29.8
	c-8.3,4.9-10.4,11.6-16.8,18.4c-0.3-8.2,3.5-17.8,9.7-23.3c-5.6,3.5-15.4,13.1-22,12.3c0.3-4.5,14.5-15.1,17.4-19.9
	c-4.4,4.7-11.4,6.1-16.2,9.9c-0.7-8,10.7-13.3,9.7-21.2c-8.3,1-14.8,5.2-24.4,4.1c4.9-5.6,14.8-8.3,17.8-16.4
	c-3.8-3.4-10.3,3.1-14.4,4.2c-7.1,1.8-13,0-19.9,0c6.4-0.1,22.3-4,24.3-10c-8.5,1.7-18.5,8.8-28,6.4c4.9-2.7,18.6-7.2,18.9-14.3
	c-5.5,0-8.8,7.1-15.5,5.2c2.5-5.8,8.3-9.5,8.9-16.4c-4.1,5.9-15.7,14.5-22.2,16.4c2.7-6.5,6.4-11.9,8.5-18.6
	c-5.5,6.5-10.4,13.8-18.8,15.2c5.9-8.2,11.7-15.7,12.3-26.4c-3.2,4.4-9.6,6.5-14.3,7.3c1.8-2.7,4.4-5.4,5.4-8.3
	c-4.8,2.8-11.6,4.7-14.5,9.3c0.8-9,5.4-14.3,8.5-22.3c-3.5,2.7-8.2,5.2-10.9,8.8c0.1-4.7,4.8-10.9,6.6-15.2c-11,3.1-20,7.2-31.1,0.8
	c6.2-0.1,18.8-6.8,22-12.1c-5.1,1.4-9.3,0.8-14.3-1.6c-0.4-4,4.7-3.2,7.3-5.5c-4.5-1.7-22.3-8.8-25.3-6.9c6.9-3.7,14.5-8.9,23.2-7.6
	c-6.9,1.3-13.1-3.5-19.8,1c2-3.4,6.4-4,9.6-5.5c-3.2,0-6.5,0.1-9.6-0.1c-0.4-0.6-0.4-1.3,0-1.8c2.7-0.6,5.1-1.7,7.5-2.7
	c0.3-1.3,0.3-1.8,0-3c-5.4-0.7-9.7,1.3-14.3,2c2.3-8.5,14.4-15.5,19.8-21.9c-5.4,3.5-11.6,6.4-17.5,8.5c7.5-8.6,24.7-23.2,37-23.7
	c-4.9-4.2-17.9,3.2-22.3,6.9c3.2-6.6,14.3-11.9,21.2-14.8c8.6-3.7,18.1-3.4,25.8-6.2c-6.9,0.4-14.3-3.2-21.5-0.7
	c7.3-4.1,16.2-5.4,23.3-8.6c-0.4,0-0.8,0.1-1.4,0.1c8.2-7.2,23.3-2.5,32.9-2.3c-2.3-0.8-5.1-1.8-6.2-4.4c25.4-3,48.7-2.8,71.7,8.6
	c-0.6-1.6-0.8-3.7-2-5.2c4.1-0.3,15,6.1,17.9,9.5c-0.1-0.6-0.1-1.1,0.1-1.7c5.8,0,11.9,10.9,14.8,15.5c0-1,1.7-4,2.1-5.4
	c9.7,4.9,16.8,40.7,26.7,39.1c-0.3-2,0.6-4.5,0.4-6.5c5.2,0.4,14.3,6.9,17.4,11.3c-3.7-2.7-7.1-7.1-10.4-10.3c8-1,21.3,3.1,27.8,7.5
	c-3.4-4.1-10.4-7.2-14.7-9.5c18.8-3.2,37.3,6.4,52.7,14.3c-1-1.1-1.4-3.1-2-4.2c8.8,2.7,33.7,5.4,33.7,19.9c0.7,0.4,2.3,1,3,1.1
	c2.7-11.4,28-5.8,35.3-2.5c-2.4-2-4.2-4.8-5.6-7.2c3.2,0,13.4,10.4,18.8,12.1c-0.1-3.4,1.6-6.2,4.8-7.3c1.1,0.6,2.1,0.1,3.2,0.4
	c2.3-4.1,1.1-7.6,4.7-11.3c2.3-2.4,7.9-5.9,10.9-6.4c-1,3.2-1.1,6.6,0.1,9.6c1.3-6.5,5.8-14.3,12.6-16.4c-3.7,6.1-1,11.3-1,17.5
	c-0.8-6.5,3-13.7,7.9-17.6c3.7-3,14.1-8.3,17.6-5.4c-7.8,3-11.7,5.4-14.5,13c-2.4,6.6-1.8,12.1,5.9,15.2
	c11.2,4.5,30.9-6.8,23.6-20.2c2.4,3.5,3.5,9.3,8.9,8.5c0.3-4.2-2.1-15.1,3.4-15.4c1.1,3.8,3.8,8.5,7.9,8.6c-0.7-2.7-2.5-5.5-2-8.8
	c6.6,0.4,16.1,6.9,23.2,8.9c7.9,2.3,13.4-1,21.5-0.1c-0.4-4.8-8-8.9-2.1-14c-0.4,8.9,8.9,8.5,15.2,8.6c-3.7-1.7-5.1-5.1-4-8.9
	c5.5,0.6,7.8,8.3,15.1,7.8c-4.9-6.9-1.6-10.2,0.7-16.9c2.8,4.1,4.4,11.3,11.7,10.2c-3.8-2.7-4-7.9-0.7-11.2c4.5,3,7.9,7.9,13.3,10.3
	c5.9,2.5,19.8,3.7,24,3.1c-2.8-1.4-5.4-4.8-5.6-7.8c4.7-1.3,8.9,1.4,13.1,2.3c4.4,1,9.9,1.1,14.7,0.7c-0.8-3.4-6.6-7.6-3.2-11.7
	c1.6,5.4,3,10.6,9.9,9.6c-0.3-1.1,0.6-3,0.3-4.1c2.5-0.6,5.2-1.4,7.5-2.4c0.7,4.9,8,6.2,8.3,0c4.9,4.4,5.1,6.6,13.3,6.6
	c5.8,0,12.1,0.6,17.8-0.3c3.7-0.6,12.3-1.6,15.8-3.4c0,0,3.2-7.1,1.6-13.1c8.3-0.1,11.7,7.3,13.4,0.3c4.1,5.6,12.8,4.8,16.1-1.4
	c2.3,1.7,4.5,4.7,6.5,6.6l6.8-2.3c2.3,9.5,19.9,11.4,18.2,0.1c6.8,2.4,9.9-4.5,12.4-10.2c3,1.7,4.4,5.4,5.4,8.5
	c0.4-2.7,1.4-4.9,3.4-7.1c2.7,3.5,4.7,6.1,5.6,10.4c0.4-1.8,2-3.4,2.5-5.2c0.8,0.3,3.4,1.7,4.1,2.4c0.1,0.6,0.3,1.3,0.4,1.8
	c4.9,1.3,11.7-13.3,16.4-16.5c2.4,4.2,2.8,9.9,4.9,14.4c3.8-1.4,5.2-5.4,6.8-8.5c4.7,3.4,6.8,5.1,9,10.6c2.8-1.4,4.8-4.2,4.5-7.6
	c2.7,0,4.7,2.8,6.6,4.2c3.2-4.8,1.6-12.6,7.9-15.2c1.8,5.1,5.5,13,5.8,18.6c1.8-2.8,2.1-7.8,7.5-6.5c2.1,9.5,18.8-3.5,23.6-3.8
	c48.1-3.1,68-28.5,73.3-27.7c0.1,1.1,1.1,2.1,1.3,3.1c4.1-2.1,5.6-6.5,9-9.6c1.7,3,1.7,7.6,0.1,10.6c4-1.3,5.4-5.2,8.6-7.8
	c2.8-2.3,7.1-1.7,8.5-2.4c3.1-1.7,5.5-9.5,10.9-8.6c0,0.8,0.1,2,0.1,2.8c4.1-3.2,5.1-7.9,4.7-13c4.4-0.6,5.8,5.1,7.8,8.5
	c0-2.7,0.8-5.1,3.1-6.2c0.6,1.8,2,3.5,2.5,5.1c-0.4-4.9,4-9.5,7.6-11.9c-0.3,4.4,2.8,7.5,4.9,11.2c1.8-3,5.6-7.3,9.6-7.6
	c-0.1,1.6,4.9,8.5,4.7,10c1.8-1.7,18.5-21,21.3-24.1c5.6-6.4,10.4-13.7,17.1-18.4c4.2-2.8,22.2-36.1,26.5-44.2
	c4-7.2,9.5-13,14.7-19.3c5.6-6.8,7.9-12.1,10.6-19.9c6.4-17.8,9.7-35.3,14.1-52.9c8.6-34.3,36-60.8,67.8-76.2
	c8.3-4,38.4-19.1,47.3-20.6c17.4-2.8,33.3-7.9,51.8-7.9c17.8,0,33.9,3.8,50.4,8.2c13.3,3.5,31.5,12.6,41.9,21.2
	c11.3,9.2,13.6,26.3,23.9,36.8c6.6,6.9,71.2,6.4,80.8,8.2c8.5,1.6,18.2,0.6,26.8,2.5c19.8,4.7,8.6,28,5.6,40
	c-3.4,14-6.4,31.5-16.4,43.3c-9.5,11-22.9,23-36.3,28c-5.4,2-17.2,5.5-24.6,11c11.2,1,31.9-10.4,34.7,5.8c1.3,7.5,1.4,11.6,5.4,18.2
	c3.7,6.1,7.6,13.3,4.5,17.6c-3.1,1.8-4.8-5.6-8.6-5.4c0.4,15-18.6,25-30.6,29.1c-15.4,5.2-33.7,8.5-49.7,11
	c-17.5,2.7-34.4,1.8-51.5,0.3c-12.3-1.1-12.8,5.1-14.7,15.8c-1.4,9.2-1.1,18.6-1.1,28.1c0,10.9-2.3,20.2-4.8,30.1
	c-1.3,5.1-3.5,9.6,0.3,13.7c4.4,4.8,11.2,4.8,16.8,2.7c-2.1,2.5-4.5,5.2-7.3,7.1c2.5,2.5,11,2.1,14,0.4c2.4,10.4-9.3,13.8-16.4,17.1
	c-2.7,1.3-5.8,4.1-8.3,5.1c-3.8,1.4-7.5-1-8.6,4.4c4.2,1.7,8.5,3.7,13,3.7c-4.8,2-8,6.1-13,8.2c1.3,1,2.3,3.2,4,4.2
	c-14.7,4,12,20,16,9c-0.3,2.5-1.8,5.1-3,7.5c2.1,1,4.2,1.8,6.5,2.7c0,4.4-2.5,11.7-7.3,13.4c4.7-1.8,10.4-1.6,15.2-1
	c-3.8,11.9-20.6,12.7-29.1,18.6c12.1,1.3,16.8,17.9,18.9,27.1c-4.5-3.4-7.6-8.2-13.4-10.7c4.5,8.3,15.8,31.9,8,40.8
	c-1.4-4.8-1.8-11.4-6.6-14.1c3,6.9,2,15.1,2.1,23.2c-1.4-5.4-3.4-18.8-12.3-16.4c-0.1,5.5,1.6,11.9,2.1,17.8c0.6,5.9,0.8,12,2,18.1
	c1.1,6.1,3.1,9.9,7.3,14.4c5.2,5.6,8.9,5.5,15.4,8.3c0.4,0.6,0.4,1.3,0,1.8c-4,1.7-9,2-12.1,4.9c2,5.4,8.9,8.2,14.4,7.9
	c-0.3,3.8-10.9,5.1-14.4,5.5c-4.8,0.6-16.5-2.5-19.2,0c0,0,3,9.9,2.3,9.5c0,8.5,5.8,18.1,10.9,24.4c-8.2-0.4-11.6-10.3-16.5-15.4
	c0.7,4.1-2.3,8.5-0.1,11.9c-4.1-2.4-6.6-8.2-10-11.7c-2.5,3.7-2.5,7.6-1.3,11.9c-3.7,0.3-6.1-3.4-8.6-5.4c-3,9.6,4.2,17.8,1.8,26.8
	c-9.3-2.4-12.1-7.6-11,5.8c0.6,7.1,3.4,17.6,0,24.4c-0.8-4.9-2-9.2-6.5-11.9c-0.6,4.7,1.7,9.5,2,14.5c0.4,5.9-0.8,9.3-3.1,14.3
	c-0.3-4.7-0.3-11-3.4-14.3c-1,7.8,1.4,24.3-2.3,30.2c-1-7.2-5.2-10.4-8.2-16.4c0.1,6.6,1.8,14.3,1.3,20.6c-2.1-4.2-7.8-11.4-11-14.1
	c-0.4,5.4,4,11.3,5.4,16.8c1.8,6.9,1.8,14,3.4,21c-3.1-5.4-9.3-18.2-14.5-20.9c-1,11.2,0.1,25.6-7.9,34.4c0.1-3.5-0.6-7.3-1.6-10.6
	c-1.3,3.5-2.8,6.9-4.5,10.6c-1.1-2.7-2.1-5.8-4.2-8.2c-4.9,6.4,1.1,19.9-5.4,24.1c0.3-2.4-0.1-4.7-1.7-6.2c-2.7,3-1.1,6.5-4,9.3
	c-0.1-2.5-1.4-3.8-2.5-5.9c-4.2,4.9-5.8,11.7-9.9,17.2c-0.3-2.4-1.3-3.8-1.6-6.2c-7.5,1.1-9.2,22.7-12,28c-1-3.1-0.6-8.8-3.4-10
	c-3,7.2-6.8,15.1-12.3,20.5c-4.2,4.1-6.1,1.4-4,6.6c1.6,3.5,6.2,5.4,8,8.6c-4.2-1.4-7.9-4.8-12-6.5c-1.7,10.2,7.2,17.1,12.8,24.7
	c-5.9-0.3-11.9-4.9-17.5-5.5c1.3,3.1,3.7,6.8,4.2,9.7c-1-0.4-3.2-0.4-4.1-0.8c2,8.2,0.6,12.8-2.7,21.2c-3.2,8-5.9,15.8-8.8,23.7
	c-3,8.2-5.2,16.2-6.8,24.7c-1.6,8-3.2,18.2-3.4,25.8c0,4.7,0.4,8.2,0,12.3c-0.7,4.9-2.1,9.6-3.5,14.4c-2.3,7.8-6.1,17.1-8.8,25
	c-5.1,15-5.8,35.6-3.4,51.7c2.5,17.2,21.5,23.9,36,32.6c14.8,9,45,33,35.4,49c13,38.8-40,18.6-40.7,18.1
	c-12.8,14.5-47.3-13.6-53.1-15.2c0.7,6.9,11,10.6,14.1,16.9c3.4,6.9,3.2,17.5-5.6,20.9c-4,1.6-4,1.6-4,1.6s-4.4,11.4-9.3,13.4
	c-24.1,9.5-45.6-9-45.6-9s-5.2,8.6-12.3,6.5c-59.2-17.8-42.6-36-46.9-52.5c-3-11.9-1-24.4-2.3-37.1c-0.4-4.9-4.7-39.2-13.6-29.6
	c0.1-4.4-0.3-8.6,1.3-12.7c-1.4,1.7-3.2,3.1-4.7,4.8c0.1-3.5,1.3-6.4,2.1-9.6c-3.7,0.6-7.6,3-10.9,4.1c-0.7-7.1,4.7-12.7,7.5-18.8
	c-6.6-9.9-26.1,14.7-31.1,17.6c7.6-17.1,14.1-26.8,23-29.2c-6.5-0.6-11.4,4.9-15.2,8.9c2-6.8,10.6-17.4,16.4-21.5
	c-4.4,1.7-9.3,4.1-12.8,6.8c0.1-6.4,5.1-12.6,9.7-16.8c3.5-3.2,10.2-4.8,7.9-8.8c-6.1-10.3-22,10.9-26.5,14.3
	c0.4-5.4,5.2-12.6,7.9-17.6c2.5-4.9,3.8-7.6,6.4-12.4c-7.5,4.5-12.6,11.2-18.8,17.5c-1.8-12.1,6.8-19.3,15.1-28
	c-8.2,4-20.2,10.3-24.4,18.9c0.3-4.8,4.8-12.4,7.9-16.2c2.7-3.5,12.4-8.5,12.3-12.4c-3.8-0.8-7.6,0.3-10.9,2
	c-0.7-6.2,7.8-9,8.8-14.3c-7.5-2.1-16,5.6-18.8,11.9c3.2-6.9,6.8-16.4,13.1-20.9c-5.1,2.7-12.8,6.1-16.8,11.7
	c3.4-9.3,12.3-16.7,16.8-25.3c-9.5,6.4-14.4,15.2-22.4,23c4.2-8.3,8.5-15.5,13.4-23.3c3.4-5.4,12.6-13.8,12.4-20.2
	c-11.6,3.2-20,21-25.8,29.9c1.7-25.6,23.3-48.8,24.7-57.9c-11.3-3-21,13.7-26.5,21.5c-7.2,10-10.2,20.9-15,32
	c1.1-36.8,19.8-69.3,21.6-74.8c2-1-16.2-24.6-18.5-28.4c-5.1-8.3-5.9-21.6-11.9-28.9c-0.3,8,3.7,19.3,5.6,27.5
	c1.7,7.1,4.7,17.4,9.5,23.6c-6.2-4.9-16.2-22.7-15.4-30.8c0,8.6-0.3,17.5,1.1,25.6c1.3,7.8-0.1,15-6.8,20.9
	c0.3-6.8,3.4-12.7,2.1-19.9s-5.4-14-6.5-21c0.1,9.3,4.9,29.5-2.3,36.4c-2.3-3.2-1.3-10.2-2.3-14.3c-1.1-4.8-3.4-8.9-5.9-13.3
	c-4.4-7.3-11.7-13.8-15.5-21.2c2,9.9-1,21.3,11.9,33.3c-12.4-4.8-16.4-21.2-22.2-26.7c-6.4-6.1-11.6-12.8-17.5-19.1
	c-1.4,12.3,2.3,21.7,7.3,32.5c2.5,5.4,9.2,23.3,14.7,28.9c-10.4-9.6-29.6-46.4-32.8-52.5c-2.4-4.8-4.7-11.7-7.3-16
	c-0.1,9-2.1,19.2-3.5,28.1c-1,6.5-1.7,20-7.8,23.6c4.4-21.3,5.4-32.3-2.3-45.7c-1,8.5-0.1,15.7-5.1,23c-1.6-3.8-1-9-1.7-13.1
	c-1-4.9-11.3-32-19.2-37c-1,8.3-2.3,17.2-1.1,25.7c1.3,9.2,5.6,18.6,8.6,26.8c-10.4-10.3-8-28.4-15.8-40.2c-3,5.2-0.3,16.8-0.8,23.6
	c-0.6,7.2-3,15-7.1,21.3c-2-3.5,0.8-27.7,1.4-33.7c0.7-8.6,3.5-24.6-6.5-29.1c-6.2,13.1-1.1,31.8-3.5,46c-0.6,3.7-0.3,7.8-1.1,11.3
	c-1,4-6.5,25.8-12.1,29.1c2.4-11,17.8-38.1,6.5-77.5c-1.3-4.4-4.8-21.6-3.4-23.6c0,0-7.9,25-7.9,40.5c0,7.6-5.5,40.5-5.6,49.1
	c0.1-16.9,1.1-34,1.1-51.2c0-12.1,2-30.2-5.4-39.5c0.4,10,1.7,21.7,0.8,32.5c-0.8,10.2-0.8,24.1-7.9,32.3c-0.3-8-1-41.4,0-48.8
	c-4,26.7-13.3,43.5-23.2,63.5c2.3-9,7.5-16.7,9.6-25.6c2.1-8.6,2.1-16.5,2.4-25.6c-5.9,7.3-11.9,13.4-18.2,20.5
	c7.9-12.3,16.9-20.2,15.8-35.6c-0.4-6.8-2-13.3-4.2-19.3c-2-5.6-6.6-10.7-8.2-16.2c-1.7,13.1-3.5,26.5-4.5,40.1
	c-0.7,9.9-6.8,45.6-14.7,57c2.1-13,7.8-24.6,7.9-37.8c0.1-12.4-3-24.7-2.3-36.8c-4.9,7.8-6.4,19.1-10.4,27.7
	c-3,6.5-9.9,20.2-16.5,22.3c5.5-8.2,10-16.2,13.3-25.8c1.7-4.8,2.7-8.2,3.4-13.4c0.7-4.5,0.1-11.3,2.4-15.4
	c-3,15.1-14.8,27-24.4,38.1c7.3-10.9,13.7-27.5,16.5-40.4c-3.5,5.6-7.6,11.7-12,16.7c1-4.7,3.4-12.1,2.1-15.8
	c-3.5,7.9-6.4,16-10.4,23.4c-4.7,8.8-11.3,15.5-17.8,22.4c2.8-5.8,5.2-11.7,7.5-18.2c1.7-4.9,3.1-14.8,7.1-17.8l-18.1,20.2
	c-4.7,3.5-6.9,19.8-9.9,25.8c-4.5,9.7-9.5,19.6-13.8,29.2c-4,8.9-8.9,18.1-14.7,26c-5.5,7.5-12.7,12.3-18.6,19.3
	c4.1-7.5,13.3-16.2,14-24.8c-7.2,3.7-11.9,12.4-17.5,18.2c-7.1,7.3-16,12.1-23.4,18.9c4.5-8.3,19.8-17.5,19.9-26.8
	c-3.4,4-12.8,14-17.8,11c-10.4,11-49.1,38.3-55.6,43.3c-8.2,6.5-15.8,12-23.2,19.8c-10.7,11.3-22.6,20.9-28.4,35.7
	c-6.1,15.7-6.2,36.3-3.4,52.9c2.4,14.5,7.2,26.3,15.5,38.5c5.9,8.8,9.9,26,19.3,30.1c4.4,1.8,8.2,0,12.6,0.3c3.5,0.3,9.2,2.4,12.6,4
	c8.8,4,13,8.3,14.3,17.2c1.7,11.6-2.3,11.6-12.4,15.7c-6.9,2.8-13.7,6.1-21.3,6.8c-9.9,1-17.1-2-26-3.4c-7.5-1.3-15.2-3.7-21.7-7.6
	c-13.8-8.6-16.8-24.8-25.3-37.7c-18.1-27-35.2-57.6-45.3-88.7c-2.5-8-2.5-17.8-5.5-26c-2.5-6.9-10-10.9-12.4-17.9
	c-5.4-15.8,5.8-29.2,16.4-42.2c10.4-12.8,21.3-24.7,32.9-35.7c1.8-1.7,6.5-5.1,7.3-7.3c1.7-4.8-1.3-5.6-3.5-9.6
	c-3.4-6.2-5.5-15.2-11.3-19.9c-1.1,5.5,4.8,21.5,8.6,25.3c-4.1-2.5-20.9-13.4-18.9-20.5c-5.6,6.6,6.8,27.4,10.2,34.2
	c-3.4-3.7-15.1-18.9-18.4-25.4c-5.6,2.8,4.5,28.8,5.8,34.7c-3.4-1.8-14.3-21.9-17.9-25.3c-0.1,0.4-2.1-1.6-3.1-2.7
	c-1.1,9.7,9.2,19.3,7.5,29.9c-5.8-5.8-10.9-23.3-18.6-24.3c-3.5,10.4-8.6,20-14.1,30.2c-2.4-4.2,0.8-11.7-2-16.4
	c-5.9,6.2-10.9,11.3-17.2,17.2c-8.9,8.5-16.7,17.9-25.4,26c2.8-7.3,8.9-15.4,10.9-22.2c-5.4,0.6-15.7,13.7-20.3,17.8
	c-6.2,5.4-11.9,11.3-16.9,17.8c-9.6,12.3-17.1,26-27,38.3c-10.7,13.3-42.1,77.4-39.1,96c2,12.1,5.8,25.3,9,37.1
	c0.7,2.7,1.6,6.6,3.1,9c2.5,4.2,3.5,2.8,7.1,4.7c5.5,3,8.9,4.4,12.7,9.6c4.1,5.8,14.4,24.8,6.8,30.9c-2.7,2.1-14.1,10.6-20.6,8.8
	c0.7,10-21.7,8.2-29.1,4.2c-6.2-3.4-9.7-4.5-9.7-4.5s-3.5,5.5-9,6.5c-9.7,1.7-31.8-8.5-35.7-16.2c-16.2-31.6-7.9-72.8,3.7-104.8
	c3.1-8.6,12.3-42.9,13.6-51.8c1.3-8.2-1.4-18.2-2.1-26.1c-0.7-9.7,6.1-17.5,9.9-26.3c3.2-7.5,2.7-14,3.4-21.9
	c0.4-4.2-1.3-9.6-0.1-13.6c1.1-3.5,4.4-5.9,7.1-8.8c12.8-12.8,26-24.8,40.2-36.1c10.9-8.5,22.6-22.4,24.7-36.1
	c1.4-8.8,1.7-17.5,3.2-26c1.4-7.3,5.1-16.1,4.4-23.3c-3.7,3.4-5.2,9.7-10,11.6c0.3-8.9,0.8-13.7,4.2-21.2c3.4-7.5,7.6-13.8,9-21.3
	c2.8-14.5,10.7-36.7,9.3-51.5c-1.6-15.7-1.7-36.3,1.1-52.9c1.3-7.9-5.1-6.1-1.4-13.6c3.7-7.3,11.2-16,10.4-24.4
	c-2.1,5.1-7.5,9.5-10.4,14c-3.8,5.8-7.2,9.6-14,12.7c5.4-7.1,9.6-11.6,12.6-20.3c-3.7,3.4-8,5.6-11.9,8.9c-4.7,4.1-3.8,8.5-6.8,13.1
	c0.3-6.2,0.6-15.7,3.2-20.8c-6.8,3.4-8.6,15.8-12.3,21.9c0.1-4.7-0.7-9.7,0-14.3c0.7-4.1,3.4-7.5,2.1-12.3c-5.6,3-8.2,14.3-11,19.8
	c-4.4-6.8-0.1-10.2,1.8-16.7c-4.9,5.1-18.8,19.9-26.4,15.1c8.2-1.7,17.4-12.1,20.2-19.5c4.2-11-0.3-12.7-5.6-20.9
	c1,5.2-1.7,6.6-3.7,10.7s-1.3,8.3-3.1,12.1c0-4.2-0.4-8.8-0.3-12.8c0.1-2.7,2.1-8.5,1.1-11.3c-6.5,1.3-4.8,15-9,19.8
	c-6.2-7.1-1.1-24,3.7-29.9L304.2,573.7z"/>
</svg>
