<?xml version="1.0" encoding="utf-8"?>
<!-- Generator: Adobe Illustrator 18.0.0, SVG Export Plug-In . SVG Version: 6.00 Build 0)  -->
<!DOCTYPE svg PUBLIC "-//W3C//DTD SVG 1.1//EN" "http://www.w3.org/Graphics/SVG/1.1/DTD/svg11.dtd">
<svg version="1.1" id="Слой_1" xmlns="http://www.w3.org/2000/svg" xmlns:xlink="http://www.w3.org/1999/xlink" x="0px" y="0px"
	 viewBox="0 0 1024 747.9" enable-background="new 0 0 1024 747.9" xml:space="preserve">
<path fill="#000000"      d="
	M1007.9,178.8c-20.3,4.6-32.8-13.3-32.8-13.3c-15.7-17.8-48-30.2-48-30.2c8.7-2.5,23.6,4.1,23.6,4.1c24.4,12,50.5-7,50.5-7
	c12-4.9,14.1-18.3,14.1-18.3c5-8.7,4.1-21.5,4.1-21.5c-1.7-5.8-17.8-7.5-17.8-7.5c-10.8-6.6-27.3-7-27.3-7l-14.5-5
	c-5.4-2.1-7.5-9.9-7.5-9.9c1.2-9.9-3.7-14.9-3.7-14.9c-6.2-5-9.9-11.2-9.9-11.2C934.1,18.6,896.4,8,896.4,8
	C819-9.8,800.8,37.2,800.8,37.2c-2.9,9.1-30.6,27.3-30.6,27.3c-16.6,7-46.4,43.3-46.4,43.3c-13.3,9.5-27.3,25.1-27.3,25.1h3.2
	c-3.3,6.4-13.1,8-13.1,8c4.6,2.5,4.6,2.4,4.6,2.4c-4.1,5.8-14.5,10.7-14.5,10.7l5,0.8c-17,5.4-53.4,29.4-53.4,29.4
	c-28.6,0-51.8,9.1-51.8,9.1c-24.4,7-87,5-87,5C360.5,195,318.7,207,318.7,207c-46.8,2.9-83.7,20.7-83.7,20.7
	c-73.7,2.9-84.5,96.9-84.5,96.9c-8.7,40.6-27.3,51.3-27.3,51.3c-34.4,23.1-71.7,8.6-71.7,8.6c-27.8-13-46.4,0-46.4,0l4.6,5.2
	L1,386.5c6.2,13.4,19.9,23.1,19.9,23.1l-7-2.5c7,12.8,31.5,22.8,31.5,22.8l-10.8-1.2C51.9,443.9,77.2,441,77.2,441
	c-5.4,5-17,3.7-17,3.7c12.4,6.6,36.5,2.5,36.5,2.5c-1.2,2.9-9.5,4.6-9.5,4.6c31.5,1.2,48.5-12.4,48.5-12.4
	c-3.7,6.6-10.8,11.2-10.8,11.2c7.5-0.4,29-19.1,29-19.1c-1.2,5-7.5,11.6-7.5,11.6c7.5-4.1,20.3-17.4,20.3-17.4
	c-3.7,8.7-18.2,35.2-18.2,35.2l4.1-2.5C135.2,490.3,90,518.9,90,518.9c-20.3,10.8-10.8,34-10.8,34c-26.1,8.7-17.8,33.5-17.8,33.5
	c2.5,8.3,4.1,57.2,4.1,57.2c0.4,24,4.1,66.7,4.1,66.7c0.4,6.2,7.5,17.8,7.5,17.8c3.3,24.9,26.9,17,26.9,17c10.8,3.3,7-2.1,7-2.1
	c15.7,2.9,28.6-7.9,28.6-7.9c7,2.5,2.5-8.3,2.5-8.3c5.8,1.2,4.1-2.1,4.1-2.1c-7.5-17.8-20.3-14.1-20.3-14.1
	c-8.7,0.4-16.2-15.3-16.2-15.3c-4.1-14.1-3.7-31.5-3.7-31.5c9.9,10.4,39.8-1.7,39.8-1.7c9.5,4.6,8.7-2.1,8.7-2.1l8.3-3.3
	c5.4,1.2,0.8-5.4,0.8-5.4c-8.7-22-34.8-18.2-34.8-18.2c-6.6-8.3-6.2-30.6-6.2-30.6c9.1-19.1,36.4-32.3,36.4-32.3
	c10.4-2.9,42.2-16.2,42.2-16.2c82.8-40.6,103.5-86.6,103.5-86.6c19.9-37.3,37.7-45.1,37.7-45.1c4.6,7,20.7,11.2,20.7,11.2
	c29.4,8.3,27.7-12,27.7-12c9.1-12.4,28.2-1.2,28.2-1.2c44.7,26.5,103.1,25.3,103.1,25.3l-3.7,3.7c3.7-3.7,20.3-4.1,20.3-4.1
	l-2.9,3.3c6.6-3.7,19.1-1.7,19.1-1.7l-4.1,2.5c17.4-1.7,76.6,22,76.6,22c-1.7,4.1,0.4,34.4,0.4,34.4c-1.5,68.3-10.8,95.3-10.8,95.3
	c-6.6,22.8,5.4,22,5.4,22c7,0.8,8.3,24.4,8.3,24.4c-0.8,29.4,15.7,24.9,15.7,24.9c9.1,1.2,11.6,26.5,11.6,26.5l2.5,18.2
	c0,14.9,11.6,17,11.6,17c7.9,12.8,25.3,12.4,25.3,12.4c21.5,5.4,24.9-4.6,24.9-4.6c11.6,2.1,12.8-2.1,12.8-2.1c3.3-2.5,5-5.4,5-5.4
	c1.2-6.2-7.5-14.9-7.5-14.9c-13.3-13.7-28.2-10.4-28.2-10.4c-6.6-6.6-11.6-24-11.6-24c-0.4-14.9-3.3-37.7-3.3-37.7
	c8.3-41.8,20.7-107.3,20.7-107.3c29.4-91.5,35.6-93.6,35.6-93.6l5.8-2.5c-3.3,0-4.6-3.3-4.6-3.3c1.7,0.4,5,0,5,0
	c-2.9-1.2-0.4-6.6-0.4-6.6c25.7-23.6,37.7-47.5,37.7-47.5c10.3-6.5,14-19.5,14-19.5l2.6-13.3c9.5-9.5,9.1-40.6,9.1-40.6l2.9,3.3
	c-2.9-3.3,2.1-26.1,2.1-26.1c4.6-15.7,26.1-53.8,26.1-53.8c11.9-14.5,20.2-18,20.2-18c-2.5-2.1-2.9-5.2-2.9-5.2l5,2.7
	c-6.6-5-0.7-21.8-0.7-21.8l1.7,4.1c0.8-20.3,22.8-14.9,22.8-14.9c3.3,3.3,25.7,11.2,25.7,11.2c12.4,8.7,22,5.4,22,5.4l-2.9,3.3
	c6.6,0.8,12.4-2.9,12.4-2.9l-1.7,2.9c15.3-3.3,17.4-15.7,17.4-15.7c1.7-0.4,3.3-2.5,3.3-2.5c31.1,14.1,51,0,51,0
	C1022.9,174.3,1007.9,178.8,1007.9,178.8z M952.6,174.7l-6-3.5c0,0,8.2-2.3,12.1,0C958.7,171.2,956.3,174.7,952.6,174.7z"/>
</svg>
