<?xml version="1.0" encoding="utf-8"?>
<!-- Generator: Adobe Illustrator 18.0.0, SVG Export Plug-In . SVG Version: 6.00 Build 0)  -->
<!DOCTYPE svg PUBLIC "-//W3C//DTD SVG 1.1//EN" "http://www.w3.org/Graphics/SVG/1.1/DTD/svg11.dtd">
<svg version="1.1" id="Слой_1" xmlns="http://www.w3.org/2000/svg" xmlns:xlink="http://www.w3.org/1999/xlink" x="0px" y="0px"
	 viewBox="60.1 0 891.8 768" enable-background="new 60.1 0 891.8 768" xml:space="preserve">
<path fill="#000000"      d="
	M905.3,493.9c17.8,10.4,17.8,28.8,17.8,28.8c-3.1,14.1,1.8,27,1.8,27c4.9,5.5,16,45.4,16,45.4c6.8,12.3,11,35,11,35l-7.4-3.1
	l4.9,12.9l-7.4-6.1l3.1,6.8c8.6,26.4-19,23.9-19,23.9c-7.4,10.4-9.2,1.2-9.2,1.2c-8,6.1-26.9,2.5-26.9,2.5c-6.1,6.8-9.9-4.3-9.9-4.3
	l-8-1.8c-8,5.5-3.7-8.6-3.7-8.6c1.8-20.3,17.2-22.7,17.2-22.7c9.8-15.3,0-54.6,0-54.6l-4.3,4.3c0.1-2.5,0-4.9-0.3-7.2
	c-1.9-15.8-11.3-24.7-11.3-24.7c-19.6-6.1-37.4-24.6-37.4-24.6l3.4,12.9c-7.4-3.1-35-40.8-35-40.8v5.8c-16-32.5-54.5-39.9-54.5-39.9
	c0,3.7,11,8,11,8c21.5,6.1,12.3,31.9,12.3,31.9c-4.3,7.4-8.6,33.8-8.6,33.8l-3.6,22.4l-3.2-9.5c-1.1,3.7-9.6,54.3-9.6,54.3l-2.1-12
	c-6.4,11,0.1,25.8,0.1,25.8c-3.1,0-5.5-4.3-5.5-4.3c-1.2,14.1-19,15.3-19,15.3c-11.7,8-44.8,1.8-44.8,1.8c-8.6,5.5-8.6-1.2-8.6-1.2
	l-4.9-1.8c-7.4,3.7-2.5-8.6-2.5-8.6c-0.6-25.8,26.3-33.1,26.3-33.1c14.7-5.5,22.8-29.5,22.8-29.5c6.8-23.3,0-23.3,0-23.3
	c-16.6,4.9-24.8-8.6-24.8-8.6c-4.3,2.5-10.1,19.7-10.1,19.7v-10.5c-5.3,1.8-13.2,16.6-13.2,16.6l-3.5-8.6c-3,2.7-7.9,18.4-7.9,18.4
	l-4.5-11.7c0,6.8-8.2,21.4-8.2,21.4v-9c-1.1,4.3-6.1,9-6.1,9l-1.2-3.5c0,4.3-6.5,9.7-6.5,9.7c-2.8-9.1-4.8-11.7-4.8-11.7l-3.7,15.3
	c1.2-5.5-4.9-14.7-4.9-14.7c2.5,6.1-3.7,23.3-3.7,23.3c0-6.1-6.1-12.9-6.1-12.9l-2.7,8c-1.8-8.6-8.4-10.4-8.4-10.4v11.6
	c-7.5-11-22.4-6.1-22.4-6.1c-4.3,5.5,3.9,11.7,3.9,11.7c-11,1.8-18.3-1.2-18.3-1.2c-3.7,4.3,4.7,8,4.7,8c-11,2.5-22.3-1.5-22.3-1.5
	v8.2l-5.3-4.9c3.1,9.2,0.1,19,0.1,19l-5.5-7.4c2.5,9.8-5.5,25.8-5.5,25.8l-3.1-6.8c-4.4,9.8,0,20.3,0,20.3
	c-5.6,1.8-12.2-11.7-12.2-11.7c-3.7,12.3,5.3,24.6,5.3,24.6c-13.5,3.1-19.7-5.2-19.7-5.2v15l-8.7-11.7c6.1,11,5.9,43,5.9,43
	c-1.2-5.5-6.1-6.8-6.1-6.8c6.1,6.8,0,38.7,0,38.7l-5.5-9.8c1.8,8-2.4,20.9-2.4,20.9l-2.5-4.3c-9.2,23.9-66.9,21.4-66.9,21.4
	c-6.2,9.1-8.6-0.7-8.6-0.7c-5.5,2.9-12.3-4.9-12.3-4.9c-11,12.2-11.7-2.4-11.7-2.4c-10.4,9.8-4.9-14.1-4.9-14.1
	c-4.3-22.7,22.7-27,22.7-27c13.5-14.1,14.7-36.8,14.7-36.8l-8,11.7c11-21.5,7.4-65.1,7.4-65.1l-4.3,10.4
	c1.2-39.9-22.7-39.9-22.7-39.9c-6.8,1.8-3.1,23.9-3.1,23.9c-7.4-3.1-9.2-9.2-9.2-9.2c-2.5,12.9,3.1,33.1,3.1,33.1l-8-6.1
	c6.8,9.2,7.4,34.4,7.4,34.4c-1.8-4.3-7.4-14.1-7.4-14.1c3.1,6.1,3.1,14.7,3.1,14.7c-1.8,18.4,0.6,31.3,0.6,31.3
	c-6.1-0.6-6.1-7-6.1-7c-6.1,39.9-56.5,32.7-56.5,32.7c-9.2,9.1-11,0-11,0c-5.5,0.5-14.1-3.2-14.1-3.2c-9.8,8.3-14.1-2.2-14.1-2.2
	c-8.6,8.6-6.8-11-6.8-11c-3.1-24.5,19-27.6,19-27.6c12.3-3.7,14.1-12,14.1-12c-6.8-18.4-0.1-61.2-0.1-61.2h-5.4
	c6.8-9.6,2.5-30.9,2.5-30.9l-1.8,9.1c-16-50.3-7.4-74.9-7.4-74.9c-4.9,5.5-12.9,5.5-12.9,5.5c9.2-4.3,9.2-20.9,9.2-20.9
	c-0.6,9.2-9.2,11.7-9.2,11.7c8-5.5,3.1-36.2,3.1-36.2l-3.1,11.9c-6.1-19,1.6-47.2,1.6-47.2h-4.6c6.8-14.9,3.1-40.4,3.1-40.4
	l-6.8,6.3c5.5-9.3,1.8-31.9,1.8-31.9l-4.3,5.5c0-43-20.9-31.3-20.9-31.3c-5.5,0-17.8,25.8-17.8,25.8l-0.6-6.1
	c-3.7,3.1-8.6,17.7-8.6,17.7l-0.6-7.9c-10.4,8.6,0,21.5,0,21.5c-5.5,1.8-13.5-2.5-13.5-2.5c0.6,4.3,9.8,8.6,9.8,8.6
	c-8.6,3.1-25.2-8-25.2-8l6.8,8c-14.1,0-28.8-16-28.8-16c-3.1,1.2,4.3,9.2,4.3,9.2c-12.9-3.1-22.7-17.8-22.7-17.8l6.1,11.5
	c-16.6-9.4-34.4-33.6-34.4-33.6c-11.7-3.1-28.2-28.8-28.2-28.8c-28.2-15.3-5.5-30.7-5.5-30.7c6.8-16,44.1-42.3,44.1-42.3
	c27-22.7,29-36.2,29-36.2c9.2-31.3-10.4-36.2-10.4-36.2c5.5-5.5,16.6,1.2,16.6,1.2c-4.3-6.1-3.1-20.3-3.1-20.3
	c2.5,9.2,9.2,10.4,9.2,10.4c-7.4-7.4-3.7-16-3.7-16c0,10.4,12.6,12.9,12.6,12.9c-4-12.3,0.3-13.5,0.3-13.5c-2.5,11,9.8,7.4,9.8,7.4
	c8-21.5,60.8-41.7,60.8-41.7c8.6-8-2.5-45.4-2.5-45.4c-11-41.7,0-42.3,0-42.3c16-0.6,17.8,20.9,17.8,20.9c1.8,16,12.9,27,12.9,27
	c3.7-19,10.4,0,10.4,0c3.7,24.6,12.3,31.9,12.3,31.9c8,13.5,46.7,25.2,46.7,25.2c30.1,5.5,56.5,48,56.5,48l-9.7-3.5
	c0,0,36,26.1,45.2,43.9l-8.6-1.2c0,0,27.6,19,36.2,32.5l-4.9-0.6c0,0,29.5,30.7,52.2,26.4c0,0,57.7-8.6,84.1-27.6l-8.6,9.2
	c0,0,62.6-27.6,70-34.4l-5.2,6.8c0,0,85.6-23.9,105.3-18.4c0,0,6.8-8,3.7-22.1l4.9,9.2c0,0,2.5-22.7-1.8-30.7l6.8,9.8
	c0,0,6.8-62.6-4.9-82.2l9.2,8.6c0,0-11.7-55.3-37.4-78.6l15.3,11.1c0,0-14.7-19.6-14.1-39.9l6.1,10.4c0,0-0.6-5.5,0.6-13.5
	c0,0,18.4,32.5,30.1,41.1l-9.8-20.3c0,0,37.4,21.5,42.3,46l1.2-12.3c0,0,14.1,28.2,11,43l4.9-20.3c0,0,5.5,44.8-1.2,62.6l7.4-10.4
	c0,0-4.3,54-18.4,65.7l14.1-11.7c0,0-10.4,37.4-18.4,42.3l8-4.9l-6.8,14.7l9.2-10.4c0,0-4.3,12.3,2.5,21.5c0,0,48.5,41.7,63.2,92.1
	l-6.1-3.7c0,0,17.2,25.3,18.4,46.4l-6.1-4.7c0,0,6.1,15.3,11,17.2l-7.4-1.2c0,0,16.6,28.3,20.9,38.7l-6.8-5.5c0,0,3.1,21.5,11,28.2
	l-8-3.1c0,0,6.1,12.9,11,13.5l-9.2-1.2c0,0,1.8,17.2,8,19l-8.9,0C899.5,485.9,898.1,489.6,905.3,493.9z"/>
</svg>
