<?xml version="1.0" encoding="utf-8"?>
<!-- Generator: Adobe Illustrator 18.0.0, SVG Export Plug-In . SVG Version: 6.00 Build 0)  -->
<!DOCTYPE svg PUBLIC "-//W3C//DTD SVG 1.1//EN" "http://www.w3.org/Graphics/SVG/1.1/DTD/svg11.dtd">
<svg version="1.1" id="Слой_2" xmlns="http://www.w3.org/2000/svg" xmlns:xlink="http://www.w3.org/1999/xlink" x="0px" y="0px"
	 viewBox="0 147 1590 957" enable-background="new 0 147 1590 957" xml:space="preserve">
<path fill="#000000"    d="M1583.4,542.1c-6.4-0.7-13,0.8-19.1-1.3
	c-2.8-0.9-4.6-2.9-6.8-4.9c-1.6-1.5-4.6-2.5-5.6-4c4-0.7,7.9,2.4,11.5,3.8c2.9,1.2,6,2.6,8.7,4.1c0.4-2-1.3-3.4-2.5-4.6
	c2,1.6,4.2,2.5,6.5,3.8c-1.2-1.6-1.1-3.7-2.1-5.3c-1.2-1.7-3.8-3.6-5.7-4.5c-5.8-3.3-12.9-5-19.5-5.8c1.6-1.7,6.9-1.3,9.4-1.2
	c4.4,0.3,8.1,1.1,11.8,3.7c3.3,2.3,5.7,4.5,8.2,7.4c1.6,1.9,5,5.2,4.8,7.8c0.8-4.6-1.7-9.9-4.5-13.5c-2.9-3.6-7.8-6-12.3-7.8
	c-5.3-2.1-10.9-1.3-16.4-2.1c-2.5-0.4-5.6-1.2-7.3-3c-0.8-0.9-0.8-2.1-1.7-3c-0.9-0.8-2.3-0.8-2.9-1.9c3.6-0.4,6.8,0,9.7,2.1
	c1.9,1.5,3.2,4.2,5,5.3c1.6-2.4-0.5-8.6-1.7-11.1c-1.9-3.8-5.4-6.5-8.9-8.9c7.6,3,14.7,8.3,14.4,17.2c1.2-2.4,2-4.1,2.4-6.9
	c2,1.5,0.5,3.3,1.2,4.8c2.1-6.8-0.5-15.5-6.1-20.4c-6.4-5.6-16.2-7.7-24.4-8.1c2.4-3.4,7.3-0.8,10.6-0.8c2.3,0,4-1.1,5.7-2.3
	c-1.1,0.1-2.4-0.1-3.6-0.5c-2.5-1.1-3.7-4.5-6.2-4.9c3-4.5,10.1-3.2,14.2-1.3c-3-5.7-10.9-4.8-16.2-5.3c1.1-1.9,2.8-3.2,2.5-5.6
	c-3,3.3-7.4,6.5-12.1,6.5c-0.8,0-3,0.1-3.6-0.5c-1.1-1.5,0.8-1.7,1.9-2.5c2.3-1.7,3.8-3.3,5.7-5.4c-1.9,0.8-4.4,0.4-6.4,0.4
	c1.6-1.3,3.3-2.5,4.8-4c1.5-1.3,2-3.7,3.4-4.9c-3.3,2.9-8.3,4.4-12.7,3.7c-4-0.5-7.4-4.1-10.2-7c1.3,1.1,3.8,0.3,5.6,0.8
	c-5.8-4.2-11.9-9.1-18.2-13.4c-6.8-4.6-11.5-5.8-20-5.7c1.2-1.1,2.1-2.5,3.7-2.6c-6.2,0.1-13.2,2.1-18.6,5.3
	c-2.9,1.9-12.2,10.7-14.7,13.1c-0.4-2.9,13-15.9,11.1-18c-1.7,3.2-22.3,25.8-24.5,31.1c-1.6,3.7-3.6,7-3.8,11.1
	c-0.3,3.4,0.9,6.4,1.2,9.4c0.7,7.3,1.1,13.4-0.7,20.4c-1.1,4.2-4.8,14-9.8,14.6c0.1-0.5-0.3-1.5-0.1-2c-2.7,2-4,4.9-6.6,7
	c-2,1.5-4.1,3-6.1,4.5c-2.3,1.7-4.2,3.7-6.8,5.2c-3.3,1.9-7.2,3.2-10.6,4.6c-8.1,3.6-16.6,5.2-25,6.5c-5.7,0.9-10.9,2.4-16.8,1.7
	c0.9-1.5,1.5-3.4,1.6-5.2c-8.3,5.2-18.4,4.5-28,3.6c-9.3-0.9-18.7-5.8-27.2-9.7c-9.4-4.4-18.3-7.2-25.8-14.7
	c-5.8-5.8-12.3-10.7-18.3-16.2c-5.3-4.9-13.9-9.3-21.2-9.3l-5.8-2.6c-2.7,0.1-8.2-3.7-10.6-5.2c-3.6-2.1-7.4-3.7-10.7-6
	c-5.8-4-12.3-6.9-17.6-11.5c-7-6.1-63.5-44.1-73-50.2c-8.1-5.2-16.8-11.8-25.8-15c-19.3-7-38.6-14.8-57.9-21.7
	c-10.3-3.7-21.3-4.9-32.1-7.2c-12.5-2.6-25.3-3.7-38.2-4.5c-21.7-1.3-44.3-4.1-65.3-8.5c-13.5-2.8-28.1-1.6-41.9-2.6
	c-11.9-0.8-137.3,2.1-144.2,2.5c-7.3,0.5-14.6,0.8-22,1.1c0.7-0.5,1.2-1.2,1.9-1.9c-1.2,0.3-2.5,0.7-3.8,0.4c0.3-1.6,2.4-3.7,3-5.6
	c-0.8,0.5-1.6,1.1-2.3,1.6l-5.3-0.4c-5.4,0-11-0.5-15.6-3.4c-1.3-0.8-0.5-1.3-2.5-1.5c-1.5-0.1-3.6,0.8-5,0.9c-3.2,0.1-5.2-0.9-3-4
	c-1.6,0.1-3.3,0.7-4.8,1.2c0.3-1.9,0.5-3.7,0.3-5.7c-1.6,0.7-13.6,3.4-17.2,3.2c-4-0.3-7.7-0.8-11.5-1.5c-3-0.5-6.1-1.7-9.1-1.7
	c1.5-1.2,0.7-4.4,0.8-6.1c-2.9,3.3-14.8,2-19.2,1.6c-5.2-0.5-10.3-0.8-15.5-1.3c-7.2-0.7-14.6-0.8-21.7-0.9c-3.3,0-6.4-0.3-9.4-0.9
	c-2.4-0.4-4.6-1.7-7-1.9c1.3-2.4,2.3-4,2.3-6.9c-4.1,5.2-10.3,2-15.5,2c0.8-2.3,0.4-3.8,0.4-6.5c-2.1,4.8-12.7,7.8-12.1,0.4
	c-1.9-0.5-3.4,1.2-4.8,1.6c0.1-2.5-0.3-5.7-0.7-8.3c-1.2,1.1-2.3,2.8-3.2,4.4c-1.1-1.3,0.4-5,0.1-7c-0.3-2-0.9-4.9-1.9-6.5
	c-0.4,2.1-0.4,4.6-1.9,6.5c-1.1,1.3-2.4,2-3.3,3c-0.1-2.8-1.2-5.3-0.9-8.2c-0.8,1.6-2.8,4.5-4.4,4.6c-0.5-3.4,0.9-6.6-0.1-10.2
	c-0.4-1.7-1.5-2.8-1.9-4.5c-0.4-1.5,0.1-3.3-0.1-4.9c-2.3,4.5-6.5,11.9-12.6,12.3c1.9-2.9,2.6-9.1,0.8-11.9c-0.1,3.2-3.6,7.6-7,7.2
	c0.5-1.5,0.3-3.6,0.3-5.2c-0.1,0.3-0.4,0.4-0.5,0.7c-3.4-1.6-8.2-1.7-11.9-3.3c-4.8-2-8.9-6.2-13.2-9c-5.2-3.3-11.4-6.9-15.6-11.5
	c-2.8-3.2-5.2-6.6-7.9-9.8c-4.6-5-8.7-10.1-13.8-14.7c-7.2-6.6-16.7-10.2-25.7-14.2c-4.2-1.9-8.6-3.8-12.5-6.4c-2.4-1.5-6.4-4.4-7-7
	c1.2-0.3,2.3-0.8,3.4-1.1c-1.6-1.3-4.9-2.8-6.9-3.4c1.6-0.5,3.4-1.1,5.2-1.1c-1.6-1.2-4.6-1.2-6.6-1.7c-2.6-0.7-4.1-2-6.4-3.4
	c-2.8-1.7-6-2.8-8.7-4.4c-2.9-1.6-5.6-3.6-8.5-5.3c-10.6-6.6-17.6-17.2-26.6-25.4c-6-5.4-12.3-9.4-19.6-13c-6.5-3.2-13.6-4.5-20.4-6
	c-3.7-0.8-18.7-0.4-22.7-0.1c-3.8,0.3-18.5,1.6-22.3,1.9c-15.9,1.3-31.5,4.9-47.2,7.4c-7.4,1.2-14.6,2.5-20.9,6.5
	c-3.2,2-6.4,3.8-9.3,6c-2.5,1.9-6.9,4.9-6.9,4.4c-2.1,1.7-4.2,4-6.5,5.7c-2.4,2-3.4,4.5-5.6,6.6c-3,3-7.9,5.7-9.7,9.9
	c-2.3,5.6-0.1,12.2,0.4,17.8c0.9,8.5-17.8,22.5-23.1,25.4c-20.7,11.1-75.1,44.8-77.4,47c-3.7,3.7-9.7,8.6-7.6,14.2
	c15.6,43.1,41.6,55.1,42.8,56.4c9.5,11.1,22,20.9,25.3,22.8c2.9,1.7,6.8,2.1,9.9,2.9c7.3,1.7,14,2.1,21.7,2.8
	c7.3,0.7,14.8,1.3,22.3,1.3c15.9,0,32.2-0.5,47.6-3.2c3.6-0.7,5.2,1.1,8.3,2.8c3.2,1.9,6.4,2.9,9.4,5.2c3,2.3,61,46.2,63.7,49.8
	c1.6,2.1,2.9,4.5,4.5,6.6c1.5,2.3,1.1,4.1,2.3,6.2c1.9-2.8,5.6,5.2,6.5,6.8c1.6,3,1.7,6.8,3.2,9.9c2.4-3.3,5,4.9,5.4,6
	c4.4-1.9,9.7,4,13.1,6c2.8,1.6,4.8,4.2,6.5,7c0.7,1.2,1.6,2.8,2,4.1c0.4,1.2,0.3,2.9,1.1,3.8c0.8-0.4,1.5-1.2,1.7-2.1
	c2.6,1.7,1.1,9.4,1.3,12.3c0.7-0.3,1.5-0.3,2.1-0.8c-1.2,3-1.3,8.3-1.2,11.5c0.3-0.4,1.3-0.9,1.6-1.2c0.3,2.9-0.7,5.6-0.3,8.3
	c0.9-0.1,1.9-0.5,2.9-0.9c-1.5,3.3-0.8,6-3.8,8.6c-1.5,1.3-3.3,1.2-0.9,2.7c1.3,0.8,3.3,0,4.5,0.7c-1.5,0.9-4.2,2.1-1.3,3.3
	c1.9,0.8,5-1.6,7-1.3c0.5,2.7-2.4,4.2-3.4,6.1c2,2.6,3.8,0.7,6.2,0.7c4.6,0,0,2.5,0.1,4.8c1.1-0.4,2.4-0.9,3.4-1.7
	c0.7,6.4-2.1,12.1-4,17.8c-1.6,4.8-8.5,11.3-7.4,16.4c1.2,0.1,2-0.9,3-1.6c-1.5,2-2.8,4.6-3.7,7c1.9-2.4,7.3-5.2,9.1-6.2
	c-1.6,3.6-4.1,7-6.8,10.1c-2.1,2.5-8.5,7.9-7.8,11.7c1.6-0.4,3-2.3,4.8-3c-2.8,2.6-6.2,8.3-6.6,12.2c2.3-3.6,6.8-6.8,10.1-9.3
	c-2.6,4.6-4.5,8.7-5.7,13.8c-0.9,3.7-1.3,10.1-4.8,12.7c0.1,0.3,0.3,0.5,0.4,0.8l-2.3,4c-4.5,3.3-9.4,7.8-12.7,12.6
	c-2.8,4.1-4,13.6-0.3,17.5c0.4-3-0.5-5.4-0.8-8.3c-0.3-3.8,3-5.3,5.8-6.8c2.6-1.5,5.2-2.9,8.1-4.2c2-0.9,5.4-2,6.6-4
	c-0.1,4,0.9,8.1,0,11.9c-0.9,3.7-2.9,6.1-5.7,9c-2.8,2.9-5.4,6.2-5,10.6c0.4,3.7,4.1,6.1,7.6,6.6c-1.7-3.8-3.8-5.2-2.3-9.7
	c0.8-2.4,2.9-8.6,6.2-7.4c-0.9,3-2,6.9-1.3,10.2c0.7,3.8,1.2,8.1,0.9,12.1c-0.4,4.1-1.9,7.6-2.5,11.5c-0.7,3.7,1.2,7.4,3.4,10.2
	c-1.9-3.4-0.1-10.9,3.2-13.1c0.5,2.3-0.7,5.2-0.8,7.4c-0.3,2.6-0.3,5.3-0.4,7.9c-0.4,5-1.7,10.3-1.3,15.5c0.4,5.7,1.5,10.9,2.6,16.4
	c1.1,4.9,0.5,11.4,4.8,15.1c-0.3-4.9-1.7-9.5-1.7-14.7c0-3.2,0.4-7.2,1.9-10.1c0.8-1.6,3.7-6.1,5.7-5.8c-3,7.4-4.4,13.8-4.4,22
	c0,5,0.4,9.8,0.4,14.8c0,2.5-1.2,10.6,1.3,11.5c0.9-1.7,0.5-4.6,0.8-6.6c0.5-3.7,1.5-6.9,2.8-10.3c1.3-3.4,2.5-6.5,4.5-9.5
	c-0.1,6.8-0.9,13.2-0.9,20.1c0,6,0.9,11.9,2.1,17.8c-0.3-4.1,0-8.6,0.5-11.8c0.9-5.3,4-11.5,3.6-16.7c2.8,3.8,3.7,9.9,4.5,14.6
	c0.5,2.8,0.7,5.8,0.9,8.7c0.1,2.6-0.4,7.7,1.7,9.4c1.9-2.6,1.3-7.4,1.9-10.6c0.4-3,1.2-6.4,2.9-9c1.2,2.9,0.5,6.8,0.8,10.3
	c0.3,4.1,0.9,8,0.9,12.2c1.2-3,3-8.6,1.3-11.7c2.1,2.7,3.6,5.4,3.6,8.9c0,3.6-2,10.6,0,13.6c2.5-1.3,3-5.7,4.6-8
	c1.3,2.1-0.8,7.7-1.1,10.3c-0.3,3.4,0.4,7.3,3.2,9.5c-0.3-7.2,2.8-13.4,3.6-20.3c4.8,0,1.1,12.5-0.1,14.4c5.3-3.3,7.3-6.2,8.6-12.3
	c1.6,1.6,0.9,6.4,0.5,8.5c-0.7,3.6-2.8,7.7-2.8,11.3c5.4-3.2,5.8-13.2,7.8-18c1.1,3.2,2,7.2,2.4,10.7c0.3,3-1.3,9.9,0.3,12.3
	c0.5-3.3,2.5-6.1,3-9.4c0.8-4.2,1.1-8.3,0.9-12.6c2.6,2.6,3.2,6.2,4.9,9.5c1.9,3.6,3.8,6.5,4,10.6c0-7.2,0.1-16.6-4.5-22.4
	c2.6,2.5,3.4,5.8,5.3,8.7c2.3,3.4,4.9,6.6,7.2,10.1c4,6.5,9,10.3,14.2,15.6c3.6,3.8,7.4,8,11.8,11c4.1,2.9,10.2,7.9,15.4,7.2
	c-1.3-2.1-4.2-3.6-6.2-5.2c-1.1-0.9-2.1-2-3-3c3.3,3.4,8.6,6.5,12.3,6.5c-0.5-1.1-2.3-1.7-3.2-2.5c-1.5-1.2-3.2-2.6-4.4-4
	c-2-2.3-3-5.2-4.9-7.6c-3-4-8.2-10.5-7.6-15.9c5.4,6.5,13.6,7.7,20,12.7c3.3,2.6,5.2,5.8,6.4,9.8c1.1,3.8-0.1,6.8-0.1,10.5
	c1.5-1.6,0.9-4.4,0.9-6.4c1.5,2.5,1.6,6.6,1.9,9.7c0.3,3.3,0.9,6.5,0.9,9.8c0,6.9-0.5,13.9-0.4,20.4c0,6.9-1.6,13-2.8,19.5
	c-0.5,2.9-2.3,5-3.3,7.8c-1.2,2.8-1.2,5.6-1.5,8.7c-5.8,0.5-11.8,0.5-17.8,0.5c-5.2,0-11.5-0.4-15.9,2.6c1.3,0,2.8,0,4.1,0
	c-4.4,1.3-8.9,5.8-12.5,8.7c-4,3.3-6,7.7-8.5,12.1c-4.5,8.1-5.6,17.5-5.7,27c0.1-1.7,3.6-5,5.3-4.6c-0.5,0.8-1.5,6.4-0.3,6.9
	c0.9,0.4,3.8-3,6.1-2.5c0.4,1.7-0.7,2.8-0.8,4.4c1.5-1.2,3.4-3.3,5.7-3c0.1,1.2-0.3,2-0.3,3c3-0.9,4.1-2.1,7.3-0.8
	c-4.1,0.9-8.7,4.4-11.7,7.7c-3.6,4-9.5,9.3-11.7,14c0.8-0.5,1.7-0.9,2.6-1.2c-2,3.2-4.8,6.9-5.3,10.6c-0.1,0.4,0.3,1.5,0.1,2.1
	c-0.1,1.5-0.9,2.6-1.3,4c-0.5,1.7-0.9,3.7-0.1,5.3c0.8,1.5,1.7,1.5,2.3,3.2c0.5,1.6-0.3,3.3,0.4,4.9c0.4,1.1,2.3,2,2.5,2.8
	c0.5,1.9-1.2,2.4-1.6,3.8c3,1.2,5.7,2.9,8.9,3.2c3.3,0.3,6.1-0.7,9.4-0.9c3.7-0.3,7.4,0.3,10.7,0.8c2.1,0.3,2.4-0.7,4.6-0.9
	c1.7-0.1,2.1,0.7,3.7,1.7c6.4,4.6,13.5,4.1,21.2,4.1c4,0,7.7-0.5,11.5-0.4c3.6,0,7.6-0.8,11.1-1.3c6.6-1.1,14.7-4.5,13.8-12.9
	c3.2-0.8,6.5-3.7,8.9-6c1.7-1.7,3.4-6.5,4.9-7c0,0,12.2-2.1,16.4-1.7c2.3,0.1,4.5-0.1,6.8-0.4c2-0.1,4.4,0.4,6.1-0.7
	c-2.1-4.2,3.3-3,6.2-3c3.3,0,6.5-0.1,9.8-0.4c6.4-0.5,13.4-3.3,18.5-7.3c-0.8-1.2-2.5-2.3-3.4-3.3c3.8-0.4,7.8-0.7,11.8-0.5
	c-4.4-2.8-9.7-4.1-12.6-8.9c2.9,2,5.3,1.5,8.7,1.7c3,0.3,5.6,1.6,8.3,2.1c-0.4-2.6-4.1-6.8-3.8-9.1c0.9-0.3,2-0.1,2.9,0.3
	c-0.7-1.3-2-2.5-2.9-3.4c2.4-0.7,4.9,1.1,7,1.2c-1.1-3-3.4-4.9-6.6-5.8c1.6-2,4.4-1.6,6.5-2.7c-1.9-0.4-4.1-0.5-6-1.2
	c4.1-2.7,5.4-6.1,8.2-9.7c-1.2,0.4-2.5,0.5-3.8,0c1.2-2.5,2.8-4.4,3.7-7c-0.8,1.2-2.1,2.1-3.8,1.6c0.5-2.1,1.5-4.5,1.9-6.6
	c0.4-2.5-0.9-3.8-1.9-6.1c2.6,1.2,6.4,2.5,8.1,5.2c2,3.2-0.1,7.3-1.5,10.3c3.7-1.1,5.4-4.6,7.2-7.9c0.8-1.5,2.1-2.9,2.5-4.4
	c0.7-2,0-3.4,0.1-5.3c1.5,1.3,2.3,1.5,2.6,3.6c0.3,1.7-0.7,3.3-0.8,4.8c4-2.4,4.1-10.3,3-14.2c-0.8-3-2.4-4-4.8-6
	c-1.9-1.6-3.8-3.4-3.2-6.1c2.4,0.7,4.1,1.3,6.5-0.1c-1.9-2.1-6.5-3.6-6.5-7c4.5,2.4,9.9,2.4,14.6,0.3c2.6-1.2,8.7-5.8,8-9.1
	c-1.1,0.4-2.4,0.8-3.4-0.1c1.5-2,2.9-3.2,3.8-5.7c-2,1.9-5.2,3.3-7.8,3c0.7-4.4,2.3-9.5,1.3-14.2c-0.5-2.3-2.7-4.9-4-6.6
	c-1.5-1.9-3-2-4.8-3.4c0.9-0.9,2.3-1.3,3.3-1.9c1.6-0.9,2.9-2.1,4.5-3.6c2-2,4.4-4.4,3.4-7.6c-1.1,1.2-4.2,1.6-4.8-0.4
	c1.6-0.9,5.8-1.7,5.3-4c-1.1,0.5-2.3,0-3.4-0.1c2.8-0.4,5.8-4.8,5.2-7.6c-3.8,1.9-5-0.3-8.5-1.6c1.3,0.5,2.8,0.1,4-0.3
	c-0.5-2.6-4.6-2.6-4-7c0.3-2.1,1.5-3.2,2.7-4.9c0.9-1.3,1.2-3,2.3-4.1c2.1,1.7-1.3,6.6-2.5,8.6c4-2.3,7.7-1.1,10.2-5.8
	c1.7-3.3,2-8.6,0.1-11.9c-2.5-5-12.9-12.6-11.4-18.5c3.8,1.5,7.4,3.2,11.5,4.2c4.1,1.1,7.3,3.3,11.3,5.2c3.7,1.7,7.8,2.4,11.9,2.4
	c2.7,0,9.7,1.2,11.4,0c-2.3-1.3-6.1,0.4-7.7-3.6c5.4,0,10.2,1.3,15.5,0.4c5-0.8,10.1-1.6,14.8-2.5c-3.6-2.5-8.2-3-11.7-6.4
	c3.7,0.1,7.3,1.6,11,2.3c2.4,0.4,8.3,2.5,10.2,1.5c-3.4,0-4.8-3.6-7.2-5.7c4.8,3.2,10.6,3.2,15.9,3.8c5.3,0.7,10.5,0.7,15.9,0.9
	c-0.8-1.5-2.1-2.5-3.2-3.7c1.3,1.1,4.2,0.9,6.1,1.5c1.9,0.5,3.6,0.9,5.6,0.9c-1.5-1.2-3.2-1.7-4.8-2.8c-1.3-0.9-2.1-2.4-3.4-3
	c8.3,0.1,17.4,2.1,25.6,1.2c-1.3-0.9-4.1-2.5-4.4-4.2c3.2-0.1,6.1,2,9.7,1.6c-0.3-0.9-1.1-1.7-1.3-2.9c0.9,1.1,4.6,1.3,6.1,1.2
	c-1.2-1.3-1.7-2.5-1.6-4.4c1.6,3.2,3.8,3.2,7.2,2.9c-0.5-1.3-0.9-5,0-6.2c1.9-2.1,2.4,1.7,2.3,3.4c0.9-5.2,7.3-10.5,7.2-9.7
	c2.3,0.3,5.2-1.7,7.2-2.7c1.5-0.7,3.7-2.9,5.2-2.9c0.8,3.4-2.8,5.7-3.8,8.3c2.5-1.3,5.6-2.9,8-4.5c1.6-1.1,5.2-6.4,6.6-6.5
	c0.1,2.1-2.8,2.9-3,4.8c3.6,0.5,11.3-3.7,13.2-6.9c0.1,2.6-2.1,4.1-2.9,6.5c4.2-0.1,9.5-5.2,11.4-8.3c0,1.5-1.1,2.9-1.2,4.4
	c-0.3,2.1,0,4-0.8,6.1c2.7-1.5,4.1-5.3,5.7-7.8c0.8-1.2,2.9-3.4,3.2-4.1c-0.3,0.9-0.7,1.9-1.2,2.6c1.7-1.2,4-2.1,5.6-3.4
	s2.3-4,4-4.9c-0.4,5.8-4.9,11.1-5.2,16.8c2-0.4,3.2-2.8,4.2-4.4c1.6-2.4,3.4-3.8,5.4-6c2.8-2.9,3.4-8.1,6.2-10.5
	c0.4,3.8-1.6,7.4-1.2,11.3c0.3,2.8,0.9,6.2,2.1,8.9c0.7-4.1,0-8.3,1.9-12.3c1.2-2.4,2.4-4.5,3.2-7.2c0.4-1.6,0.8-3,1.7-4.2
	c0.1,5.2-1.7,10.1-1.3,15.4c0.1,3,0.8,12.7,4.8,13.2c0.7-6.6-1.3-15,2.8-20.7c-0.1,3-0.3,6.5,0,9.5c2.4-2.1,2-6.6,2.7-9.5
	c0.9-3.6,1.6-7.3,2.5-10.7c0,3-0.3,6.2,0.1,9.1c0.3,2.9,1.5,5.7,1.2,8.7c1.3-2.5,0.1-6.1,0-8.7c-0.3-3.2,0.3-6.4,1.3-9.3
	c1.5-3.8,3.2-7.6,4.4-11.5c0.9-2.8,1.3-6.2,2.8-8.9c-0.1,1.7,0.5,3.4,0.4,5.3c-0.1,2.9-0.7,6-1.2,8.7c-0.9,5.3-0.9,9.8-0.1,15
	c0-11.9,7.4-21.9,7.2-33.9c3.3,5.6,5.3,13.1,4.5,19.5c-0.8,5.7-1.1,11.7-2.5,17.2c-1.1,4.4-2.4,9.3-2.6,13.5c0.7-1.6,2.1-2.8,3-4.4
	c1.3-2.4,1.7-4.9,2.5-7.4c1.7-5.4,4.5-10.5,6.2-15.9c2.9-9.3,4.5-19.2,6.4-28.5c1.2,1.7,1.1,6.9,1.3,9.3c0.5,5.4-1.3,10.6-0.9,15.9
	c0.4,4.9,1.1,9.9,1.9,14.8c0.4,2.7,0.5,6.2,2.1,8.3c-2.4-8.1-0.4-18.2,0.1-26.5c0.4-5.6,1.2-11.7,3-17.1c1.1-3,3.3-5.7,4.2-8.7
	c0.7,3-0.8,6.9-0.8,10.1c0,3.8,0,7.8,0,11.7c0,8,1.1,15.2,2.3,22.9c0.1-7.6,2.4-15.5,3.2-22.9c3.2,2.5,2.9,13.1,2.5,17
	c-0.5,3.8-1.9,8.2-3.3,11.8c-1.1,2.4-3.3,5.8-2.6,8.5c1.9-0.8,3.4-5.6,4.5-7.6c0.8-1.6,1.7-4.8,3.3-5.7c1.2,10.5-1.6,20.9-1.7,31.4
	c3.6-8.9,5-18.9,13.8-24.6c-0.3,1.9-0.8,4.2-1.2,6.2c-0.7,2.5-2.1,4-3.4,6.2c4-0.4,6.4-5.3,9.5-7c0.4,4.5-1.9,8.7-4.5,12.3
	c-1.3,1.9-2.4,4.1-4.4,5.4s-5.3,1.5-6.5,3.6c2.8,1.7,7.8-0.3,10.6-1.2c2.4-0.8,3.8-1.5,5.7-3.2c0.9-0.8,1.6-2,2.7-2.1
	c1.3,4.4-3.2,7.7-4.8,11c1.5,0.3,2.4,1.1,4,0.9c1.6-0.1,2.6-1.5,4-1.9c4.2-1.5,2.4,2.9-0.3,4.1c1.7,1.6,4.8,0.8,6.1-1.2
	c1.5,1.7-1.2,3.7-2.1,5.2c-1.3,2-2,3.7-2.4,6.1c0.7-2.5,4.8-4.5,6.6-6.1c2.3-1.7,4.1-4.9,4.5-0.4c0.3,3-0.9,5.8-0.9,8.9
	s-1.3,5-1.9,7.8c2.5-2.1,4.6-4.1,5.7-7.4c0.7-2.1,1.3-6,3.4-7c-0.8,4.1-0.9,8.2-0.1,12.3c0.3,0.1,0.5,0.1,0.8,0c0-1.7,2-4.8,2.6-6.5
	c0.8,2,1.7,3.8,2.4,6c0.5,1.9-0.4,6,1.7,6.8c0.4-3.3,0.4-6.5,1.5-9.5c1.7,4.6,4.2,9.1,8.7,11.8c0.1-1.3,0.1-2.8,0-4.2
	c1.7,1.7,2.6,5.2,4.9,6.1c0.3-1.6,0.5-3.4,1.5-4.8c1.2,2.5,2.9,10.7,6.5,11.5c-0.3-3.3-3.2-10.7,0.4-13.2c0.8,2.9,2.9,5.4,4.4,7.9
	c1.5,2.4,2.5,4.9,3.7,7.4c-0.4-1.9-1.2-4-0.9-6c0.9,1.7,3,2.8,4.4,4.2c1.3,1.6,2.1,2.5,4.1,3.4c-2.5-1.5-3.6-6.9-3.8-9.5
	c1.2,0.7,1.6,1.7,2.5,2.6c0.8,0.8,2.5,1.5,3.2,2.3c1.9,2.1,0.3,4.6,0.5,7.4c0.3,3.3,0.4,12.6,4.4,13.6c-1.6-2.8-1.1-11.4,3-11.9
	c-1.3,6.5-1.3,11.7,1.3,18.2c1.1,2.5,6.6,14.3,10.2,12.1c0,2.1-1.6,5.4-2.3,7.6c-0.8,2.4-2.3,4.6-3.4,6.6c-2.9,5-5.7,10.1-8.5,15.1
	c-3.2,5.7-14.4,19.3-16.2,21.7c-1.3,2-3.3,3.4-4.9,5.3c-2.8,3.3-3.7,3.8-8,5c-3.3,0.9-6.6,1.5-10.2,1.9c-7.6,0.8-15.6,0.5-23.2,1.7
	c-7.2,1.2-13.1,2.1-19.2,6.6c-2.7,1.9-5.8,4.2-7.8,6.9c-1.1,1.3-4.9,7.4-1.5,7c0.9,3.7-3.3,6.9-3.8,10.1c0.7-0.4,1.6-0.5,2.5-0.3
	c-0.9,6.4-0.9,11.8,3,17.4c3.6,5,7.6,7.8,13.9,8c1.9,0,3.2-1.1,4.8,0.1c1.2,0.8,1.3,2.1,2.4,3c2,1.7,5.6,2.7,8,3.4
	c6.1,2,12.7,2.3,19.6,2.3c8.3,0,16.8-0.8,24.9-2.3c7.8-1.3,14.8-5.6,21.1-10.6c6-4.8,10.7-9.5,14.6-16c3.6-6.2,8.3-12.2,12.5-18.3
	c7.6-11.1,15.6-22.3,23.7-33.3c4.2-6,19.2-19.7,20.9-21.7c1.9-2,4.9-6.4,6.5-7.3l2.3-2.6c0.9-1.3,1.6-3.3,3-4
	c-0.4,2.1,0,4.5-0.4,6.6c-0.4,2.1-1.9,4-2.3,6.1c1.7-1.5,3.3-3.7,4.4-5.6c0.9-1.7,0.4-5,2.3-5.7c0,2.1,0.5,4.2,0.5,6.5
	c3.8-4.6,4.6-13.4,10.2-16.7c-1.1,1.9-0.7,4.5-1.7,6.6c-1.2,2.4-4,5-4.4,7.4c3.8,0.8,5.8-5.4,7.4-7.8c2.6,3.4-2.5,7.7-2.7,10.9
	c2.1-1.6,4.1-3.8,5.3-6.1c1.2-2.4,0.5-5.4,2-7.3c1.1,2.4,1.5,5.8,1.2,8.6c-0.3,2.7-3,6.5-2.5,9c3.2-1.6,5.3-5.2,6.6-8.3
	c1.3-3.2,0.7-6.4,0.9-9.7c1.5,1.7,2,4.9,2.5,7c0.7,2.5,0.3,6,1.3,8.2c-0.1-6.2,0.9-13.6-2.5-19.1c4.1,6,7.3,12.2,11.7,17.9
	c4.5,5.8,10.3,11,13.1,17.6c2.6,6.4,4.1,12.6,6.1,19.2c2.1,7.4,7.2,13.8,9.3,20.9c2,6.4,2.4,13.5,3.2,20.4c0.7,7.2,0.5,29.8-0.4,33
	c-0.9,2.8-4.9,5.3-7.2,7c-6,4.8-12.2,4.4-18.7,7.2c-3,1.3-6.9,3-9.4,5.2c-1.9,1.6-5.3,6-5.3,8.5c1.3,0,2.5-0.7,3.8-0.8
	c0.7,2.7-1.7,5.7-2.1,8.3c-1.1,6.8,0.1,15.2,3.4,20.9c0.8,1.3,1.7,3.6,3.2,4.2c0.8,0.4,1.9-0.3,2.7,0.1c0.5,0.3,0.9,1.2,1.5,1.2
	c3,0.7,5.8-3.7,9.3-2.5c1.2,0.4,1.1,1.3,1.9,1.9c0.1,0.1,0.5,0.8,0.8,0.9c0.3,0.3,0.5-0.8,0.9-0.5c1.3,0.8,2,2.8,3.3,3.6
	c3.2,2.1,4.6-6.1,7.2-1.1c0.4,0.8,0.4,2,0.8,2.8c0.9,1.3,1.2,0.7,2.1,1.3c1.7,1.2,2,2,3.2,3.6c1.3,1.9,10.3,7.3,10.7,2.3
	c6.4,2.4,12.1,4.5,19.3,3.8c-0.5-0.8-0.8-1.6-0.7-2.5c2.4-0.3,4.6-0.1,7-0.7c-0.4-1.9-4.8-5.8-4-7.6c0.9-2,6.8,0.4,8.7,0
	c-0.8-1.1-1.6-1.9-2-3c2.1-0.3,4,0.7,6,0.4c-2.7-1.5-3-1.7-0.3-3.2c2.1-1.1,4.4-1.7,6.6-2.4c4.6-1.3,9.3-2.4,13.8-4.6
	c4.4-2.3,8.3-6.4,10.7-10.9c1.9-3.7,1.7-9,1.3-13.4c-0.7-7-3.2-14.8-5.8-21.3c-2.8-7-7.7-13.5-8.9-20.9c-1.2-7.2-0.5-15.1,0-22.3
	c0.7-7.8-0.7-60.6,0.9-78.7c0.7-7.2,0.5-15.4,0-22.7c-0.1-2-0.9-4-0.9-5.8c0-1.6,0.9-3.3,0.5-4.5c-0.5-1.9-6.1-6.6-0.7-6.6
	c-2.9-4.2-7.4-5.7-11-8.9c-2.4-2.1-7-11.4-6.2-14.6c1.6-0.3,3,1.2,4.2,2.3c-1.3-2.4-3.6-5.3-4.2-8.1c-0.7-2.5,0.7-6.9,1.2-8.9
	c0.8,1.9,3.2,5.4,5.4,5.2c-1.5-2.5-2.1-5.2-2.6-8c-0.5-2.9-1.7-5.7-2.3-8.3c2.1-0.5,4.6,0.8,6.5,1.7c-1.9-2.4-4.2-4.1-6.9-5.6
	c2.3-1.5,5-0.9,7.6-2c2.4-1.1,5.4-1.5,7.4-2.5c-0.9-1.6-2.6-0.9-4.4-1.3c-2.1-0.4-4.2-1.2-6.2-1.9c-4.4-1.6-6-5.7-9.1-8.7
	c3,0.7,10.3,4.9,12.6,7.6c-6.9-9.8-16.4-18.4-27.7-22.8c7.4,2.7,16.3,2.3,24,1.3c3.6-0.4,7.4-0.9,11-1.2c2.1-0.1,6.2,0.5,7.2-1.9
	c-2.1-0.1-4.2,1.1-6.5,1.3c-3.2,0.4-6.1-0.9-9.1-1.7c-4.6-1.2-10.7-2.1-14.4-5.4c5.6,3.3,13.4,3.8,19.9,2.4c6-1.5,15.1-2.9,18.2-8.9
	c-3.7,4.5-10.6,4.5-16.3,3.8c1.1-1.1,3.4-0.8,4.9-1.3c1.7-0.5,3.6-1.5,5.2-2.5c-1.7-0.4-3.2,0.5-4.8,0.8c-1.7,0.3-4,0.3-5.7,0
	c-3.7-0.5-7.6-2.7-10.7-4.4c-6.4-3.4-14-9.4-11.9-17.2c2.8,1.7,15.8,11.3,12.7,15.2c3.2-4.1-2.4-8.7-4.8-11.3
	c-3.6-3.7-6.8-7.6-11-10.3c6.4,4,13.6,6.9,19.7,11.1c2.8,2,5.4,5.2,7.2,8.1c1.7,2.9,1.2,5,1.1,8c3.6-1.1,3.3-6.2,3-9.3
	c-0.4-4.5-3.3-7-5.8-10.3c-3.3-4.2-7.6-6.8-11.9-9.7c-1.7-1.2-10.7-6.4-10.7-7.6l-4-4.9c-0.5-0.1-0.9-0.3-1.3-0.5
	c1.1-1.7,4.5-2.3,0.9-4.2c3.4-1.2,6.1-6.4,7.6-9.4c0.4-0.1,0.5-0.3,0.8-0.4c-2.4-0.3-4.6-0.1-6.9-0.5c3.2-0.7,5-5.3,6.1-8
	c-1.3-0.1-2.8-0.1-4.2,0c1.1-0.8,4.4-1.7,4.2-3c-0.1-1.2-3.8-1.9-4.6-1.9c1.5-1.7,4.1-2.9,5.2-4.9c-2-0.3-3.8,0.7-5.6,0.3
	c3.4-2.1,8.1-4,10.5-7.4c-1.5-0.5-3.6-1.3-4.4-2.7c4.4-3.8,13.5,2.7,14.2,7.4c1.1,7.3-5.4,9.9-9.8,13.2c3,1.7,6.4-0.8,9.3-0.3
	c-0.9,1.2-2.8,2.4-3,3.8c1.9,0.1,4-0.7,5.7-0.3c0.1,2.1-3.4,4.1-5.2,4.8c3.3,0.4,8.7-2.5,11.8-4c-0.7,2.3-2.8,3.8-3.4,6.1
	c2.8-1.9,4.2-4.5,7.4-5.7c2.1-0.8,4.5-1.2,6.6-2.1c1.7-0.7,3-2.1,4.9-1.9c-0.4,0.9-1.1,1.9-1.3,2.9c1.9-2.4,4.9-4,7.8-3.8
	c-3.6,3.3-10.1,8.9-9.5,14.2c0.9-0.8,0.4-1.7,1.3-2.5c0.8-0.8,2.8-1.2,3.8-1.5c3-0.8,5.6-1.5,8-3.4c-0.4,1.3-0.8,4,0,5.3
	c1.3-2.6,5.2-4.6,5.6-7.6c2.5,2,3.7,8.7,3.4,11.8c2.3-2.3,4-4.5,4-7.7c1.1,1.7,1.3,4,1.5,6.1c2-2.8,2.3-6.1,2.1-9.5
	c2.5,4.1,6.2,7.4,8.7,11.4c-2.4-4-2.8-7.2-2.9-11.8c2.9,2.7,5.2,6.4,8.1,9.1c2.9,2.8,6.9,5.3,10.5,7c-1.3-2-3.4-3.2-4.9-5.3
	c-1.1-1.6-2.1-3.6-2.5-5.3c2.4,1.9,4.5,4.5,6.9,6.4c2.8,2.1,6.2,3.2,8.5,6c-2.3-3.2-7.2-7.3-7-11.8c2.9,1.3,6,5.3,8.3,7.6
	c2.7,2.7,4.9,5.7,8,7.8c-1.1-3.3-3.8-6.1-3.6-10.1c1.7,1.2,3.7,2.3,5.3,3.7c0.1-0.5,0.4-0.9,0.5-1.5c1.7,4.8,0.7,9.4-1.3,14
	c3,0.7,7.8-4,9-6.6c0.9-2,0.8-7.8,4.2-6.6c0.3,2.8,1.3,6.5,0.9,9.1c1.9-4,3.8-6,6.8-9c-0.8,3.4-0.8,6.4-0.5,9.9
	c0.3,3.3,2.3,6.2,2.7,9.3c0-2.8-0.1-5.3,1.1-7.8c0.9-2,3-4.1,3-6.2c3.2,2.9,2.9,5.7,2.7,9.7c1.7-1.2,2-4.1,2.5-5.7
	c2,2.8-0.5,6.2-0.3,8.9c5.2-2.1,9.3-5.4,11.8-10.2c0.4,3.2-0.7,5.8-1.2,8.7c3.4-4.4,6.1-10.2,11.4-12.7c0.5,4.6-0.3,8.6-1.7,12.9
	c-0.7,2.1-0.9,4.1-2.5,5.8c-1.2,1.3-3.7,2-4.5,3.4c2.4,0.3,6.9-0.7,9.4-1.2c3.3-0.8,5.7-2.5,8.6-4.1c-1.7,2.9-5.7,4-8.6,4.9
	c2.8,0,6,0.4,8.3-0.4c3-0.8,6.1-2.7,8.7-4c3.3-1.6,5.8-3.3,8.5-5.8c1.5-1.5,4.5-6.1,6.2-6.1c-1.1,3.3-1.7,6.9-1.7,10.5
	c0.4-4.8,7.6-7.3,8.1-12.3c2.5,0.5,3.2,5.6,2.3,8c3.3-1.7,5.3-4.8,7.2-8c1.9,2.6-2.9,6.2-4.9,7.6c3.6,0.3,8.6-4.8,10.9-7.2
	c3-3.3,3.8-6.4,5.6-10.2c2.3,1.5,0,5.6-0.5,7.4c1.7-1.1,3-3.8,3.8-5.7c0.9-2,0.4-5,1.5-6.6c2.7,0.8,3.4,3.8,7,3
	c-0.5-2.3-1.9-3.2-1.3-5.8c0.4-2.8,0.7-3.8,3.7-3c2.1,0.5,3.6,1.2,5.8,1.5c2.4,0.3,5-0.3,7.4-0.5c-1.5-2.4-9-4.4-8.7-7.8
	c2.4-0.7,7.4,0.5,9.7,1.2c-2.1-1.9-8.3-4.9-7.4-8.7c2.3,1.6,4.5,1.9,7,2.9c2.7,1.1,4.6,2.7,7.6,3.2c5.6,1.1,11.3,2.8,17.2,2.1
	c-1.2-1.6-2.7-3.6-4.2-4.9c1.9,2.3,6.5,2.4,9.1,3.6c0.4-1.6-0.5-3.7-1.3-5.2c2.1,2.6,4.8,5.2,6.6,7.8c0.9-7.6,1.1-16,4.9-22.9
	c-1.1,2.4-0.3,6.4,0,8.7c0.3,3.4-0.5,6.1-1.6,9.3c3.3-1.6,6.4-9,7.6-12.3c1.1,0.7,1.2,3,1.3,4.4c1.9-2.4,1.7-6.8,2.5-9.7
	c0.5-1.7,1.6-2.5,2.4-3.8c0.7-1.5,0.9-2.9,1.2-4.4c-0.3,2.3,0.8,4.2,0.5,6.6c-0.3,1.7-1.2,3.4-1.3,5.2c2.5-3.4,5.6-6.1,6.1-10.5
	c0.3-2,0-3.8,0.5-5.8c0.4-1.5,1.3-2.5,1.6-4c-0.1,2.4-0.7,4.9-0.7,7c2.9-1.5,4.2-9.8,4.8-12.9c0.7-4.4,1.9-8.3,4.1-12.3
	c0,2.4,0,4.9,0,7.3c0.9-3.8,3-7.8,6-10.9c1.5-1.6,3-2.9,4.4-4.5c1.6-1.9,2.1-4.2,3.4-6.1c0.5,6-4.1,12.7-8.3,16.2
	c3.6-0.8,5.4-3.6,8.3-5.8c2.9-2.3,5-4.2,6.6-7.6c1.5-2.9,2.5-6.1,3.3-9.3c0.8-2.9,0.5-6.4,1.7-9.1c0.7,1.2,0.9,2.7,2.1,3.3
	c0.5-1.9-0.4-4.5-0.4-6.5c0.4,1.9,1.7,4.2,2.4,6.5c-1.2-10.1,1.7-19.9,1.6-29.9c0.8,2.3,1.6,4.5,1.9,7c0.1,2.6-0.7,5.2-0.4,7.9
	c0.7-0.9,1.1-2.3,1.7-3.3c-0.1,2.8-0.7,6.2-0.4,8.7c2.5-1.6,2.6-8,3.2-10.6c0.5-3,2.4-9.4-0.8-11.5c5.4,1.9,14.2,2.4,18.8-1.9
	c-2.4,0-4.9,0.1-7.3,0c0-0.5-0.1-0.7,0-1.2c1.5-0.5,3.4-1.9,4.4-3c-3.3-0.5-14.7,2.5-16.4-1.5c1.7-1.3,3.7-0.9,5.6-1.9
	c-3,0.3-7.2-1.1-9.9-2.1c3.7-1.3,8.2-1.5,12.2-2.8c3.7-1.2,7.3-3.6,9.7-6.6c-8,3-18.6,4.9-25.3-2.5c3.3,2.4,9.7,2.4,13.8,2.1
	c2.8-0.3,9.5,0.5,11.7-0.8c-4.5,0-8.3-4.4-12.7-4.1c6.8,0,15.6-0.9,21.1-5.3c-4.2-0.1-9,0.8-13.5,0.5c-4.6-0.3-8.5-3.4-12.9-3.6
	c4.8-3.4,15.2-4,20.7-1.9c6,2.4,11.9,11.3,9.3,18.2c1.6-2.9,0.5-8.5,0-11.4c-0.5-3.2-0.7-7.6-3.8-9.4c1.5,0.5,3.7,1.2,5.2,1.3
	c-1.3-2.8-9-5.3-9.3-7.4C1575.7,546.2,1581.7,544.7,1583.4,542.1z"/>
</svg>
